<?xml version="1.0" encoding="utf-8" ?>
<svg xmlns="http://www.w3.org/2000/svg" xmlns:xlink="http://www.w3.org/1999/xlink" width="1024" height="1024">
	<path fill="#F45D40" d="M791.457 716.629C790.905 709.741 789.511 698.483 794.15 692.736C795.888 690.583 798.266 689.58 800.984 689.418C804.056 689.235 806.635 689.988 808.87 692.166C812.846 696.041 812.793 703.389 812.697 708.584Q812.617 712.586 812.489 716.587C809.129 713.394 805.995 710.957 801.884 708.772C797.122 710.666 795.041 713.093 791.457 716.629Z"/>
	<path fill="#1A7680" d="M672.532 497.055L695.943 497.045C696.037 504.837 696.437 512.684 696.222 520.47L672.545 520.477L672.51 510.156L672.479 507.331L672.532 497.055Z"/>
	<path fill="#4CAA98" d="M672.479 507.331C674.058 507.073 675.011 506.901 676.545 507.562C677.33 508.638 677.288 508.584 677.142 509.913C676.165 510.808 675.937 511.157 674.507 510.988C673.936 510.921 672.973 510.422 672.51 510.156L672.479 507.331Z"/>
	<path fill="#F9A05D" d="M274.529 312.068C282.508 312.111 290.504 311.878 298.483 311.759L298.501 336.502L274.559 336.489L274.529 312.068Z"/>
	<path fill="#F45D40" d="M819.006 780.477L818.923 753.746C818.881 748.321 818.32 742.587 819.25 737.225C819.747 734.363 820.78 731.426 822.783 729.259C824.293 727.624 826.233 726.729 828.464 726.733Q828.971 726.734 829.476 726.787Q829.98 726.84 830.477 726.943Q830.974 727.047 831.458 727.199Q831.941 727.352 832.407 727.553Q832.873 727.754 833.316 728.001Q833.759 728.248 834.175 728.538Q834.591 728.828 834.976 729.159Q835.361 729.49 835.71 729.858C837.676 731.938 838.791 734.724 839.346 737.495C841.171 746.601 839.988 769.921 839.953 780.481C832.977 780.375 825.984 780.477 819.006 780.477Z"/>
	<path fill="#F9A05D" d="M801.884 708.772C805.995 710.957 809.129 713.394 812.489 716.587L812.505 780.439C805.514 780.628 798.485 780.478 791.49 780.466L791.457 716.629C795.041 713.093 797.122 710.666 801.884 708.772Z"/>
	<path fill="#2C7DB3" d="M819.006 780.477C825.984 780.477 832.977 780.375 839.953 780.481L845.407 780.487Q855.95 780.489 866.492 780.664C873.604 780.942 880.793 781.23 887.908 780.893L887.956 797.518C885.534 797.495 883.038 797.604 880.633 797.339C875.395 796.426 869.414 796.979 864.085 796.978L832.059 796.986L801.051 796.997C795.356 796.987 789.331 796.53 783.695 797.212C781.165 797.361 778.576 797.306 776.039 797.346L776.04 780.523L791.49 780.466C798.485 780.478 805.514 780.628 812.505 780.439L819.006 780.477Z"/>
	<path fill="#F9A05D" d="M845.206 737.566C853.488 732.597 862.221 728.541 870.788 724.103C877.829 720.456 884.916 715.92 892.456 713.399C894.406 712.747 896.316 712.181 898.363 712.73C901.259 713.506 903.824 715.765 905.188 718.409C906.365 720.691 906.66 723.435 905.857 725.883C905.077 728.26 903.475 730.144 901.524 731.665C894.128 737.431 875.449 744.573 866.144 749.39C866.995 759.699 866.382 770.309 866.492 780.664Q855.95 780.489 845.407 780.487C845.384 766.192 845.58 751.855 845.206 737.566Z"/>
	<path fill="#3A3F6B" d="M130.031 434.254Q183.14 433.139 236.251 434.199C236.286 438.62 236.462 443.096 236.212 447.51C235.812 452.32 236.041 457.213 236.099 462.036L130.358 462.164C130.898 457.524 130.072 452.275 130.02 447.549L130.031 434.254Z"/>
	<path fill="#F8C2A0" d="M176.745 277.591C184.256 277.106 190.779 277.958 197.275 281.969Q197.95 282.382 198.603 282.829Q199.256 283.276 199.886 283.754Q200.516 284.233 201.121 284.743Q201.726 285.253 202.304 285.793Q202.883 286.333 203.434 286.901Q203.984 287.47 204.506 288.065Q205.027 288.66 205.518 289.281Q206.008 289.902 206.467 290.547Q206.926 291.191 207.352 291.858Q207.778 292.525 208.169 293.213Q208.561 293.9 208.918 294.607Q209.274 295.313 209.595 296.036Q209.915 296.76 210.199 297.498Q210.483 298.237 210.729 298.989Q210.975 299.741 211.184 300.505Q211.392 301.268 211.561 302.041Q211.74 302.839 211.88 303.645Q212.02 304.451 212.12 305.263Q212.221 306.075 212.281 306.891Q212.341 307.707 212.362 308.525Q212.382 309.343 212.363 310.16Q212.343 310.978 212.284 311.794Q212.224 312.61 212.125 313.422Q212.025 314.234 211.886 315.04Q211.747 315.847 211.569 316.645Q211.39 317.444 211.173 318.232Q210.956 319.021 210.7 319.798Q210.445 320.575 210.152 321.339Q209.858 322.103 209.528 322.851Q209.198 323.6 208.831 324.331Q208.465 325.063 208.063 325.775Q207.661 326.488 207.225 327.18C201.905 335.455 194.272 339.479 184.881 341.485C177.191 341.812 170.377 340.632 163.815 336.456Q163.13 336.021 162.468 335.553Q161.805 335.084 161.167 334.584Q160.528 334.083 159.915 333.552Q159.302 333.021 158.716 332.46Q158.13 331.899 157.572 331.31Q157.014 330.721 156.486 330.105Q155.958 329.489 155.461 328.848Q154.964 328.207 154.499 327.542Q154.034 326.877 153.602 326.19Q153.171 325.503 152.774 324.796Q152.377 324.088 152.015 323.362Q151.653 322.636 151.328 321.893Q151.002 321.15 150.714 320.392Q150.425 319.633 150.174 318.862Q149.923 318.09 149.711 317.307Q149.499 316.524 149.325 315.732C147.591 307.591 149.114 298.503 153.739 291.543C159.217 283.301 167.334 279.508 176.745 277.591ZM177.097 285.08C169.924 286.849 163.787 290.267 159.89 296.833Q159.585 297.342 159.305 297.865Q159.025 298.388 158.771 298.925Q158.518 299.461 158.291 300.01Q158.065 300.558 157.865 301.117Q157.666 301.676 157.495 302.244Q157.323 302.812 157.18 303.388Q157.037 303.964 156.923 304.546Q156.808 305.129 156.723 305.716Q156.638 306.303 156.581 306.894Q156.525 307.485 156.498 308.077Q156.471 308.67 156.474 309.264Q156.476 309.857 156.508 310.45Q156.54 311.042 156.601 311.632Q156.662 312.223 156.753 312.809Q156.843 313.396 156.962 313.977Q157.081 314.558 157.229 315.133C158.974 321.752 163.177 327.593 169.217 330.901C174.324 333.699 179.462 334.116 185.119 333.47C191.477 332.062 196.836 329.328 200.544 323.753C204.323 318.07 205.582 310.414 204.042 303.784Q203.903 303.195 203.735 302.613Q203.567 302.032 203.371 301.459Q203.174 300.887 202.949 300.325Q202.725 299.763 202.473 299.213Q202.22 298.662 201.941 298.125Q201.662 297.588 201.357 297.066Q201.052 296.543 200.721 296.036Q200.39 295.529 200.034 295.039Q199.679 294.55 199.299 294.078Q198.92 293.606 198.518 293.154Q198.115 292.702 197.691 292.27Q197.267 291.838 196.822 291.428Q196.377 291.018 195.912 290.63Q195.448 290.242 194.964 289.878Q194.481 289.513 193.98 289.174Q193.479 288.834 192.962 288.519C188.159 285.589 182.653 284.58 177.097 285.08Z"/>
	<path fill="#F8C2A0" d="M780.298 536.216C790.605 536.501 799.55 539.202 807.276 546.274C815.68 553.967 820.025 564.175 820.464 575.502C820.884 586.355 817.075 597.304 809.584 605.234C801.577 613.71 790.842 617.734 779.335 618.028C769.816 617.707 761.663 615.593 754.222 609.402C745.65 602.268 739.489 591.786 738.614 580.555Q738.545 579.546 738.525 578.535Q738.506 577.523 738.536 576.512Q738.567 575.501 738.647 574.493Q738.727 573.485 738.857 572.481Q738.987 571.478 739.166 570.483Q739.345 569.487 739.573 568.502Q739.801 567.516 740.078 566.543Q740.354 565.57 740.678 564.612Q741.002 563.654 741.373 562.713Q741.744 561.772 742.16 560.85Q742.577 559.928 743.039 559.028Q743.501 558.128 744.006 557.252Q744.512 556.376 745.06 555.526Q745.608 554.676 746.198 553.854Q746.787 553.032 747.416 552.24Q748.046 551.448 748.713 550.688C756.923 541.327 768.077 536.949 780.298 536.216ZM776.682 546.637C767.198 548.559 758.943 552.061 753.317 560.328Q752.914 560.928 752.541 561.548Q752.169 562.167 751.828 562.805Q751.487 563.443 751.178 564.096Q750.87 564.75 750.594 565.419Q750.319 566.087 750.077 566.769Q749.836 567.45 749.629 568.143Q749.422 568.835 749.25 569.538Q749.078 570.24 748.942 570.95Q748.805 571.66 748.704 572.376Q748.604 573.092 748.539 573.812Q748.474 574.532 748.446 575.254Q748.417 575.977 748.425 576.7Q748.433 577.423 748.477 578.144Q748.521 578.866 748.601 579.584Q748.682 580.303 748.798 581.017Q748.914 581.73 749.066 582.437C750.814 590.977 756.108 599.357 763.539 604.038C769.632 607.876 776.405 608.789 783.439 608.215C792.95 606.012 800.668 602.079 806.005 593.586Q806.424 592.923 806.809 592.24Q807.194 591.558 807.545 590.856Q807.896 590.155 808.211 589.438Q808.527 588.72 808.806 587.987Q809.085 587.255 809.328 586.509Q809.57 585.764 809.775 585.007Q809.98 584.25 810.148 583.484Q810.315 582.719 810.443 581.945Q810.572 581.172 810.663 580.393Q810.753 579.614 810.804 578.832Q810.855 578.05 810.868 577.266Q810.88 576.482 810.853 575.698Q810.827 574.915 810.761 574.134Q810.695 573.352 810.591 572.575Q810.486 571.798 810.343 571.028Q810.2 570.257 810.019 569.494C808.282 561.887 803.608 554.973 796.997 550.773C790.842 546.862 783.783 546.19 776.682 546.637Z"/>
	<path fill="#58BBE6" d="M298.731 125.416L299.061 125.388C301.816 126.246 305.898 134.114 307.548 136.667C313.021 135.886 318.114 136.231 323.545 137.093Q327.62 131.31 331.88 125.662C337.256 127.929 342.498 130.935 347.716 133.565C345.825 137.878 343.893 142.159 342.401 146.632C345.92 150.558 349.045 154.537 351.784 159.051C356.328 157.499 361.016 156.524 365.696 155.488C367.368 161.282 368.645 167.254 370.089 173.112C365.658 174.647 361.222 175.963 356.702 177.202C355.741 182.945 354.47 188.098 352.294 193.511C355.5 197.326 359.064 200.814 362.57 204.351C358.527 208.711 354.658 213.24 350.622 217.611C346.563 215.264 342.91 212.212 339.31 209.232C335.869 211.239 332.574 213.157 328.828 214.55L323.481 216.195C323.581 220.945 323.759 225.769 324.405 230.478L306.516 230.491L305.773 216.285C300.652 214.428 295.9 212.062 291.184 209.344C287.356 212.369 283.504 215.209 279.473 217.957C275.41 213.209 271.156 208.542 267.546 203.436Q273.179 199.122 278.663 194.62C276.491 189.32 275.42 183.486 274.185 177.907C269.609 176.769 265.221 175.275 260.778 173.718C261.738 167.839 263.035 162.068 264.363 156.264Q271.091 156.933 277.744 158.143C281.502 153.907 285.025 149.653 289.08 145.675C287.268 141.35 285.369 137.053 284.022 132.554Q291.443 129.122 298.731 125.416ZM313.035 154.145C306.648 155.183 300.592 158.072 296.612 163.348C293.073 168.039 291.716 174.287 292.606 180.062C293.5 185.868 296.97 191.068 301.739 194.441C306.712 197.959 312.012 198.644 317.926 198.508C325.315 196.204 331.609 193.179 335.328 185.913C338.055 180.586 338.189 174.477 336.145 168.893Q335.957 168.376 335.743 167.869Q335.53 167.362 335.291 166.867Q335.052 166.371 334.788 165.888Q334.525 165.406 334.238 164.937Q333.95 164.468 333.639 164.014Q333.329 163.56 332.996 163.122Q332.663 162.684 332.308 162.264Q331.953 161.843 331.578 161.441Q331.203 161.039 330.808 160.656Q330.413 160.273 329.999 159.911Q329.585 159.549 329.153 159.207Q328.722 158.866 328.274 158.547Q327.826 158.228 327.362 157.932Q326.898 157.636 326.421 157.364Q325.943 157.091 325.452 156.843Q324.961 156.595 324.458 156.372C320.71 154.666 317.095 154.144 313.035 154.145Z"/>
	<path fill="#58BBE6" d="M783.695 797.212C789.331 796.53 795.356 796.987 801.051 796.997L832.059 796.986L864.085 796.978C869.414 796.979 875.395 796.426 880.633 797.339L877.485 822.767Q876.977 829.871 876.196 836.95Q873.311 863.355 869.807 889.685C869.073 895.056 868.958 900.76 867.82 906.031C855.056 905.962 842.265 906.578 829.486 906.567C820.105 906.558 810.682 905.839 801.316 906.095C800.629 903.53 800.223 900.876 799.736 898.266C798.946 890.865 797.52 883.431 796.369 876.068L787.783 823.05C785.889 816.807 784.749 804.158 783.695 797.212Z"/>
	<path fill="#F45D40" d="M742.163 105.228C755.822 104.743 767.835 108.668 778.507 117.265Q779.528 118.091 780.507 118.967Q781.486 119.842 782.42 120.765Q783.355 121.687 784.243 122.655Q785.131 123.622 785.971 124.632Q786.81 125.643 787.598 126.693Q788.387 127.743 789.123 128.831Q789.859 129.919 790.54 131.041Q791.222 132.164 791.847 133.319Q792.472 134.474 793.04 135.658Q793.607 136.842 794.116 138.053Q794.625 139.264 795.073 140.498Q795.521 141.733 795.908 142.988Q796.296 144.243 796.62 145.515Q796.945 146.788 797.207 148.075Q797.468 149.362 797.666 150.66Q797.864 151.959 797.998 153.265Q798.136 154.614 798.206 155.968Q798.277 157.322 798.281 158.678Q798.284 160.033 798.22 161.388Q798.157 162.742 798.026 164.092Q797.896 165.441 797.698 166.783Q797.501 168.124 797.237 169.454Q796.974 170.784 796.645 172.099Q796.315 173.414 795.922 174.712Q795.528 176.009 795.07 177.285Q794.612 178.562 794.092 179.814Q793.572 181.066 792.99 182.29Q792.408 183.515 791.767 184.709Q791.125 185.904 790.425 187.065Q789.725 188.226 788.968 189.351Q788.211 190.476 787.4 191.562Q786.588 192.648 785.724 193.693C776.134 205.315 762.888 210.84 748.177 212.27C735.111 212.777 721.903 208.065 711.806 199.846Q710.771 199.019 709.778 198.141Q708.785 197.264 707.837 196.338Q706.89 195.412 705.989 194.44Q705.088 193.468 704.237 192.452Q703.386 191.436 702.587 190.38Q701.787 189.323 701.041 188.228Q700.295 187.133 699.605 186.002Q698.914 184.871 698.281 183.707Q697.648 182.543 697.073 181.349Q696.498 180.155 695.984 178.934Q695.469 177.713 695.016 176.467Q694.563 175.222 694.173 173.956Q693.782 172.69 693.455 171.406Q693.128 170.122 692.866 168.823Q692.603 167.524 692.405 166.214Q692.207 164.903 692.075 163.585C690.679 149.346 694.674 134.738 703.832 123.654C713.635 111.791 727.174 106.562 742.163 105.228Z"/>
	<path fill="#FEFEFE" d="M766.71 140.405C768.865 140.646 771.208 140.74 772.736 142.514C773.645 143.57 773.8 144.79 773.598 146.117C772.538 153.08 745.603 177.243 738.664 182.145C732.095 177.548 726.705 171.985 721.083 166.315C718.146 163.427 714.126 159.864 713.276 155.659C713.007 154.325 713.128 152.847 713.969 151.743C714.476 151.078 715.102 150.967 715.915 150.888C721.485 150.352 733.936 162.864 737.999 166.674C743.573 161.741 748.639 156.185 754.056 151.071C758.062 147.289 762.419 143.858 766.71 140.405Z"/>
	<path fill="#58BBE6" d="M236.212 447.51C245.141 447.274 264.42 445.36 271.491 450.929C274.325 453.16 275.396 456.405 275.838 459.864C276.942 468.5 276.013 477.663 275.969 486.361L275.946 536.954L275.973 620.428C275.994 633.091 276.816 645.803 276.24 658.455C276.062 662.366 276.085 668.45 273.469 671.542C270.125 675.494 267.145 677.014 262.042 677.382C251.621 678.135 241.082 677.642 230.639 677.616L177.59 677.6L131.261 677.601C123.534 677.6 115.403 678.13 107.731 677.411C104.236 677.083 100.705 675.881 98.0735 673.492C94.119 669.901 93.6582 665.109 93.5504 660.089C92.6775 619.43 93.5176 578.678 93.5067 538.012L93.4508 492.022C93.3972 482.036 92.9359 471.949 93.6298 461.978C93.8536 458.762 93.9406 455.098 96.3338 452.726C103.84 445.287 120.227 447.431 130.02 447.549C130.072 452.275 130.898 457.524 130.358 462.164C123.16 462.684 115.985 462.187 108.779 463.047C107.124 485.932 108.85 509.632 108.971 532.599L108.999 662.578C125.351 663.829 142.139 662.754 158.541 662.752Q209.99 662.968 261.436 662.471L261.445 534.994C261.543 518.658 261.818 502.343 261.686 486.001C261.625 478.56 261.975 470.778 261.036 463.396C253.295 460.994 244.4 461.95 236.408 462.107L236.099 462.036C236.041 457.213 235.812 452.32 236.212 447.51Z"/>
	<path fill="#0A2F54" d="M672.162 877.143C677.645 876.937 683.148 877.353 687.379 881.329Q687.842 881.763 688.257 882.243Q688.672 882.723 689.035 883.244Q689.397 883.765 689.703 884.32Q690.009 884.876 690.256 885.461Q690.502 886.046 690.686 886.653Q690.87 887.26 690.989 887.884Q691.109 888.507 691.162 889.139Q691.216 889.771 691.203 890.406C691.141 894.703 689.099 899.012 686.014 901.977C684.469 903.462 682.691 904.714 680.896 905.876C693.292 906.303 705.674 905.848 718.068 905.714C745.595 905.416 773.84 904.949 801.316 906.095C810.682 905.839 820.105 906.558 829.486 906.567C842.265 906.578 855.056 905.962 867.82 906.031C875.205 905.595 903.169 904.17 909.112 905.816C911.342 906.434 913.396 907.708 914.507 909.797C915.336 911.357 915.503 913.215 914.755 914.847C914.14 916.188 912.855 917.351 911.473 917.871C905.373 920.164 868.996 918.866 860.079 918.867Q802.972 919.12 745.866 918.581L294.862 918.595L173.17 918.559C156.533 918.556 139.674 919.36 123.07 918.867C120.967 918.805 117.089 918.874 115.326 917.743C113.499 916.572 112.226 913.98 112.058 911.848C111.958 910.585 112.176 909.664 113.08 908.731C115.173 906.569 119.105 905.843 121.964 905.605C130.122 904.927 138.678 905.539 146.877 905.662Q163.544 905.8 180.211 905.718L296.386 905.707C312.78 905.714 329.2 906.399 345.589 905.982C341.246 903.994 337.788 902.752 334.801 898.736Q334.37 898.167 334 897.557Q333.629 896.947 333.324 896.302Q333.019 895.656 332.782 894.983Q332.545 894.31 332.379 893.616Q332.212 892.922 332.119 892.214Q332.025 891.507 332.005 890.793Q331.985 890.08 332.038 889.368Q332.092 888.656 332.219 887.954Q332.336 887.32 332.516 886.701Q332.696 886.081 332.937 885.483Q333.178 884.885 333.477 884.313Q333.775 883.742 334.13 883.203Q334.484 882.665 334.89 882.164Q335.297 881.663 335.751 881.205Q336.205 880.747 336.702 880.337Q337.199 879.926 337.735 879.567C341.922 876.726 347.526 876.464 352.373 877.394C360.176 878.402 368.216 878.06 376.072 878.044Q395.081 878.006 414.088 877.711C442.259 877.464 470.422 878.195 498.606 877.809C531.524 878.246 564.472 877.934 597.394 877.984C609.145 878.003 666.528 879.187 672.162 877.143Z"/>
	<path fill="#2C7DB3" d="M672.162 877.143C677.645 876.937 683.148 877.353 687.379 881.329Q687.842 881.763 688.257 882.243Q688.672 882.723 689.035 883.244Q689.397 883.765 689.703 884.32Q690.009 884.876 690.256 885.461Q690.502 886.046 690.686 886.653Q690.87 887.26 690.989 887.884Q691.109 888.507 691.162 889.139Q691.216 889.771 691.203 890.406C691.141 894.703 689.099 899.012 686.014 901.977C684.469 903.462 682.691 904.714 680.896 905.876C668.193 907.017 655.033 906.031 642.269 906.009L565.982 906.011L420.8 906.008C395.74 906.007 370.644 906.3 345.589 905.982C341.246 903.994 337.788 902.752 334.801 898.736Q334.37 898.167 334 897.557Q333.629 896.947 333.324 896.302Q333.019 895.656 332.782 894.983Q332.545 894.31 332.379 893.616Q332.212 892.922 332.119 892.214Q332.025 891.507 332.005 890.793Q331.985 890.08 332.038 889.368Q332.092 888.656 332.219 887.954Q332.336 887.32 332.516 886.701Q332.696 886.081 332.937 885.483Q333.178 884.885 333.477 884.313Q333.775 883.742 334.13 883.203Q334.484 882.665 334.89 882.164Q335.297 881.663 335.751 881.205Q336.205 880.747 336.702 880.337Q337.199 879.926 337.735 879.567C341.922 876.726 347.526 876.464 352.373 877.394C360.176 878.402 368.216 878.06 376.072 878.044Q395.081 878.006 414.088 877.711C442.259 877.464 470.422 878.195 498.606 877.809C531.524 878.246 564.472 877.934 597.394 877.984C609.145 878.003 666.528 879.187 672.162 877.143Z"/>
	<path fill="#0A2F54" d="M562.452 166.601C565.652 174.554 567.725 182.619 569.838 190.909C584.828 185.936 589.745 182.783 600.25 170.906C602.593 177.699 604.811 184.362 606.595 191.323C615.553 187.5 622.013 182.716 628.708 175.631C640.837 199.318 639.591 223.749 633.003 248.804C653.045 269.854 652.48 300.331 652.611 327.546C652.667 339.195 652.838 350.867 652.622 362.514C648.123 362.695 643.385 363.191 638.989 364.169C635.939 334.853 623.681 310.674 604.652 288.452C581.467 304.184 557.583 308.069 530.144 302.773Q523.041 301.399 516.108 299.333Q509.174 297.268 502.477 294.532C473.505 282.833 444.642 264.866 414.349 285.147C395.644 297.67 387.721 319.383 383.631 340.597C382.061 348.741 381.09 356.959 380.097 365.189Q376.365 364.334 372.562 363.89Q368.76 363.446 364.931 363.42C364.47 352.487 364.817 341.432 364.84 330.485C364.893 304.238 363.352 274.086 379.781 251.894C391.667 235.838 407.568 229.407 426.744 226.529C449.017 183.743 468.722 181.673 513.617 181.79C525.7 181.822 538.092 181.032 549.17 175.733C554.121 173.365 558.226 170.04 562.452 166.601Z"/>
	<path fill="#F45D40" d="M133.005 535.635C134.628 535.729 136.44 536.011 137.957 536.607C140.703 537.684 143.04 539.964 144.119 542.715Q144.309 543.198 144.449 543.697Q144.59 544.196 144.679 544.707Q144.768 545.218 144.806 545.735Q144.844 546.252 144.829 546.77Q144.814 547.289 144.747 547.803Q144.68 548.317 144.562 548.822Q144.444 549.327 144.275 549.818Q144.107 550.308 143.89 550.779C142.231 554.393 139.51 555.808 135.964 557.196C134.132 557.235 132.307 557.063 130.593 556.362Q130.116 556.167 129.66 555.926Q129.204 555.685 128.774 555.401Q128.344 555.117 127.944 554.792Q127.543 554.468 127.177 554.106Q126.81 553.743 126.48 553.347Q126.15 552.951 125.861 552.524Q125.571 552.098 125.325 551.645Q125.078 551.193 124.877 550.718Q124.657 550.195 124.492 549.652Q124.327 549.109 124.219 548.552Q124.111 547.995 124.061 547.43Q124.011 546.865 124.02 546.297Q124.028 545.73 124.095 545.166Q124.162 544.603 124.287 544.049Q124.411 543.496 124.592 542.958Q124.773 542.42 125.009 541.904C126.68 538.256 129.389 536.919 133.005 535.635Z"/>
	<path fill="#F45D40" d="M124.663 569.99Q163.22 570.312 201.777 570.116L201.807 581.035C176.183 580.047 150.387 580.75 124.736 580.51L124.663 569.99Z"/>
	<path fill="#F45D40" d="M125.031 595.075C136.715 596.142 149.081 595.512 160.824 595.36L208.505 595.037L208.522 605.395C201.184 606.423 190.291 605.548 182.557 605.543L125.04 605.494L125.031 595.075Z"/>
	<path fill="#BAC6CA" d="M158.683 541.566L242.894 541.525L242.856 553.49C214.805 553.487 186.686 553.362 158.641 553.772L158.683 541.566Z"/>
	<path fill="#0A2F54" d="M130.358 462.164L236.099 462.036L236.408 462.107C236.343 466.238 236.391 470.411 236.17 474.535C200.948 474.44 165.667 475.558 130.453 474.574C130.329 470.475 129.985 466.248 130.358 462.164Z"/>
	<path fill="#139188" d="M727.282 293.694Q790.823 293.312 854.362 294.042C873.244 294.21 892.532 292.731 911.357 294.252C915.189 294.561 919.29 295.511 922.644 297.42C926.041 299.353 929.136 303.649 929.995 307.456C931.289 313.193 930.646 320.796 930.76 326.728C931.173 348.205 930.699 369.658 930.634 391.132C930.581 408.91 932.335 429.719 930.298 447.07C930.008 449.542 929.063 451.819 927.699 453.894C924.636 458.556 919.99 461.235 914.647 462.435C902.529 462.83 890.394 462.461 878.27 462.453L809.029 462.46L758.337 462.478C747.427 462.475 736.141 462.796 725.285 461.966C721.853 461.704 717.416 461.025 714.672 458.848Q714.14 458.426 713.653 457.953Q713.165 457.481 712.727 456.962Q712.288 456.444 711.902 455.885Q711.517 455.326 711.188 454.732Q710.859 454.138 710.59 453.515Q710.322 452.892 710.115 452.245Q709.909 451.598 709.767 450.934Q709.626 450.27 709.55 449.595C708.558 441.274 709.079 432.423 709.075 424.036L709.062 380.298L709.061 334.22C709.056 325.844 708.52 317.046 709.329 308.717C709.655 305.361 710.321 302.978 712.535 300.343C716.331 295.824 721.649 294.244 727.282 293.694Z"/>
	<path fill="#4CAA98" d="M728.027 314.045L912.002 314.01L912.171 402.175L912.079 428.488C912.046 433.318 912.284 438.363 911.729 443.155L910.625 443.68L728.02 443.883L728.027 314.045Z"/>
	<path fill="#FEFEFE" d="M789.947 339.942C791.11 340.109 792.27 340.289 793.417 340.545C799.296 341.852 849.781 368.348 851.873 372.009C852.859 373.734 853.331 376.037 852.651 377.941C850.435 384.154 832.069 391.994 826.387 394.801Q817.394 399.828 808.527 405.073C804.584 407.413 800.663 410.209 796.45 412.008C794.018 413.046 791.156 413.937 788.477 413.626C785.893 413.326 784.083 410.499 782.584 408.623C781.628 395.626 779.957 353.031 784.025 343.576C785.899 342.144 787.885 341.068 789.947 339.942Z"/>
	<path fill="#F8C2A0" d="M380.097 365.189C381.09 356.959 382.061 348.741 383.631 340.597C387.721 319.383 395.644 297.67 414.349 285.147C444.642 264.866 473.505 282.833 502.477 294.532Q509.174 297.268 516.108 299.334Q523.041 301.399 530.144 302.773C557.583 308.069 581.467 304.184 604.652 288.452C623.681 310.674 635.939 334.853 638.989 364.169C643.385 363.191 648.123 362.695 652.622 362.514C664.047 364.453 673.423 365.726 680.669 375.913Q681.126 376.561 681.55 377.23Q681.974 377.9 682.365 378.59Q682.755 379.279 683.111 379.988Q683.466 380.696 683.787 381.421Q684.107 382.146 684.391 382.886Q684.675 383.626 684.922 384.379Q685.169 385.132 685.378 385.897Q685.587 386.661 685.758 387.435Q685.93 388.209 686.062 388.991Q686.195 389.772 686.289 390.559Q686.382 391.346 686.437 392.137Q686.492 392.927 686.507 393.72Q686.522 394.512 686.499 395.305Q686.475 396.097 686.411 396.887Q686.348 397.677 686.246 398.463Q686.144 399.249 686.003 400.029Q685.856 400.876 685.668 401.715Q685.479 402.554 685.25 403.382Q685.02 404.211 684.749 405.027Q684.478 405.843 684.168 406.645Q683.857 407.446 683.507 408.231Q683.156 409.017 682.768 409.783Q682.379 410.55 681.953 411.297Q681.526 412.044 681.064 412.768Q680.601 413.493 680.103 414.194Q679.605 414.895 679.073 415.57Q678.54 416.245 677.975 416.893Q677.41 417.541 676.814 418.16Q676.217 418.779 675.591 419.368Q674.964 419.957 674.309 420.514Q673.654 421.071 672.973 421.595Q672.291 422.119 671.584 422.608C661.138 429.805 648.603 428.879 636.556 428.471C628.603 461.473 609.288 490.323 580.133 508.223C573.97 512.007 560.673 519.406 553.621 520.004C520.459 527.165 497.743 527.468 465.096 516.72C460.148 513.528 451.486 511.011 445.828 508.168C415.168 492.761 393.565 463.689 382.986 431.607C370.895 432.174 358.025 432.871 347.619 425.605Q346.903 425.101 346.213 424.563Q345.523 424.025 344.861 423.454Q344.198 422.882 343.564 422.279Q342.93 421.676 342.326 421.042Q341.722 420.409 341.15 419.746Q340.579 419.084 340.04 418.395Q339.501 417.705 338.997 416.99Q338.492 416.275 338.024 415.536Q337.555 414.797 337.123 414.036Q336.691 413.274 336.297 412.493Q335.903 411.712 335.548 410.912Q335.192 410.112 334.877 409.296Q334.561 408.48 334.286 407.649Q334.01 406.819 333.776 405.976Q333.542 405.132 333.349 404.279Q333.157 403.425 333.006 402.563C331.514 393.653 333.463 384.55 338.775 377.205C345.411 368.031 354.2 365.182 364.931 363.42Q368.76 363.446 372.562 363.89Q376.365 364.334 380.097 365.189Z"/>
	<path fill="#0A2F54" d="M571.194 335.719C575.746 335.57 580.98 336.061 585.192 337.837C589.358 339.593 595.014 342.692 596.658 347.12C597.013 348.073 597.045 348.121 596.625 349.083C592.215 350.515 584.563 344.268 580.259 342.768C580.046 342.694 579.832 342.625 579.619 342.554C573.081 341.826 568.579 342.188 562.659 345.292C560.642 346.35 558.864 347.458 556.608 347.908C555.423 347.544 554.805 347.052 553.879 346.239C553.499 345.224 553.165 344.736 553.797 343.698C556.651 339.007 566.113 336.653 571.194 335.719Z"/>
	<path fill="#F9A05D" d="M504.064 407.835C505.784 408.051 507.894 408.353 509.279 409.445C512.654 412.107 505.88 418.729 506.976 422.535C507.96 425.953 515.509 426.073 518.026 428.442C518.973 429.333 518.86 429.797 518.724 430.943C517.794 432.399 516.748 433.2 515.368 434.219C514.74 434.277 514.127 434.328 513.497 434.337C509.304 434.4 505.402 433.099 502.393 430.098Q501.855 429.551 501.376 428.953Q500.896 428.354 500.479 427.71Q500.062 427.066 499.713 426.384Q499.363 425.701 499.084 424.987Q498.805 424.272 498.6 423.533Q498.394 422.794 498.265 422.038Q498.135 421.282 498.083 420.517Q498.03 419.752 498.055 418.985C498.213 413.868 500.492 411.082 504.064 407.835Z"/>
	<path fill="#0A2F54" d="M443.28 335.697C447.16 335.663 451.413 336.247 455.094 337.505C458.04 338.511 462.954 340.803 464.039 344.064C464.48 345.39 464.343 345.641 463.737 346.786C459.194 348.967 454.238 344.065 450.122 342.804C448.171 342.207 445.616 342.302 443.571 342.184C438.316 342.78 428.208 349.816 424.705 348.689C423.933 348.44 423.894 347.928 423.545 347.265C423.549 345.735 423.699 344.717 424.642 343.464C428.378 338.502 437.493 336.649 443.28 335.697Z"/>
	<path fill="#F9A05D" d="M639.504 376.486C646.355 376.44 654.446 375.841 660.251 380.154C663.832 382.814 665.951 387.045 666.551 391.411C667.36 397.304 665.334 402.598 661.834 407.257C654.958 412.684 647.745 412.559 639.502 412.507L639.504 376.486Z"/>
	<path fill="#F9A05D" d="M367.575 376.552L379.979 376.479Q380.662 395.485 380.505 414.503C375.708 414.52 371.039 414.409 366.272 413.844C365.461 413.631 364.702 413.395 363.932 413.059C359.161 410.984 355.314 407.259 353.519 402.334Q353.193 401.415 352.959 400.469Q352.725 399.522 352.585 398.558Q352.445 397.593 352.4 396.619Q352.355 395.645 352.405 394.672Q352.456 393.698 352.602 392.734Q352.748 391.77 352.987 390.825Q353.227 389.88 353.558 388.963Q353.889 388.046 354.308 387.166C357.145 381.26 361.621 378.558 367.575 376.552Z"/>
	<path fill="#FEFEFE" d="M444.413 357.655C447.557 357.172 450.448 357.166 453.383 358.537C458.409 360.887 461.491 365.634 463.146 370.784C465.509 378.136 465.242 387.274 461.605 394.156C458.978 399.126 455.239 401.918 449.944 403.549C447.687 403.644 445.697 403.637 443.535 402.907C438.422 401.181 434.93 397.422 432.721 392.58C429.431 385.37 429.541 376.874 432.5 369.573C434.965 363.489 438.552 360.205 444.413 357.655Z"/>
	<path fill="#0A2F54" d="M445.551 365.507C446.705 365.449 447.843 365.398 448.989 365.593C451.189 365.968 453.69 368.158 454.955 369.914C457.876 373.969 458.432 380.06 457.513 384.84C456.522 389.996 454.046 393.328 449.722 396.125C449.065 396.207 449.022 396.237 448.256 396.188C445.394 396.001 442.431 394.359 440.752 392.05C437.831 388.033 437.335 381.909 438.218 377.169C439.158 372.121 441.331 368.408 445.551 365.507Z"/>
	<path fill="#FEFEFE" d="M443.613 370.741C443.995 370.832 444.375 370.9 444.722 371.103C445.939 371.815 446.162 372.257 446.577 373.506C446.383 375.254 445.536 376.352 444.572 377.788C443.276 377.045 442.361 376.633 441.754 375.179C441.751 373.372 442.683 372.203 443.613 370.741Z"/>
	<path fill="#FEFEFE" d="M570.853 356.537C573.279 356.359 575.7 356.585 577.981 357.465C582.876 359.353 586.273 363.637 588.217 368.378Q588.497 369.078 588.743 369.792Q588.99 370.505 589.201 371.229Q589.412 371.953 589.589 372.687Q589.765 373.42 589.906 374.162Q590.046 374.903 590.151 375.65Q590.256 376.397 590.325 377.148Q590.393 377.9 590.426 378.653Q590.458 379.407 590.454 380.162Q590.45 380.916 590.409 381.669Q590.369 382.423 590.292 383.173Q590.215 383.924 590.102 384.67Q589.989 385.416 589.841 386.155Q589.692 386.895 589.508 387.626Q589.323 388.358 589.104 389.08Q588.885 389.802 588.631 390.512Q588.377 391.223 588.089 391.92C585.527 397.956 581.697 401.197 575.747 403.487C573.857 403.582 572.087 403.573 570.258 403.023C565.367 401.55 561.632 398.111 559.28 393.635C555.618 386.667 555.175 377.505 557.702 370.093C560.109 363.031 564.377 359.6 570.853 356.537Z"/>
	<path fill="#0A2F54" d="M569.852 365.5C573.685 365.421 576.361 365.616 579.201 368.486C582.301 371.619 583.382 376.374 583.252 380.662C583.072 386.587 580.544 391.526 576.244 395.501C575.337 395.76 574.55 395.977 573.598 395.946C570.949 395.86 568.47 394.923 566.682 392.918C563.366 389.2 562.434 382.935 562.915 378.147C563.481 372.507 565.683 369.051 569.852 365.5Z"/>
	<path fill="#FEFEFE" d="M569.22 370.348C570.331 371.127 571.069 371.78 571.935 372.854C572.328 374.679 571.329 376.248 570.581 377.864C570.448 377.826 570.311 377.798 570.181 377.749C568.718 377.196 567.906 376.384 567.3 374.978C567.389 373.15 568.303 371.888 569.22 370.348Z"/>
	<path fill="#FEFEFE" d="M478.992 451.759C500.32 450.994 521.733 451.671 543.066 452.019Q542.956 454.896 542.702 457.764C541.884 466.438 539.047 472.956 532.193 478.638C524.545 483.68 516.193 485.182 507.215 483.66Q506.237 483.503 505.269 483.297Q504.3 483.092 503.343 482.839Q502.385 482.585 501.442 482.285Q500.498 481.984 499.571 481.637Q498.643 481.29 497.734 480.898Q496.825 480.506 495.937 480.068Q495.048 479.631 494.182 479.151Q493.316 478.67 492.475 478.147Q491.635 477.624 490.821 477.06Q490.007 476.496 489.222 475.893Q488.437 475.289 487.683 474.647Q486.929 474.005 486.208 473.327Q485.486 472.648 484.8 471.935Q484.113 471.221 483.462 470.475Q482.812 469.728 482.199 468.95Q481.586 468.172 481.013 467.365C478.709 464.076 474.471 456.47 475.166 452.513C476.242 451.602 477.654 451.792 478.992 451.759Z"/>
	<path fill="#F45D40" d="M465.096 516.72C497.743 527.468 520.459 527.165 553.621 520.004C553.79 530.811 553.654 541.638 553.93 552.439L553.996 557.547C562.592 557.347 571.437 556.815 579.993 557.752C587.592 558.769 595.075 559.821 602.496 561.822C635.587 570.749 665.361 591.883 686.158 619.013C707.897 647.372 718.166 680.252 729.801 713.528C737.42 735.318 745.804 756.832 753.353 778.648Q756.859 788.656 760.036 798.772C761.451 803.374 762.578 808.176 764.25 812.678C771.169 823.956 775.715 834.573 772.533 847.982Q772.344 848.813 772.113 849.634Q771.883 850.454 771.612 851.262Q771.341 852.07 771.03 852.864Q770.719 853.658 770.37 854.435Q770.02 855.212 769.632 855.971Q769.244 856.73 768.818 857.469Q768.393 858.207 767.932 858.924Q767.47 859.641 766.974 860.333Q766.477 861.026 765.947 861.693Q765.417 862.361 764.854 863.001Q764.291 863.641 763.697 864.252Q763.103 864.864 762.48 865.445Q761.856 866.026 761.204 866.575Q760.553 867.124 759.874 867.641Q759.196 868.157 758.493 868.639Q757.79 869.121 757.064 869.567C750.799 873.436 743.746 874.42 736.538 875.012C725.485 875.278 714.432 875.792 703.376 875.86C695.039 875.912 679.143 874.996 672.011 876.453C671.72 854.63 671.972 832.765 671.983 810.938C671.888 800.341 670.628 783.173 672.381 773.267C672.811 768.779 672.087 763.602 672.057 759.025Q671.943 741.475 672.061 723.926C671.783 711.009 672.026 698.044 671.931 685.118C671.483 677.261 670.332 669.908 664.046 664.413C659.737 660.645 655.51 660.053 650.021 659.568C633.709 658.125 616.643 659.074 600.254 659.072L508.613 659.069L421.337 659.057C405.371 659.019 388.647 658.001 372.75 659.367C366.43 659.91 361.385 661.946 357.265 666.931C348.347 677.72 351.389 698.494 351.954 711.621L351.937 752.077C351.916 756.842 351.071 762.429 351.554 767.063C352.422 772.575 352.13 778.444 352.115 784.019Q352.001 797.492 352.051 810.965C351.987 824.142 351.559 837.311 351.542 850.487C351.532 858.232 351.296 866.445 352.572 874.101L290.962 873.936C283.209 874 275.076 873.572 268.139 869.745Q267.392 869.33 266.667 868.878Q265.942 868.426 265.24 867.939Q264.538 867.451 263.861 866.93Q263.184 866.408 262.534 865.854Q261.884 865.299 261.262 864.713Q260.64 864.127 260.048 863.51Q259.456 862.894 258.896 862.249Q258.335 861.604 257.808 860.932Q257.28 860.26 256.786 859.563Q256.292 858.865 255.834 858.144Q255.375 857.423 254.953 856.68Q254.531 855.937 254.147 855.174Q253.762 854.411 253.416 853.63Q253.069 852.848 252.762 852.051Q252.455 851.253 252.188 850.442Q251.921 849.63 251.695 848.806C248.439 836.995 251.913 827.612 257.788 817.387C262.169 805.483 265.556 792.972 269.411 780.874L290.571 714.841C299.781 685.604 307.444 657.46 324.607 631.608C351.529 591.057 390.728 567.169 437.99 557.631C447.037 556.698 455.934 556.549 465.016 556.526Q465.132 544.984 465.089 533.442L465.096 516.72ZM351.954 711.621C346.864 720.386 344.626 731.711 341.692 741.393C335.345 762.337 329.553 784.422 320.903 804.524C308.421 804.205 275.234 801.116 265.985 809.891C264.056 811.721 260.182 816.884 257.788 817.387C251.913 827.612 248.439 836.995 251.695 848.806Q251.921 849.63 252.188 850.442Q252.455 851.253 252.762 852.051Q253.069 852.848 253.416 853.63Q253.762 854.411 254.147 855.174Q254.531 855.937 254.953 856.68Q255.375 857.423 255.834 858.144Q256.292 858.865 256.786 859.563Q257.28 860.26 257.808 860.932Q258.335 861.604 258.896 862.249Q259.456 862.894 260.048 863.51Q260.64 864.127 261.262 864.713Q261.884 865.299 262.534 865.854Q263.184 866.408 263.861 866.93Q264.538 867.451 265.24 867.939Q265.942 868.426 266.667 868.878Q267.392 869.33 268.139 869.745C275.076 873.572 283.209 874 290.962 873.936C285.186 871.052 279.468 869.85 274.405 865.473C267.716 859.688 262.989 851.089 262.365 842.208C261.835 834.671 264.197 826.632 269.291 820.964C283.083 805.619 317.971 812.326 336.738 811.023L337.389 810.973C342.327 811.269 347.116 811.22 352.051 810.965Q352.001 797.492 352.115 784.019C352.13 778.444 352.422 772.575 351.554 767.063C351.071 762.429 351.916 756.842 351.937 752.077L351.954 711.621ZM672.061 723.926Q671.943 741.476 672.057 759.025C672.087 763.602 672.811 768.779 672.381 773.267C670.628 783.173 671.888 800.341 671.983 810.938L685.129 811.085C699.873 811.487 727.798 808.956 740.784 812.737Q741.666 812.985 742.529 813.292Q743.393 813.599 744.233 813.963Q745.074 814.327 745.888 814.748Q746.702 815.168 747.486 815.642Q748.27 816.117 749.02 816.643Q749.771 817.169 750.483 817.744Q751.196 818.32 751.869 818.942Q752.541 819.565 753.17 820.231C759.32 826.677 762.064 835.228 761.631 843.966C761.217 852.315 757.77 859.782 751.5 865.348C746.975 869.365 740.982 871.259 736.538 875.012C743.746 874.42 750.799 873.436 757.064 869.567Q757.79 869.121 758.493 868.639Q759.196 868.157 759.874 867.641Q760.553 867.124 761.204 866.575Q761.856 866.026 762.48 865.445Q763.103 864.864 763.697 864.252Q764.291 863.641 764.854 863.001Q765.417 862.361 765.947 861.693Q766.477 861.026 766.974 860.333Q767.47 859.641 767.932 858.924Q768.393 858.207 768.819 857.469Q769.244 856.73 769.632 855.971Q770.02 855.212 770.37 854.435Q770.719 853.658 771.03 852.864Q771.341 852.07 771.612 851.262Q771.883 850.454 772.113 849.634Q772.344 848.813 772.533 847.982C775.715 834.573 771.169 823.956 764.25 812.678C760.544 811.112 758.132 807.608 754.799 805.412C741.239 796.477 715.679 801.514 700.97 804.89Q691.247 776.68 680.954 748.673C678.092 740.684 675.881 731.452 672.061 723.926Z"/>
	<path fill="#D8412F" d="M672.061 723.926C675.881 731.452 678.092 740.684 680.954 748.673Q691.247 776.68 700.97 804.89C715.679 801.514 741.239 796.477 754.799 805.412C758.132 807.608 760.544 811.112 764.25 812.678C771.169 823.956 775.715 834.573 772.533 847.982Q772.344 848.813 772.113 849.634Q771.883 850.454 771.612 851.262Q771.341 852.07 771.03 852.864Q770.719 853.658 770.37 854.435Q770.02 855.212 769.632 855.971Q769.244 856.73 768.818 857.469Q768.393 858.207 767.932 858.924Q767.47 859.641 766.974 860.333Q766.477 861.026 765.947 861.693Q765.417 862.361 764.854 863.001Q764.291 863.641 763.697 864.252Q763.103 864.864 762.48 865.445Q761.856 866.026 761.204 866.575Q760.553 867.124 759.874 867.641Q759.196 868.157 758.493 868.639Q757.79 869.121 757.064 869.567C750.799 873.436 743.746 874.42 736.538 875.012C740.982 871.259 746.975 869.365 751.5 865.348C757.77 859.782 761.217 852.315 761.631 843.966C762.064 835.228 759.32 826.677 753.17 820.231Q752.541 819.565 751.869 818.942Q751.196 818.32 750.483 817.744Q749.771 817.169 749.02 816.643Q748.27 816.117 747.486 815.642Q746.702 815.168 745.888 814.748Q745.074 814.327 744.233 813.963Q743.393 813.598 742.529 813.292Q741.666 812.985 740.784 812.737C727.798 808.956 699.873 811.487 685.129 811.085L671.983 810.938C671.888 800.341 670.628 783.173 672.381 773.267C672.811 768.779 672.087 763.602 672.057 759.025Q671.943 741.475 672.061 723.926ZM671.983 810.938L685.129 811.085Q678.415 792.291 672.381 773.267C670.628 783.173 671.888 800.341 671.983 810.938Z"/>
	<path fill="#D8412F" d="M351.954 711.621L351.937 752.077C351.916 756.842 351.071 762.429 351.554 767.063C352.422 772.575 352.13 778.444 352.115 784.019Q352.001 797.492 352.051 810.965C347.116 811.22 342.327 811.269 337.389 810.973L336.738 811.023C317.971 812.326 283.083 805.619 269.291 820.964C264.197 826.632 261.835 834.671 262.365 842.208C262.989 851.089 267.716 859.688 274.405 865.473C279.468 869.85 285.186 871.052 290.962 873.936C283.209 874 275.076 873.572 268.139 869.745Q267.392 869.33 266.667 868.878Q265.942 868.426 265.24 867.939Q264.538 867.451 263.861 866.93Q263.184 866.408 262.534 865.854Q261.884 865.299 261.262 864.713Q260.64 864.127 260.048 863.51Q259.456 862.894 258.896 862.249Q258.335 861.604 257.808 860.932Q257.28 860.26 256.786 859.563Q256.292 858.865 255.834 858.144Q255.375 857.423 254.953 856.68Q254.531 855.937 254.147 855.174Q253.762 854.411 253.416 853.63Q253.069 852.848 252.762 852.051Q252.455 851.253 252.188 850.442Q251.921 849.63 251.695 848.806C248.439 836.995 251.913 827.612 257.788 817.387C260.182 816.884 264.056 811.721 265.985 809.891C275.234 801.116 308.421 804.205 320.903 804.524C329.553 784.422 335.345 762.337 341.692 741.393C344.626 731.711 346.864 720.386 351.954 711.621ZM351.554 767.063C347.006 781.741 342.956 796.64 337.389 810.973C342.327 811.269 347.116 811.22 352.051 810.965Q352.001 797.492 352.115 784.019C352.13 778.444 352.422 772.575 351.554 767.063Z"/>
	<path fill="#D8412F" d="M465.016 556.526C465.123 570.107 467.286 582.674 477.417 592.521Q478.226 593.299 479.072 594.037Q479.919 594.775 480.8 595.471Q481.681 596.167 482.595 596.818Q483.509 597.47 484.454 598.077Q485.399 598.684 486.372 599.243Q487.345 599.803 488.344 600.315Q489.344 600.827 490.367 601.289Q491.39 601.751 492.434 602.163Q493.479 602.575 494.542 602.936Q495.605 603.296 496.685 603.605Q497.764 603.913 498.857 604.168Q499.951 604.423 501.055 604.625Q502.16 604.827 503.273 604.974Q504.386 605.122 505.504 605.215Q506.623 605.308 507.745 605.347Q508.867 605.385 509.99 605.369Q511.09 605.355 512.188 605.286Q513.286 605.217 514.379 605.094Q515.473 604.971 516.558 604.795Q517.644 604.618 518.72 604.387Q519.796 604.157 520.859 603.873Q521.922 603.59 522.97 603.255Q524.017 602.919 525.047 602.532Q526.077 602.145 527.086 601.707Q528.096 601.27 529.082 600.783Q530.069 600.296 531.03 599.761Q531.991 599.226 532.925 598.643Q533.858 598.061 534.762 597.434Q535.666 596.806 536.537 596.135Q537.408 595.463 538.246 594.75Q539.083 594.036 539.884 593.281Q540.684 592.527 541.447 591.734C550.692 582.024 552.731 570.363 553.996 557.547C562.592 557.347 571.437 556.815 579.993 557.752C579.372 577.672 573.304 594.855 559.153 609.195Q557.954 610.398 556.697 611.54Q555.441 612.682 554.129 613.761Q552.818 614.841 551.455 615.854Q550.092 616.867 548.681 617.812Q547.27 618.757 545.814 619.632Q544.359 620.506 542.862 621.308Q541.365 622.11 539.83 622.837Q538.295 623.564 536.726 624.215Q535.158 624.866 533.559 625.439Q531.96 626.012 530.335 626.505Q528.71 626.999 527.063 627.412Q525.416 627.825 523.75 628.157Q522.085 628.488 520.405 628.737Q518.725 628.986 517.035 629.153Q515.345 629.319 513.648 629.402Q511.952 629.485 510.254 629.484Q508.476 629.499 506.699 629.426Q504.923 629.354 503.152 629.194Q501.381 629.034 499.62 628.787Q497.859 628.54 496.112 628.206Q494.366 627.873 492.638 627.454Q490.91 627.035 489.204 626.531Q487.499 626.027 485.821 625.44Q484.142 624.853 482.495 624.184Q480.847 623.515 479.235 622.766Q477.622 622.016 476.049 621.188Q474.475 620.36 472.944 619.456Q471.413 618.552 469.928 617.573Q468.444 616.594 467.009 615.544Q465.575 614.493 464.194 613.373Q462.813 612.253 461.488 611.066Q460.164 609.88 458.9 608.629C445.167 594.951 437.941 576.907 437.99 557.631C447.037 556.698 455.934 556.549 465.016 556.526Z"/>
	<path fill="#F8C2A0" d="M290.962 873.936C285.186 871.052 279.468 869.85 274.405 865.473C267.716 859.688 262.989 851.089 262.365 842.208C261.835 834.671 264.197 826.632 269.291 820.964C283.083 805.619 317.971 812.326 336.738 811.023L337.389 810.973C342.327 811.269 347.116 811.22 352.051 810.965C351.987 824.142 351.559 837.311 351.542 850.487C351.532 858.232 351.296 866.445 352.572 874.101L290.962 873.936Z"/>
	<path fill="#F8C2A0" d="M685.129 811.085C699.873 811.487 727.798 808.956 740.784 812.737Q741.666 812.985 742.529 813.292Q743.393 813.599 744.233 813.963Q745.074 814.327 745.888 814.748Q746.702 815.168 747.486 815.642Q748.27 816.117 749.02 816.643Q749.771 817.169 750.483 817.744Q751.196 818.32 751.869 818.942Q752.541 819.565 753.17 820.231C759.32 826.677 762.064 835.228 761.631 843.966C761.217 852.315 757.77 859.782 751.5 865.348C746.975 869.365 740.982 871.259 736.538 875.012C725.485 875.278 714.432 875.792 703.376 875.86C695.039 875.912 679.143 874.996 672.011 876.453C671.72 854.63 671.972 832.765 671.983 810.938L685.129 811.085Z"/>
	<path fill="#F8C2A0" d="M465.096 516.72C497.743 527.468 520.459 527.165 553.621 520.004C553.79 530.811 553.654 541.638 553.93 552.439L553.996 557.547C552.731 570.363 550.692 582.024 541.447 591.734Q540.684 592.527 539.884 593.281Q539.083 594.036 538.246 594.75Q537.408 595.463 536.537 596.135Q535.666 596.806 534.762 597.434Q533.858 598.061 532.925 598.644Q531.991 599.226 531.03 599.761Q530.069 600.296 529.082 600.783Q528.096 601.27 527.086 601.707Q526.077 602.145 525.047 602.532Q524.017 602.919 522.97 603.255Q521.922 603.59 520.859 603.874Q519.796 604.157 518.72 604.387Q517.644 604.618 516.558 604.795Q515.473 604.971 514.379 605.094Q513.286 605.217 512.188 605.286Q511.09 605.355 509.99 605.369Q508.867 605.385 507.745 605.347Q506.623 605.308 505.504 605.215Q504.386 605.122 503.273 604.974Q502.16 604.827 501.055 604.625Q499.951 604.423 498.857 604.168Q497.764 603.913 496.685 603.605Q495.605 603.296 494.542 602.936Q493.479 602.575 492.434 602.163Q491.39 601.751 490.367 601.289Q489.344 600.827 488.344 600.315Q487.345 599.803 486.372 599.243Q485.399 598.684 484.454 598.077Q483.509 597.47 482.595 596.818Q481.681 596.167 480.8 595.471Q479.919 594.775 479.072 594.037Q478.226 593.299 477.417 592.521C467.286 582.674 465.123 570.107 465.016 556.526Q465.132 544.984 465.089 533.442L465.096 516.72Z"/>
	<path fill="#F9A05D" d="M465.096 516.72C497.743 527.468 520.459 527.165 553.621 520.004C553.79 530.811 553.654 541.638 553.93 552.439C528.211 552.899 504.394 553.593 480.611 541.8C475.458 539.245 470.903 535.984 465.955 533.12L465.089 533.442L465.096 516.72Z"/>
	<path fill="#969EB1" d="M351.954 711.621C351.389 698.494 348.347 677.72 357.265 666.931C361.385 661.946 366.43 659.91 372.75 659.367C388.647 658.001 405.371 659.019 421.337 659.057L508.613 659.069L600.254 659.072C616.643 659.074 633.709 658.125 650.021 659.568C655.51 660.053 659.737 660.645 664.046 664.413C670.332 669.908 671.483 677.261 671.931 685.118C672.026 698.044 671.783 711.009 672.061 723.926Q671.943 741.476 672.057 759.025C672.087 763.602 672.811 768.779 672.381 773.267C670.628 783.173 671.888 800.341 671.983 810.938C671.972 832.765 671.72 854.63 672.011 876.453L672.162 877.143C666.528 879.187 609.145 878.003 597.394 877.984C564.472 877.934 531.524 878.246 498.606 877.809C470.422 878.195 442.259 877.464 414.088 877.711Q395.081 878.006 376.072 878.044C368.216 878.06 360.176 878.402 352.373 877.394L352.572 874.101C351.296 866.445 351.532 858.232 351.542 850.487C351.559 837.311 351.987 824.142 352.051 810.965Q352.001 797.492 352.115 784.019C352.13 778.444 352.422 772.575 351.554 767.063C351.071 762.429 351.916 756.842 351.937 752.077L351.954 711.621Z"/>
	<path fill="#FEFEFE" d="M504.369 760.21C511.589 759.676 521.311 758.984 527.652 763.141Q528.287 763.55 528.877 764.021Q529.467 764.492 530.006 765.021Q530.546 765.549 531.03 766.129Q531.513 766.709 531.936 767.334Q532.358 767.96 532.716 768.625Q533.073 769.29 533.362 769.988Q533.65 770.686 533.867 771.409Q534.083 772.133 534.226 772.874Q534.365 773.603 534.43 774.341Q534.496 775.08 534.488 775.821Q534.48 776.563 534.399 777.3Q534.317 778.037 534.163 778.763Q534.01 779.488 533.784 780.195Q533.559 780.901 533.265 781.582Q532.971 782.263 532.611 782.911Q532.251 783.56 531.829 784.169C528.653 788.792 524.417 790.375 519.155 791.251C510.796 791.583 499.545 792.806 492.476 787.335C489.467 785.007 487.746 781.656 487.389 777.889Q487.31 777.069 487.314 776.246Q487.319 775.422 487.406 774.604Q487.493 773.785 487.662 772.979Q487.831 772.173 488.081 771.388Q488.33 770.604 488.657 769.848Q488.985 769.092 489.386 768.374Q489.788 767.655 490.26 766.98Q490.732 766.306 491.27 765.682C494.985 761.368 498.994 760.521 504.369 760.21Z"/>
	<path fill="#868AA0" d="M671.931 685.118C672.026 698.044 671.783 711.009 672.061 723.926Q671.943 741.476 672.057 759.025C672.087 763.602 672.811 768.779 672.381 773.267C670.628 783.173 671.888 800.341 671.983 810.938C671.972 832.765 671.72 854.63 672.011 876.453L672.162 877.143C666.528 879.187 609.145 878.003 597.394 877.984C564.472 877.934 531.524 878.246 498.606 877.809C500.797 877.008 504.431 877.419 506.828 877.413C511.786 873.734 526.591 868.691 533.26 865.429C557.1 853.772 579.707 836.973 598.107 817.852Q602.672 813.115 607.014 808.172Q611.356 803.23 615.466 798.093Q619.576 792.956 623.445 787.635Q627.314 782.314 630.934 776.821Q634.554 771.328 637.917 765.673Q641.28 760.019 644.379 754.216Q647.479 748.413 650.307 742.473Q653.136 736.534 655.688 730.47Q660.789 718.564 664.397 706.123C666.176 700.151 667.503 693.816 669.867 688.051C670.406 686.738 670.833 686.009 671.931 685.118Z"/>
</svg>
