<?xml version="1.0" encoding="utf-8" ?>
<svg xmlns="http://www.w3.org/2000/svg" xmlns:xlink="http://www.w3.org/1999/xlink" width="1003" height="1003">
	<path fill="#7B3506" transform="scale(0.980078 0.980078)" d="M62.645 933.097C66.1499 932.858 69.8818 932.555 73.3828 932.808C75.9355 932.993 79.2088 933.485 80.8909 935.655C81.8508 936.893 82.1388 938.505 81.8523 940.023C81.4442 942.185 79.9437 943.338 78.2599 944.568C73.9101 944.821 69.1678 945.282 64.8588 944.518C62.9044 944.171 60.4199 943.434 59.3844 941.563C58.7106 940.345 58.8803 938.78 59.18 937.477C59.6872 935.271 60.8124 934.294 62.645 933.097Z"/>
	<path fill="#FC924B" transform="scale(0.980078 0.980078)" d="M793.893 396.593C795.858 396.77 798.063 397.289 799.807 398.228Q800.323 398.503 800.809 398.829Q801.295 399.154 801.747 399.526Q802.198 399.899 802.609 400.314Q803.021 400.73 803.389 401.185Q803.758 401.639 804.078 402.128Q804.399 402.617 804.67 403.136Q804.94 403.655 805.158 404.198Q805.375 404.741 805.537 405.303Q805.71 405.906 805.823 406.524Q805.937 407.141 805.989 407.766Q806.041 408.392 806.032 409.019Q806.023 409.647 805.952 410.27Q805.882 410.894 805.75 411.508Q805.619 412.121 805.428 412.719Q805.237 413.317 804.988 413.894Q804.74 414.47 804.436 415.019C802.251 418.949 799.06 420.525 794.925 421.739C792.801 421.474 790.849 421.121 788.93 420.122C785.793 418.49 783.326 415.84 782.319 412.412Q782.142 411.814 782.03 411.202Q781.917 410.589 781.87 409.967Q781.822 409.346 781.84 408.723Q781.858 408.101 781.941 407.483Q782.025 406.866 782.173 406.26Q782.32 405.655 782.531 405.069Q782.742 404.482 783.013 403.921Q783.284 403.36 783.613 402.831C786.029 398.932 789.586 397.506 793.893 396.593Z"/>
	<path fill="#7B3506" transform="scale(0.980078 0.980078)" d="M903.414 932.74C915.388 932.735 927.052 932 938.945 933.908C939.85 934.64 941.207 935.652 941.806 936.684C942.466 937.822 942.752 939.094 942.376 940.383C941.716 942.647 938.985 943.742 937.027 944.548C927.828 944.794 911.196 946.11 902.801 944.004C900.642 943.463 899.084 942.706 897.87 940.76C897.517 939.101 897.775 937.9 898.569 936.423C899.644 934.422 901.29 933.36 903.414 932.74Z"/>
	<path fill="#7B3506" transform="scale(0.980078 0.980078)" d="M165.021 440.826C164.542 440.377 163.861 439.811 163.501 439.238C162.711 437.979 162.629 436.376 162.528 434.931C162.208 430.31 162.423 425.609 162.323 420.974Q161.885 400.992 162.013 381.005C162.019 374.75 161.092 362.146 162.554 356.525C163.104 354.411 164.355 352.784 166.241 351.726C167.534 351.752 168.051 351.716 168.946 352.834C170.425 354.683 170.625 358.806 170.757 361.139C171.227 369.398 170.526 378.003 170.509 386.301C170.474 403.113 170.726 419.954 170.384 436.761C169.789 438.176 169.326 439.592 167.79 440.222C166.964 440.561 165.904 440.676 165.021 440.826Z"/>
	<path fill="#FC924B" transform="scale(0.980078 0.980078)" d="M336.959 129.592C342.591 129.051 347.81 129.813 352.717 132.824Q353.21 133.123 353.687 133.447Q354.164 133.771 354.624 134.119Q355.083 134.467 355.525 134.838Q355.966 135.208 356.388 135.601Q356.81 135.994 357.212 136.408Q357.613 136.822 357.992 137.256Q358.372 137.69 358.729 138.143Q359.086 138.596 359.42 139.066Q359.753 139.537 360.062 140.023Q360.371 140.51 360.655 141.012Q360.938 141.514 361.196 142.03Q361.454 142.546 361.685 143.074Q361.916 143.602 362.119 144.142Q362.323 144.681 362.499 145.23Q362.675 145.779 362.822 146.336Q362.97 146.894 363.089 147.458C364.373 153.619 363.272 160.624 359.774 165.899C356.29 171.153 351.114 174.068 345.059 175.408C339.381 176.334 333.971 175.54 328.944 172.631C323.409 169.429 319.604 163.924 318.141 157.738Q318.009 157.167 317.906 156.591Q317.803 156.014 317.729 155.434Q317.654 154.853 317.608 154.269Q317.563 153.685 317.546 153.1Q317.529 152.514 317.541 151.929Q317.554 151.343 317.595 150.759Q317.636 150.175 317.706 149.594Q317.776 149.012 317.875 148.435Q317.973 147.858 318.1 147.286Q318.227 146.715 318.383 146.15Q318.538 145.585 318.721 145.029Q318.904 144.473 319.114 143.926Q319.324 143.38 319.561 142.844Q319.798 142.309 320.062 141.786Q320.325 141.262 320.614 140.753Q320.902 140.244 321.216 139.749C325.035 133.76 330.28 131.163 336.959 129.592Z"/>
	<path fill="#FC924B" transform="scale(0.980078 0.980078)" d="M876.842 810.548C881.801 810.413 886.152 810.553 890.736 812.791C896.59 815.649 900.863 820.959 902.936 827.085C904.951 833.039 904.703 839.494 901.754 845.099C898.19 851.873 892.057 855.456 884.945 857.511C879.9 857.654 875.42 857.493 870.7 855.369C864.952 852.782 860.412 848.054 858.334 842.075C856.293 836.203 856.536 829.246 859.286 823.641C862.905 816.263 869.437 812.973 876.842 810.548Z"/>
	<path fill="#FC924B" transform="scale(0.980078 0.980078)" d="M223.22 214.729Q224.007 216.219 224.719 217.745Q225.432 219.272 226.069 220.832Q226.706 222.391 227.265 223.981Q227.825 225.57 228.305 227.184Q228.786 228.799 229.187 230.436Q229.587 232.072 229.907 233.726Q230.227 235.38 230.465 237.048Q230.704 238.716 230.86 240.393Q231.016 242.071 231.089 243.754Q231.162 245.437 231.153 247.122Q231.144 248.806 231.052 250.489Q230.96 252.171 230.785 253.846Q230.61 255.522 230.354 257.187Q230.097 258.852 229.759 260.503Q229.42 262.153 229.001 263.785Q228.583 265.417 228.084 267.026Q227.629 268.5 227.103 269.95Q226.577 271.4 225.98 272.822Q225.384 274.245 224.719 275.637Q224.054 277.028 223.321 278.386Q222.589 279.743 221.791 281.063Q220.993 282.384 220.132 283.663Q219.271 284.943 218.348 286.179Q217.425 287.415 216.443 288.604Q215.461 289.794 214.422 290.934Q213.384 292.074 212.29 293.162Q211.197 294.25 210.052 295.284Q208.906 296.317 207.712 297.293Q206.518 298.269 205.277 299.186Q204.037 300.103 202.753 300.958Q201.469 301.813 200.145 302.604Q198.821 303.395 197.46 304.121Q195.907 304.936 194.315 305.672Q192.724 306.408 191.097 307.064Q189.471 307.72 187.813 308.294Q186.156 308.868 184.472 309.358Q182.788 309.848 181.082 310.254Q179.376 310.659 177.652 310.979Q175.927 311.299 174.189 311.532Q172.451 311.765 170.703 311.911Q168.955 312.058 167.203 312.116Q165.45 312.175 163.696 312.146Q161.943 312.117 160.193 312Q158.443 311.884 156.701 311.68Q154.959 311.476 153.23 311.186Q151.5 310.895 149.787 310.519Q148.075 310.142 146.383 309.68Q144.691 309.219 143.024 308.673C130.137 304.493 119.527 296.596 111.528 285.69C115.629 284.32 128.916 289.433 134.544 289.925C145.985 290.924 158.427 290.081 169.431 286.799C194.51 279.32 215.078 259.061 220.198 233.001C220.884 229.51 221.453 217.466 222.768 215.375C222.908 215.153 223.069 214.945 223.22 214.729Z"/>
	<path fill="#FEB446" transform="scale(0.980078 0.980078)" d="M111.528 285.69C109.78 283.272 108.11 280.832 106.634 278.236C98.1186 263.263 96.1329 244.22 100.855 227.717Q101.287 226.173 101.794 224.653Q102.302 223.132 102.884 221.639Q103.466 220.145 104.121 218.682Q104.776 217.219 105.503 215.79Q106.229 214.361 107.025 212.97Q107.821 211.578 108.685 210.228Q109.549 208.877 110.478 207.571Q111.408 206.265 112.401 205.007Q113.394 203.748 114.447 202.54Q115.501 201.332 116.613 200.178Q117.725 199.023 118.893 197.925Q120.061 196.827 121.281 195.787Q122.501 194.748 123.772 193.77Q125.042 192.793 126.359 191.879Q127.676 190.965 129.037 190.117Q130.397 189.27 131.798 188.49Q133.285 187.679 134.81 186.942Q136.336 186.204 137.895 185.543Q139.455 184.881 141.045 184.297Q142.635 183.712 144.251 183.206Q145.868 182.7 147.508 182.274Q149.147 181.848 150.806 181.503Q152.464 181.158 154.137 180.894Q155.811 180.63 157.495 180.449Q159.179 180.268 160.871 180.169Q162.562 180.071 164.256 180.055Q165.95 180.039 167.642 180.107Q169.335 180.174 171.022 180.324Q172.71 180.474 174.388 180.707Q176.066 180.94 177.73 181.254Q179.395 181.569 181.042 181.964Q182.689 182.36 184.315 182.836C201.106 187.778 214.91 199.433 223.22 214.729C223.069 214.945 222.908 215.153 222.768 215.375C221.453 217.466 220.884 229.51 220.198 233.001C215.078 259.061 194.51 279.32 169.431 286.799C158.427 290.081 145.985 290.924 134.544 289.925C128.916 289.433 115.629 284.32 111.528 285.69Z"/>
	<path fill="#FEFEFE" transform="scale(0.980078 0.980078)" d="M175.343 208.949L175.668 209.414C176.129 215.692 168.296 228.489 165.065 234.326L187.943 248.389C181.594 257.907 165.229 278.12 154.95 282.704C158.016 274.793 161.763 267.02 164.482 259.006L140.615 243.659C152.129 231.731 162.692 219.78 175.343 208.949Z"/>
	<defs>
		<linearGradient id="gradient_0" gradientUnits="userSpaceOnUse" x1="490.69977" y1="952.10394" x2="491.8273" y2="901.95209">
			<stop offset="0" stop-color="#A05C32"/>
			<stop offset="1" stop-color="#4A4959"/>
		</linearGradient>
	</defs>
	<path fill="url(#gradient_0)" transform="scale(0.980078 0.980078)" d="M442.153 897.706C444.294 898.498 446.019 899.611 447.916 900.847C448.076 900.912 448.236 900.98 448.398 901.042C462.854 906.634 491.684 893.008 500.043 910.77C502.523 916.04 501.255 922.208 501.756 927.84C506.272 933.013 510.621 933.421 517.212 933.847C522.504 934.189 527.731 933.276 533.002 932.987C536.185 932.812 539.419 932.961 542.608 932.96L624.347 932.937L705.03 932.929L730.718 932.94C734.988 932.943 739.499 933.252 743.735 932.855L831.972 932.534C844.765 932.507 861.166 931.589 873.587 932.616C875.195 932.749 876.881 932.853 878.147 933.961C879.426 935.081 880.7 937.201 880.784 938.928C880.846 940.233 880.127 941.586 879.175 942.447C875.259 945.985 857.328 944.565 851.749 944.567L340.355 944.693L180.795 944.644L132.998 944.66C125.019 944.666 116.46 945.263 108.544 944.434C106.405 944.211 103.667 943.861 102.373 941.876C101.568 940.641 101.65 938.947 102.126 937.602C102.654 936.11 103.97 934.969 105.151 933.985C115.453 931.66 126.849 932.84 137.351 933.044Q157.983 933.352 178.618 933.356C184.864 933.363 191.346 933.795 197.561 933.431C207.102 934.29 216.727 934.017 226.298 934.021L268.236 934.032L315.551 934.035C323.652 934.036 331.931 934.434 340.007 933.949C341.27 933.873 342.274 933.68 343.452 933.218C352.632 934.304 361.78 933.86 370.999 933.828L408.175 933.83C404.945 932.177 401.197 930.626 399.137 927.499C395.851 922.512 395.089 914.481 396.3 908.693C397.028 905.215 398.512 902.326 401.51 900.333C409.924 895.333 431.344 898.777 442.153 897.706Z"/>
	<path fill="#4A4958" transform="scale(0.980078 0.980078)" d="M442.153 897.706C444.294 898.498 446.019 899.611 447.916 900.847C432.419 903.298 416.997 899.602 401.51 900.333C409.924 895.333 431.344 898.777 442.153 897.706Z"/>
	<path fill="#FA7A67" transform="scale(0.980078 0.980078)" d="M856.517 472.071C864.823 472.047 873.142 471.922 881.447 472.038L881.705 488.861C891.483 491.634 899.906 495.064 908.766 500.055C912.555 496.227 916.562 493.208 921.102 490.325L938.939 508.204C935.02 512.299 931.069 516.782 927.946 521.523L928.16 522.035C929.596 525.411 931.52 528.517 933.052 531.842C935.369 536.87 936.639 542.118 937.928 547.482L952.42 547.545L952.475 571.786Q944.885 571.957 937.294 571.958C935.073 582.457 931.463 589.987 925.494 598.85C929.989 602.208 934.598 607.11 938.205 611.397Q930.019 620.129 921.602 628.638Q914.364 623.221 907.938 616.86C902.265 620.46 896.525 623.763 890.244 626.195L880.99 628.435L880.984 646.996L854.807 646.996Q854.775 637.803 854.516 628.613C845.05 625.662 836.628 621.518 827.882 616.928Q821.578 622.984 815.162 628.921L797.298 611.121C801.73 606.654 806.163 602.223 810.273 597.453C804.951 589.436 801.364 581.311 798.993 571.977L779.854 571.996L779.851 547.802L798.24 547.808C801.151 537.375 804.777 528.478 810.207 519.107C806.424 514.004 801.817 509.427 797.634 504.641Q805.789 496.393 814.135 488.339Q821.103 494.436 827.652 500.982C830.631 498.599 833.947 496.749 837.098 494.612C843.294 491.963 849.862 489.608 856.539 488.536L856.517 472.071Z"/>
	<path fill="#FEFEFE" transform="scale(0.980078 0.980078)" d="M863.244 515.151C873.782 514.165 884.263 516.751 892.896 522.924C902.124 529.522 908.553 540.16 910.409 551.331C912.26 562.472 909.669 574.521 903.067 583.723C896.558 592.798 885.688 599.675 874.624 601.445C863.229 602.036 853.196 600.734 843.653 593.967Q842.766 593.33 841.91 592.65Q841.055 591.971 840.233 591.251Q839.412 590.53 838.626 589.771Q837.841 589.012 837.093 588.215Q836.345 587.419 835.637 586.587Q834.929 585.755 834.262 584.89Q833.595 584.024 832.971 583.128Q832.347 582.231 831.767 581.305Q831.187 580.379 830.653 579.426Q830.119 578.473 829.632 577.495Q829.145 576.517 828.705 575.517Q828.266 574.517 827.876 573.496Q827.486 572.476 827.146 571.438Q826.806 570.399 826.516 569.346Q826.227 568.292 825.99 567.226Q825.752 566.16 825.566 565.083Q825.396 564.069 825.275 563.048Q825.154 562.027 825.083 561.001Q825.013 559.975 824.992 558.948Q824.971 557.92 825 556.892Q825.029 555.864 825.107 554.839Q825.186 553.814 825.315 552.794Q825.443 551.774 825.621 550.761Q825.799 549.748 826.026 548.745Q826.253 547.743 826.529 546.752Q826.804 545.761 827.127 544.785Q827.451 543.809 827.821 542.85Q828.191 541.891 828.608 540.951Q829.024 540.011 829.486 539.092Q829.947 538.173 830.453 537.278Q830.959 536.383 831.507 535.513Q832.056 534.644 832.646 533.802C839.997 523.448 850.829 517.235 863.244 515.151Z"/>
	<path fill="#E0ECF6" transform="scale(0.980078 0.980078)" d="M268.761 383.978C270.582 393.384 272.102 403.064 274.712 412.283C261.977 419.963 252.624 426.853 248.8 441.933C245.966 453.11 247.482 465.503 253.446 475.429C259.35 485.258 270.05 492.528 281.148 495.131C288.776 496.92 296.512 495.4 304.009 493.666C313.742 519.408 327.211 541.719 350.751 557.086C356.523 560.854 363.213 563.242 368.902 566.97L369.013 582.075C369.061 590.997 369.918 600.771 368.839 609.576C367.924 609.925 367.133 610.134 366.163 610.268C359.628 610.993 352.061 611.147 345.743 612.907C337.718 614.483 329.524 615.884 321.67 618.172Q320.186 618.593 318.711 619.046Q317.236 619.499 315.772 619.984Q314.307 620.47 312.854 620.987Q311.401 621.505 309.959 622.054Q308.517 622.603 307.088 623.184Q305.659 623.765 304.243 624.377Q302.827 624.989 301.424 625.632Q300.022 626.275 298.634 626.949Q297.246 627.623 295.874 628.327Q294.501 629.031 293.144 629.765Q291.787 630.499 290.447 631.263Q289.106 632.027 287.783 632.82Q286.46 633.613 285.154 634.435Q283.849 635.257 282.561 636.107Q281.274 636.958 280.006 637.836Q278.738 638.715 277.489 639.621Q276.241 640.527 275.012 641.461Q273.784 642.394 272.577 643.354Q271.369 644.314 270.183 645.301Q268.997 646.287 267.833 647.3Q266.669 648.312 265.527 649.35Q264.385 650.388 263.267 651.45Q262.148 652.513 261.053 653.599Q259.958 654.686 258.888 655.797Q257.817 656.908 256.771 658.042Q255.725 659.175 254.704 660.332Q253.683 661.489 252.688 662.668Q251.692 663.846 250.723 665.047Q249.754 666.247 248.812 667.469Q247.869 668.69 246.954 669.932Q246.039 671.174 245.151 672.435Q244.263 673.697 243.403 674.978C225.775 701.371 216.563 742.985 205.757 773.188C199.786 768.346 192.996 764.802 187.125 759.667C146.843 724.432 120.353 678.072 108.877 626.016C101.116 626.084 74.6625 628.436 69.1823 623.121C66.5654 620.582 66.539 617.289 66.3848 613.897C66.0586 606.721 66.3726 599.455 66.3939 592.267L66.4231 551.569C66.4122 538.292 65.1908 518.553 66.745 506.001C67.0197 503.782 67.5541 501.398 69.2033 499.763C71.2645 497.719 75.3028 497.066 78.0501 496.767C84.3944 496.075 91.217 496.791 97.6301 496.819C106.594 496.859 115.552 496.427 124.515 496.649C133.713 474.439 147.992 457.458 165.021 440.826C165.904 440.676 166.964 440.561 167.79 440.222C169.326 439.592 169.789 438.176 170.384 436.761C195.774 411.25 233.819 391.998 268.761 383.978Z"/>
	<path fill="#68BC70" transform="scale(0.980078 0.980078)" d="M108.877 626.016C101.116 626.084 74.6625 628.436 69.1823 623.121C66.5654 620.582 66.539 617.289 66.3848 613.897C66.0586 606.721 66.3726 599.455 66.3939 592.267L66.4231 551.569C66.4122 538.292 65.1908 518.553 66.745 506.001C67.0197 503.782 67.5541 501.398 69.2033 499.763C71.2645 497.719 75.3028 497.066 78.0501 496.767C84.3944 496.075 91.217 496.791 97.6301 496.819C106.594 496.859 115.552 496.427 124.515 496.649C143.349 497.297 162.35 496.873 181.199 496.775C190.49 496.726 200.311 495.739 209.512 497.305C211.559 497.654 213.327 498.358 214.773 499.894C215.838 501.026 216.681 502.35 217.493 503.668C217.486 514.861 215.85 543.583 219.377 552.522C219.517 552.66 219.656 552.8 219.798 552.936C225.994 558.874 237.898 557.771 245.879 557.535C254.167 557.291 275.18 554.495 281.612 560.364C282.82 561.467 283.63 563.117 283.469 564.786C283.336 566.164 282.818 566.47 281.833 567.272C277.221 568.397 271.597 565.928 266.845 565.503C252.828 564.247 228.32 568.791 217.48 578.254C217.507 586.767 218.692 612.13 217.078 618.904C216.671 620.616 215.85 622.032 214.567 623.236C212.347 625.319 209.356 625.854 206.43 626.148C196.71 627.124 186.55 626.019 176.77 625.989L108.877 626.016Z"/>
	<path fill="#FEFEFE" transform="scale(0.980078 0.980078)" d="M96.5024 581.172C104.203 580.607 148.966 579.835 153.599 582.094C154.716 582.639 155.417 583.358 155.708 584.595C155.997 585.828 155.704 587.362 154.943 588.394C153.857 589.866 152.89 590.246 151.122 590.441C141.794 591.069 99.4282 592.477 93.3388 589.05C92.1536 588.383 91.5441 587.7 91.1402 586.386C91.2336 585.393 91.438 584.773 91.9974 583.96C93.2699 582.111 94.2958 581.531 96.5024 581.172Z"/>
	<path fill="#FEFEFE" transform="scale(0.980078 0.980078)" d="M103.828 530.74C114.099 530.754 179.967 529.511 184.335 531.838C185.539 532.478 185.809 533.317 186.234 534.543C186.212 536.693 185.211 538.315 184.265 540.186C180.99 540.537 177.667 540.49 174.375 540.538C163.367 540.652 152.344 540.238 141.329 540.334C127.368 540.457 113.096 541.114 99.1573 540.218C97.5579 540.115 95.8951 539.835 94.4255 539.17C92.9151 538.488 92.1564 537.701 91.5467 536.132C91.6688 534.763 91.9304 534.116 92.964 533.162C95.9648 530.394 100.056 530.786 103.828 530.74Z"/>
	<path fill="#FEFEFE" transform="scale(0.980078 0.980078)" d="M163.505 556.256C171.016 555.98 181.552 554.72 188.687 556.985C190.297 557.496 191.251 558.131 192.037 559.679C192.108 561.397 191.456 562.775 190.255 563.995C188.986 565.286 187.607 565.43 185.886 565.632C178.452 566.503 170.347 565.798 162.851 565.767L120.823 565.796C113.73 565.993 101.074 567.392 94.5608 564.873C93.0084 564.273 92.392 563.57 91.7114 562.089C91.8554 560.49 92.4166 558.873 93.5798 557.712C94.654 556.64 95.7235 556.588 97.1748 556.48C103.924 555.98 111.077 556.459 117.869 556.47Q140.689 556.661 163.505 556.256Z"/>
	<path fill="#FEFEFE" transform="scale(0.980078 0.980078)" d="M608.8 187.537C608.81 173.624 605.009 148.942 614.965 138.228C617.849 135.124 621.605 132.911 625.777 132.103C636.126 130.101 647.06 131.354 657.526 131.449L701.467 131.497C710.902 131.506 720.494 131.854 729.904 131.31C745.265 130.878 760.684 131.194 776.051 131.225L850.176 131.248L888.911 131.149C897.023 131.109 905.531 130.518 913.568 131.677C918.656 132.41 922.974 134.899 926.693 138.366C933.186 144.419 934.543 151.786 934.778 160.233C935.034 169.468 934.422 178.711 934.678 187.922L934.655 281.153C934.665 296.236 936.475 312.61 933.979 327.47C933.01 333.241 930.983 338.176 926.749 342.388C922.398 346.716 916.925 349.079 910.901 349.879C902.595 350.982 893.599 350.184 885.238 350.033Q869.165 349.824 853.09 349.921L726.52 350.529C718.191 349.404 708.958 350.135 700.54 350.137L642.006 350.535C631.801 350.54 622.578 350.826 614.905 342.898C612.2 340.103 610.241 336.933 609.567 333.069C608.452 326.683 608.841 319.886 608.839 313.414L608.836 286.315L608.8 187.537Z"/>
	<path fill="#E0ECF6" transform="scale(0.980078 0.980078)" d="M788.976 290.686C802.92 289.93 817.33 290.817 831.334 290.823C847.606 290.831 864.062 290.047 880.302 290.604C882.871 290.692 889.241 290.461 891.332 291.99C892.471 292.823 893.068 294.124 893.347 295.471C893.893 298.096 893.746 302.963 891.843 305.081C890.234 306.872 886.843 306.659 884.624 306.799C878.938 307.219 873.137 306.771 867.435 306.729L836.351 306.686Q823.118 306.648 809.885 306.747C800.897 306.858 791.476 307.603 782.604 305.993C781.297 304.947 780.827 303.972 780.538 302.313C780.066 299.616 779.938 294.634 781.722 292.363C782.956 290.792 787.107 290.852 788.976 290.686Z"/>
	<path fill="#E0ECF6" transform="scale(0.980078 0.980078)" d="M788.882 258.704C800.295 258.227 886.912 257.774 891.064 259.509C892.247 260.003 892.592 261.035 892.859 262.207C893.37 264.453 893.763 271.148 892.142 272.969C890.544 274.765 887.02 274.731 884.791 274.961C862.245 273.975 839.467 274.517 816.894 274.741C807.694 274.833 798.44 275.269 789.247 274.884C787.33 274.804 783.91 274.894 782.395 273.707C781.002 272.614 780.43 270.832 780.185 269.144C779.826 266.661 779.809 262.446 781.727 260.516C783.45 258.783 786.602 258.882 788.882 258.704Z"/>
	<path fill="#E0ECF6" transform="scale(0.980078 0.980078)" d="M811.68 225.769C828.562 224.999 845.711 225.368 862.614 225.523C872.067 225.609 882.863 224.879 892.092 226.67C893.015 229.052 893.597 231.9 893.631 234.452C893.658 236.521 893.041 238.648 891.518 240.113C890.313 241.274 888.672 241.851 887.052 242.139C882.06 243.025 867.945 242.087 861.625 242.229L809.424 242.213C801.903 242.233 794.053 243.004 786.573 242.466C785.213 242.368 783.786 242.292 782.694 241.357C780.683 239.635 780.126 236.281 779.985 233.805C779.864 231.67 780.06 229.726 781.602 228.114C785.572 223.962 805.317 225.825 811.68 225.769Z"/>
	<path fill="#FC924B" transform="scale(0.980078 0.980078)" d="M653.424 224.996L653.907 223.783C656.523 222.67 749.378 222.855 756.629 223.647L756.103 233.182C757.023 242.292 756.28 252.27 756.131 261.458Q755.86 280.881 755.991 300.305C721.959 299.823 687.861 300.25 653.821 300.267C653.641 275.169 653.83 250.095 653.424 224.996Z"/>
	<path fill="#FEB446" transform="scale(0.980078 0.980078)" d="M653.424 224.996L653.907 223.783C656.523 222.67 749.378 222.855 756.629 223.647L756.103 233.182C755.829 230.958 755.884 228.64 755.818 226.398C747.569 233.859 739.78 241.906 731.917 249.771Q718.997 262.481 706.48 275.587C694.769 264.279 682.669 253.38 670.983 242.054C665.888 237.116 659.068 228.664 653.424 224.996Z"/>
	<path fill="#FC924B" transform="scale(0.980078 0.980078)" d="M608.8 187.537C616.62 187.469 624.831 186.88 632.623 187.447C630.975 194.976 632.236 219.453 632.237 228.671Q631.787 277.59 631.99 326.509L910.52 326.803L910.539 248.75C910.631 228.499 911.05 208.243 910.751 187.989Q922.715 188.03 934.678 187.922L934.655 281.153C934.665 296.236 936.475 312.61 933.979 327.47C933.01 333.241 930.983 338.176 926.749 342.388C922.398 346.716 916.925 349.079 910.901 349.879C902.595 350.982 893.599 350.184 885.238 350.033Q869.165 349.824 853.09 349.921L726.52 350.529C718.191 349.404 708.958 350.135 700.54 350.137L642.006 350.535C631.801 350.54 622.578 350.826 614.905 342.898C612.2 340.103 610.241 336.933 609.567 333.069C608.452 326.683 608.841 319.886 608.839 313.414L608.836 286.315L608.8 187.537Z"/>
	<path fill="#7B3506" transform="scale(0.980078 0.980078)" d="M608.8 187.537C608.81 173.624 605.009 148.942 614.965 138.228C617.849 135.124 621.605 132.911 625.777 132.103C636.126 130.101 647.06 131.354 657.526 131.449L701.467 131.497C710.902 131.506 720.494 131.854 729.904 131.31C745.265 130.878 760.684 131.194 776.051 131.225L850.176 131.248L888.911 131.149C897.023 131.109 905.531 130.518 913.568 131.677C918.656 132.41 922.974 134.899 926.693 138.366C933.186 144.419 934.543 151.786 934.778 160.233C935.034 169.468 934.422 178.711 934.678 187.922Q922.715 188.03 910.751 187.989L632.623 187.447C624.831 186.88 616.62 187.469 608.8 187.537Z"/>
	<path fill="#FEFEFE" transform="scale(0.980078 0.980078)" d="M704.881 150.475C706.826 150.566 708.863 150.697 710.613 151.638C713.121 152.985 715.059 155.552 715.739 158.305C716.383 160.912 716.004 163.813 714.576 166.103C712.868 168.841 710.588 170.207 707.535 171.007C706.093 170.892 704.695 170.74 703.313 170.286C700.719 169.435 698.461 167.726 697.272 165.221C696.12 162.793 696.126 159.901 697.088 157.416C698.58 153.561 701.247 151.976 704.881 150.475Z"/>
	<path fill="#FA7A67" transform="scale(0.980078 0.980078)" d="M641.198 150.458C642.715 150.441 644.358 150.542 645.818 150.964C648.72 151.803 651.272 153.742 652.634 156.468Q652.852 156.9 653.026 157.352Q653.2 157.804 653.328 158.271Q653.456 158.738 653.536 159.215Q653.616 159.693 653.647 160.176Q653.679 160.659 653.662 161.143Q653.644 161.627 653.579 162.106Q653.513 162.586 653.399 163.057Q653.285 163.527 653.125 163.984C651.876 167.593 649.216 169.367 645.955 171.016C644.977 171.016 643.977 171.021 643.006 170.892C640.172 170.518 637.047 168.917 635.335 166.595Q635.042 166.195 634.794 165.766Q634.545 165.337 634.343 164.884Q634.141 164.431 633.988 163.96Q633.836 163.488 633.733 163.003Q633.631 162.518 633.58 162.025Q633.53 161.531 633.532 161.036Q633.534 160.54 633.588 160.047Q633.642 159.554 633.748 159.07C634.72 154.565 637.513 152.672 641.198 150.458Z"/>
	<path fill="#FEB446" transform="scale(0.980078 0.980078)" d="M672.093 150.487C673.715 150.452 675.572 150.376 677.143 150.833C679.696 151.576 682.129 153.446 683.422 155.773C684.802 158.256 685.002 161.333 684.1 164.011C682.749 168.023 680.167 169.741 676.619 171.579Q675.695 171.54 674.775 171.44C671.508 171.058 668.15 169.621 666.167 166.902C664.596 164.748 664.101 161.934 664.653 159.346C665.599 154.906 668.493 152.747 672.093 150.487Z"/>
	<defs>
		<linearGradient id="gradient_1" gradientUnits="userSpaceOnUse" x1="597.92798" y1="938.69897" x2="617.68744" y2="659.84113">
			<stop offset="0" stop-color="#644225"/>
			<stop offset="1" stop-color="#946945"/>
		</linearGradient>
	</defs>
	<path fill="url(#gradient_1)" transform="scale(0.980078 0.980078)" d="M584.504 668.823L585.431 668.934C590.251 669.468 595.495 669.104 600.346 669.072Q613.153 668.95 625.961 668.997L723.324 668.997C733.558 668.995 753.899 667.773 763.039 669.876C767.458 670.894 771.5 673.824 774.33 677.306C779.998 684.276 779.356 692.209 778.329 700.568L770.148 766.427C769.104 775.217 767.077 785.223 766.99 793.99L760.349 851.842C759.08 862.875 758.714 875.216 755.356 885.796C754.1 889.754 751.858 893.326 748.616 895.955C746.872 897.37 744.973 898.544 743.048 899.691C747.903 903.525 751.704 908.441 752.392 914.781C752.967 920.079 751.004 925.08 747.563 929.06C746.383 930.425 745.075 931.65 743.735 932.855C739.499 933.252 734.988 932.943 730.718 932.94L705.03 932.929L624.347 932.937L542.608 932.96C539.419 932.961 536.185 932.812 533.002 932.987C527.731 933.276 522.504 934.189 517.212 933.847C510.621 933.421 506.272 933.013 501.756 927.84C501.255 922.208 502.523 916.04 500.043 910.77C491.684 893.008 462.854 906.634 448.398 901.042C448.236 900.98 448.076 900.912 447.916 900.847C446.019 899.611 444.294 898.498 442.153 897.706C440.851 896.728 440.134 895.897 439.27 894.522C437.931 878.405 441.4 862.689 443.594 846.78L451.171 791.132L459.907 726.088C461.731 712.347 463.052 698.36 465.908 684.792C466.674 681.152 467.501 678.221 470 675.341C473.016 671.864 476.692 670.364 481.118 669.548C490.56 667.805 500.274 668.931 509.807 668.983L556.728 669.048C565.708 669.06 574.888 669.499 583.837 668.874L584.504 668.823Z"/>
	<path fill="#818190" transform="scale(0.980078 0.980078)" d="M515.915 680.234L684.624 680.839Q706.518 680.937 728.411 680.75C737.71 680.605 747.569 679.565 756.803 680.638C760.279 681.042 763.328 682.431 765.464 685.283C766.987 687.314 767.768 689.588 767.692 692.128C767.436 700.679 765.67 709.348 764.515 717.824L758.453 763.072L741.066 898.5L703.75 898.498L529.778 898.483L488.005 898.35C478.628 898.351 468.499 899.394 459.282 897.465C454.686 896.502 452.873 894.091 450.461 890.361C451.572 877.229 453.877 864.358 455.815 851.339Q460.257 821.623 464.353 791.857L473.313 724.045C474.843 713.06 476.055 701.682 478.406 690.843C478.963 688.272 479.971 685.379 481.895 683.493C486.628 678.855 509.026 680.342 515.915 680.234Z"/>
	<path fill="#FEFEFE" transform="scale(0.980078 0.980078)" d="M609.41 764.517C614.285 764.4 618.526 764.358 623.097 766.399C628.586 768.849 632.673 773.542 634.811 779.115Q635.013 779.638 635.188 780.17Q635.364 780.702 635.513 781.242Q635.662 781.782 635.784 782.329Q635.906 782.876 636 783.429Q636.094 783.981 636.161 784.537Q636.228 785.094 636.267 785.653Q636.306 786.212 636.317 786.772Q636.328 787.332 636.311 787.893Q636.294 788.453 636.25 789.011Q636.205 789.57 636.132 790.125Q636.06 790.681 635.96 791.232Q635.86 791.784 635.732 792.33Q635.605 792.875 635.45 793.414Q635.296 793.953 635.115 794.483Q634.934 795.013 634.726 795.534Q634.519 796.054 634.286 796.564C631.11 803.654 625.512 807.013 618.622 809.74C615.02 810.312 611.702 810.343 608.159 809.356Q607.597 809.198 607.044 809.011Q606.492 808.825 605.949 808.611Q605.406 808.397 604.875 808.155Q604.344 807.914 603.825 807.646Q603.307 807.379 602.802 807.085Q602.298 806.791 601.81 806.473Q601.321 806.154 600.849 805.811Q600.377 805.468 599.923 805.101Q599.469 804.735 599.034 804.346Q598.599 803.957 598.184 803.547Q597.769 803.136 597.375 802.706Q596.982 802.275 596.611 801.825Q596.239 801.375 595.891 800.906Q595.543 800.438 595.219 799.953Q594.895 799.468 594.596 798.967Q594.297 798.465 594.024 797.95C591.056 792.354 590.659 785.965 592.749 780.005C595.664 771.694 601.881 768.015 609.41 764.517Z"/>
	<path fill="#C40700" transform="scale(0.980078 0.980078)" d="M368.902 566.97C390.23 576.544 415.645 579.978 438.459 574.143C445.155 572.43 451.384 569.358 457.973 567.402C457.715 580.528 456.873 594.077 457.709 607.16C457.828 607.864 457.992 608.604 458.061 609.318C466.528 610.177 475.066 610.827 483.399 612.611C527.075 623.16 552.552 636.532 584.504 668.823L583.837 668.874C574.888 669.499 565.708 669.06 556.728 669.048L509.807 668.983C500.274 668.931 490.56 667.805 481.118 669.548C476.692 670.364 473.016 671.864 470 675.341C467.501 678.221 466.674 681.152 465.908 684.792C463.052 698.36 461.731 712.347 459.907 726.088L451.171 791.132L443.594 846.78C441.4 862.689 437.931 878.405 439.27 894.522C440.134 895.897 440.851 896.728 442.153 897.706C431.344 898.777 409.924 895.333 401.51 900.333C398.512 902.326 397.028 905.215 396.3 908.693C395.089 914.481 395.851 922.512 399.137 927.499C401.197 930.626 404.945 932.177 408.175 933.83L370.999 933.828C361.78 933.86 352.632 934.304 343.452 933.218C342.274 933.68 341.27 933.873 340.007 933.949C331.931 934.434 323.652 934.036 315.551 934.035L268.236 934.032L226.298 934.021C216.727 934.017 207.102 934.29 197.561 933.431C188.009 928.76 179.643 922.936 174.598 913.283C170.877 906.164 169.46 898.602 170.155 890.627C171.418 876.164 178.34 860.08 182.754 846.149L205.757 773.188C216.563 742.985 225.775 701.371 243.403 674.978Q244.263 673.697 245.151 672.435Q246.039 671.174 246.954 669.932Q247.869 668.69 248.812 667.469Q249.754 666.247 250.723 665.047Q251.692 663.846 252.688 662.668Q253.683 661.489 254.704 660.332Q255.725 659.176 256.771 658.042Q257.817 656.908 258.888 655.797Q259.958 654.686 261.053 653.599Q262.148 652.513 263.267 651.45Q264.385 650.388 265.527 649.35Q266.668 648.312 267.833 647.3Q268.997 646.288 270.183 645.301Q271.369 644.315 272.577 643.354Q273.784 642.394 275.012 641.461Q276.241 640.527 277.489 639.621Q278.738 638.715 280.006 637.836Q281.274 636.958 282.561 636.107Q283.849 635.257 285.154 634.435Q286.46 633.613 287.783 632.82Q289.106 632.027 290.447 631.263Q291.787 630.499 293.144 629.765Q294.501 629.031 295.874 628.327Q297.246 627.623 298.634 626.949Q300.022 626.275 301.424 625.632Q302.827 624.989 304.243 624.377Q305.659 623.765 307.088 623.184Q308.517 622.603 309.959 622.054Q311.401 621.505 312.854 620.987Q314.307 620.47 315.772 619.984Q317.236 619.499 318.711 619.046Q320.186 618.593 321.67 618.172C329.524 615.884 337.718 614.483 345.743 612.907C352.061 611.147 359.628 610.993 366.163 610.268C367.133 610.134 367.924 609.925 368.839 609.576C369.918 600.771 369.061 590.997 369.013 582.075L368.902 566.97ZM280.757 797.383C274.452 812.282 270.673 828.496 265.502 843.844C263.948 848.454 262.507 853.95 260.188 858.207L260.332 859.455C270.527 860.077 280.748 861.394 290.957 862.113Q287.435 844.55 284.692 826.848C282.36 818.601 281.777 806.211 280.757 797.383Z"/>
	<path fill="#7B3506" transform="scale(0.980078 0.980078)" d="M260.332 859.455C258.752 860.9 255.795 860.903 253.744 861.063C245.496 861.707 219.068 863.342 213.286 858.374C212.989 857.5 212.692 857.267 213.068 856.358C213.604 855.06 214.419 854.417 215.699 853.919C219.357 852.498 256.192 856.409 260.188 858.207L260.332 859.455Z"/>
	<path fill="#7B3506" transform="scale(0.980078 0.980078)" d="M280.757 797.383C282.641 790.926 301.456 739.3 303.589 736.991C303.651 741.094 302.404 745.502 301.7 749.555C300.028 759.17 298.138 768.686 296.264 778.263C293.764 791.043 291.999 804.54 288.627 817.095C287.701 820.543 286.68 823.851 284.692 826.848C282.36 818.601 281.777 806.211 280.757 797.383Z"/>
	<path fill="#FC924B" transform="scale(0.980078 0.980078)" d="M458.061 609.318C466.528 610.177 475.066 610.827 483.399 612.611C482.239 615.846 481.934 619.911 481.234 623.302C479.118 633.559 475.742 642.837 469.438 651.277C459.267 664.894 443.042 672.506 426.489 674.808C407.139 677.5 384.879 672.127 369.341 660.144C354.099 648.388 348.028 631.415 345.743 612.907C352.061 611.147 359.628 610.993 366.163 610.268C367.094 610.388 368.155 610.2 368.681 611.162C371.392 616.115 365.578 624.709 375.046 635.265C384.094 645.353 399.771 649.496 412.841 649.921C425.601 650.335 442.027 647.492 451.533 638.2C459.457 630.454 458.057 619.405 458.061 609.318Z"/>
	<path fill="#FAB393" transform="scale(0.980078 0.980078)" d="M343.452 933.218C338.467 930.84 334.064 928.483 330.207 924.45Q329.604 923.818 329.033 923.157Q328.462 922.497 327.924 921.809Q327.386 921.12 326.883 920.407Q326.38 919.693 325.913 918.955Q325.446 918.217 325.016 917.457Q324.586 916.697 324.194 915.917Q323.801 915.136 323.448 914.337Q323.095 913.538 322.782 912.723Q322.469 911.908 322.197 911.078Q321.924 910.248 321.693 909.406Q321.462 908.564 321.273 907.711Q321.083 906.859 320.937 905.998Q320.79 905.137 320.686 904.27Q320.581 903.403 320.52 902.531Q320.459 901.66 320.441 900.787Q320.423 899.914 320.448 899.041Q320.467 898.114 320.531 897.19Q320.596 896.265 320.706 895.345Q320.817 894.424 320.973 893.511Q321.129 892.597 321.331 891.692Q321.532 890.788 321.779 889.894Q322.025 889 322.315 888.12Q322.606 887.24 322.939 886.375Q323.273 885.51 323.65 884.663Q324.026 883.816 324.444 882.989Q324.862 882.162 325.321 881.356Q325.78 880.551 326.278 879.769Q326.776 878.988 327.313 878.232Q327.85 877.476 328.423 876.748Q328.997 876.02 329.606 875.321Q330.215 874.622 330.858 873.954Q331.501 873.287 332.176 872.652C346.006 859.769 365.06 862.443 382.381 862.532C389.352 862.567 396.348 861.863 403.312 862.169C422.782 863.025 427.407 881.873 438.851 894.086C438.988 894.233 439.13 894.376 439.27 894.522C440.134 895.897 440.851 896.728 442.153 897.706C431.344 898.777 409.924 895.333 401.51 900.333C398.512 902.326 397.028 905.215 396.3 908.693C395.089 914.481 395.851 922.512 399.137 927.499C401.197 930.626 404.945 932.177 408.175 933.83L370.999 933.828C361.78 933.86 352.632 934.304 343.452 933.218Z"/>
	<path fill="#FAB393" transform="scale(0.980078 0.980078)" d="M368.902 566.97C390.23 576.544 415.645 579.978 438.459 574.143C445.155 572.43 451.384 569.358 457.973 567.402C457.715 580.528 456.873 594.077 457.709 607.16C457.828 607.864 457.992 608.604 458.061 609.318C458.057 619.405 459.457 630.454 451.533 638.2C442.027 647.492 425.601 650.335 412.841 649.921C399.771 649.496 384.094 645.353 375.046 635.265C365.578 624.709 371.392 616.115 368.681 611.162C368.155 610.2 367.094 610.388 366.163 610.268C367.133 610.134 367.924 609.925 368.839 609.576C369.918 600.771 369.061 590.997 369.013 582.075L368.902 566.97Z"/>
	<path fill="#FA7A67" transform="scale(0.980078 0.980078)" d="M368.902 566.97C390.23 576.544 415.645 579.978 438.459 574.143C445.155 572.43 451.384 569.358 457.973 567.402C457.715 580.528 456.873 594.077 457.709 607.16L457.248 608.326C454.63 609.222 448.235 607.432 445.373 606.935Q432.594 604.846 420.108 601.415Q407.622 597.984 395.57 593.248C386.927 589.787 378.544 585.376 369.759 582.33L369.013 582.075L368.902 566.97Z"/>
	<path fill="#FAB393" transform="scale(0.980078 0.980078)" d="M405.264 221.492L476.74 221.307L504.723 221.539C509.305 221.536 514.378 221.938 518.864 221.036C523.266 220.151 526.986 216.964 530.067 213.861Q531.352 212.557 532.534 211.16C533.987 213.922 535.211 216.664 536.117 219.657C537.745 225.038 539.393 239.257 545.363 241.385C546.299 241.718 547.383 241.543 548.249 241.069C551.279 239.412 552.549 235.553 553.944 232.6C562.841 256.985 570.209 278.44 558.487 303.731C556.35 308.341 553.751 312.561 550.753 316.655C553.628 323.238 556.765 329.645 558.442 336.669C563.674 358.576 556.963 387.807 548.815 408.678C548.761 408.818 548.701 408.955 548.644 409.093C562.172 413.148 571.706 416.752 578.798 429.873C584.179 439.829 585.727 451.337 582.383 462.228C578.883 473.624 571.017 482.606 560.466 488.064C549.559 493.705 537.511 493.53 525.983 489.839L525.389 489.644C523.514 495.753 521.678 501.839 519.079 507.69C509.385 529.507 491.828 549.644 470.622 560.869C467.116 562.724 460.761 564.821 457.973 567.402C451.384 569.358 445.155 572.43 438.459 574.143C415.645 579.978 390.23 576.544 368.902 566.97C363.213 563.242 356.523 560.854 350.751 557.086C327.211 541.719 313.742 519.408 304.009 493.666C296.512 495.4 288.776 496.92 281.148 495.131C270.05 492.528 259.35 485.258 253.446 475.429C247.482 465.503 245.966 453.11 248.8 441.933C252.624 426.853 261.977 419.963 274.712 412.283C272.102 403.064 270.582 393.384 268.761 383.978C265.241 366.015 259.574 346.249 261.731 327.862C263.47 313.036 272.987 298.737 284.528 289.62C296.362 280.272 308.718 279.747 323.157 281.387C329.995 262.731 333.351 250.226 348.153 235.52C365.477 218.309 382.756 221.368 405.264 221.492Z"/>
	<path fill="#FA7A67" transform="scale(0.980078 0.980078)" d="M418.47 445.441C420.117 445.528 421.273 445.814 422.693 446.652C424.836 451.494 411.547 455.021 410.228 462.348C408.683 470.936 420.463 470.888 422.969 476.459C423.659 477.993 423.149 478.824 422.714 480.33C420.188 480.69 417.991 480.269 415.576 479.463C411.379 478.064 408.375 475.028 406.575 471.03C404.563 466.561 404.245 461.401 406.077 456.821C408.422 450.957 412.926 447.888 418.47 445.441Z"/>
	<path fill="#7B3506" transform="scale(0.980078 0.980078)" d="M357.261 386.695C359.104 386.762 360.952 386.886 362.771 387.197C366.799 387.886 372.412 390.303 374.829 393.695C375.043 394.898 375.23 395.372 374.516 396.473C371.299 401.436 361.22 394.009 353.324 395.982L352.762 396.128C349.786 397.423 347.347 399.456 344.506 400.971C342.602 401.986 340.875 402.866 338.684 402.241C338.046 401.468 337.333 400.715 337.066 399.719C336.671 398.247 337.288 396.839 338.185 395.702C342.49 390.245 350.669 387.695 357.261 386.695Z"/>
	<path fill="#7B3506" transform="scale(0.980078 0.980078)" d="M465.704 386.108C467.443 385.967 469.215 385.989 470.959 386.079C476.964 386.386 483.195 388.917 487.155 393.552C489.165 395.904 490.196 398.332 489.919 401.426C489.171 402.695 489.179 402.767 487.822 403.307C483.717 403.008 480.922 399.085 477.766 396.707C465.527 389.806 459.441 401.183 451.309 398.364C450.638 397.661 450.349 397.544 450.129 396.543C449.878 395.404 449.819 394.591 450.489 393.587C453.711 388.757 460.361 387.165 465.704 386.108Z"/>
	<path fill="#7B3506" transform="scale(0.980078 0.980078)" d="M464.231 420.498C466.209 420.455 468.341 420.298 470.283 420.707C474.094 421.51 477.54 423.816 479.476 427.228Q479.809 427.826 480.08 428.454Q480.351 429.083 480.556 429.736Q480.76 430.389 480.897 431.059Q481.034 431.73 481.102 432.411Q481.17 433.092 481.168 433.776Q481.165 434.46 481.093 435.141Q481.02 435.821 480.879 436.491Q480.737 437.16 480.528 437.812C478.863 442.918 475.246 445.242 470.681 447.413C468.992 447.63 467.104 447.54 465.439 447.199C461.692 446.433 458.397 444.515 456.395 441.184Q456.026 440.581 455.723 439.942Q455.42 439.304 455.186 438.637Q454.951 437.97 454.788 437.282Q454.625 436.595 454.536 435.893Q454.446 435.192 454.43 434.486Q454.415 433.779 454.473 433.075Q454.532 432.37 454.665 431.676Q454.797 430.982 455.002 430.305C456.478 425.482 459.966 422.747 464.231 420.498Z"/>
	<path fill="#7B3506" transform="scale(0.980078 0.980078)" d="M359.523 421.484C361.909 421.54 364.261 421.762 366.516 422.602Q367.183 422.85 367.821 423.165Q368.459 423.48 369.061 423.859Q369.664 424.238 370.225 424.676Q370.785 425.114 371.298 425.607Q371.811 426.1 372.271 426.643Q372.731 427.186 373.133 427.773Q373.536 428.36 373.876 428.985Q374.216 429.61 374.49 430.267C375.973 433.757 376.085 437.97 374.548 441.462C372.475 446.173 368.546 448.283 363.984 450.024C361.601 450.041 359.304 449.884 357.037 449.078C353.354 447.769 350.377 445.097 348.809 441.506Q348.529 440.871 348.316 440.211Q348.102 439.552 347.956 438.873Q347.811 438.195 347.735 437.506Q347.659 436.816 347.653 436.123Q347.648 435.429 347.713 434.739Q347.778 434.048 347.913 433.368Q348.048 432.687 348.251 432.024Q348.454 431.361 348.724 430.722C350.858 425.777 354.786 423.436 359.523 421.484Z"/>
	<path fill="#FA7A67" transform="scale(0.980078 0.980078)" d="M528.711 420.869C537.752 421.841 546.778 423.827 553.456 430.48C558.773 435.777 561.628 443.246 561.549 450.721C561.445 460.59 557.078 468.237 550.164 474.966C543.317 480.971 535.615 483.713 526.778 485.251C530.525 463.661 527.998 442.534 528.711 420.869Z"/>
	<path fill="#FA7A67" transform="scale(0.980078 0.980078)" d="M295.767 423.568L302.84 423.5C302.428 444.778 302.93 466.101 302.991 487.383C295.344 486.608 288.839 485.147 282.169 481.216C275.401 476.641 270.23 470.047 268.246 462.04C266.329 454.307 267.785 445.819 271.884 439.02C277.378 429.909 285.762 425.974 295.767 423.568Z"/>
	<path fill="#FEFEFE" transform="scale(0.980078 0.980078)" d="M411.987 490.729L456.897 491.498C455.754 500.228 453.446 507.99 447.889 514.977C439.473 525.561 429.017 529.863 415.894 531.437Q415.239 531.446 414.584 531.446Q413.454 531.452 412.325 531.401Q411.196 531.351 410.07 531.245Q408.945 531.139 407.826 530.978Q406.708 530.816 405.599 530.6Q404.489 530.383 403.392 530.112Q402.295 529.841 401.212 529.516Q400.13 529.191 399.065 528.813Q398 528.435 396.954 528.005Q395.909 527.575 394.887 527.094Q393.864 526.613 392.866 526.081Q391.869 525.55 390.899 524.97Q389.928 524.391 388.988 523.764Q388.048 523.137 387.14 522.464Q386.231 521.791 385.358 521.074Q384.484 520.358 383.646 519.599Q382.809 518.839 382.01 518.04C374.82 510.772 370.389 501.935 370.456 491.637C384.058 490.058 398.275 491.248 411.987 490.729Z"/>
	<path fill="#7B3506" transform="scale(0.980078 0.980078)" d="M405.264 221.492L476.74 221.307L504.723 221.539C509.305 221.536 514.378 221.938 518.864 221.036C523.266 220.151 526.986 216.964 530.067 213.861Q531.352 212.557 532.534 211.16C533.987 213.922 535.211 216.664 536.117 219.657C537.745 225.038 539.393 239.257 545.363 241.385C546.299 241.718 547.383 241.543 548.249 241.069C551.279 239.412 552.549 235.553 553.944 232.6C562.841 256.985 570.209 278.44 558.487 303.731C556.35 308.341 553.751 312.561 550.753 316.655C553.628 323.238 556.765 329.645 558.442 336.669C563.674 358.576 556.963 387.807 548.815 408.678C548.761 408.818 548.701 408.955 548.644 409.093C541.212 408.865 535.635 409.865 529.964 415.092C529.577 415.449 529.21 415.826 528.84 416.2C528.904 394.218 530.123 378.211 519.01 358.253C516.035 352.909 512.498 347.388 508.428 342.806C467.768 356.631 423.448 358.107 382.611 343.94C371.197 339.981 360.691 334.159 349.538 329.693C331.747 337.764 314.097 348.256 306.758 367.439C301.122 382.169 302.062 398.683 302.506 414.168C293.434 410.108 284.298 409.319 274.712 412.283C272.102 403.064 270.582 393.384 268.761 383.978C265.241 366.015 259.574 346.249 261.731 327.862C263.47 313.036 272.987 298.737 284.528 289.62C296.362 280.272 308.718 279.747 323.157 281.387C329.995 262.731 333.351 250.226 348.153 235.52C365.477 218.309 382.756 221.368 405.264 221.492Z"/>
	<path fill="#E0ECF6" transform="scale(0.980078 0.980078)" d="M405.264 221.492Q406.033 218.185 406.922 214.909Q407.811 211.632 408.82 208.391Q409.829 205.149 410.957 201.947Q412.084 198.745 413.328 195.586Q414.572 192.427 415.931 189.316Q417.29 186.205 418.762 183.145Q420.234 180.086 421.818 177.083Q423.401 174.08 425.094 171.137Q426.786 168.194 428.585 165.315Q430.385 162.436 432.289 159.625Q434.192 156.814 436.198 154.075Q438.204 151.336 440.308 148.672Q442.413 146.008 444.614 143.424Q446.815 140.839 449.11 138.337Q451.404 135.834 453.789 133.418Q456.173 131.001 458.645 128.674C498.101 92.0225 550.903 74.313 604.327 76.5884Q607.934 76.7695 611.532 77.0855Q615.13 77.4015 618.713 77.8518Q622.297 78.3021 625.861 78.8862Q629.425 79.4703 632.965 80.1873Q636.505 80.9043 640.015 81.7532Q643.525 82.6021 647.002 83.5818Q650.478 84.5615 653.915 85.6705Q657.352 86.7795 660.746 88.0163Q664.139 89.2532 667.483 90.6161Q670.828 91.979 674.119 93.4661Q677.411 94.9531 680.644 96.5623Q683.878 98.1715 687.048 99.9005Q690.219 101.629 693.323 103.476Q696.427 105.322 699.46 107.284Q702.493 109.245 705.45 111.318Q708.407 113.391 711.285 115.574C717.827 120.448 724.378 125.271 729.904 131.31C720.494 131.854 710.902 131.506 701.467 131.497L657.526 131.449C647.06 131.354 636.126 130.101 625.777 132.103C621.605 132.911 617.849 135.124 614.965 138.228C605.009 148.942 608.81 173.624 608.8 187.537L608.836 286.315L608.839 313.414C608.841 319.886 608.452 326.683 609.567 333.069C610.241 336.933 612.2 340.103 614.905 342.898C622.578 350.826 631.801 350.54 642.006 350.535L700.54 350.137C708.958 350.135 718.191 349.404 726.52 350.529C718.462 372.454 714.707 389.74 724.989 411.914Q725.408 412.808 725.85 413.692Q726.292 414.576 726.755 415.448Q727.219 416.32 727.704 417.181Q728.189 418.041 728.695 418.889Q729.202 419.738 729.729 420.573Q730.257 421.408 730.805 422.23Q731.353 423.052 731.921 423.859Q732.49 424.667 733.078 425.461Q733.667 426.254 734.275 427.033Q734.883 427.811 735.51 428.574Q736.137 429.337 736.784 430.085Q737.43 430.832 738.094 431.563Q738.759 432.293 739.442 433.007Q740.124 433.721 740.824 434.418Q741.525 435.115 742.242 435.794Q742.959 436.473 743.693 437.134Q744.428 437.795 745.178 438.437Q745.928 439.08 746.695 439.703Q747.461 440.327 748.242 440.931Q749.024 441.535 749.82 442.12Q750.616 442.704 751.427 443.269Q752.238 443.833 753.062 444.378Q753.887 444.922 754.724 445.445Q755.562 445.968 756.413 446.471Q757.263 446.973 758.126 447.454Q758.989 447.935 759.864 448.394Q760.738 448.853 761.624 449.29Q762.51 449.727 763.406 450.142Q764.303 450.557 765.209 450.95Q766.116 451.342 767.032 451.712Q767.948 452.082 768.873 452.429Q769.798 452.775 770.731 453.099C793.059 461.058 808.121 461.895 825.708 480.56C829.865 484.971 833.017 490.232 837.098 494.612C833.947 496.749 830.631 498.599 827.652 500.982Q821.103 494.436 814.135 488.339Q805.789 496.393 797.634 504.641C801.817 509.427 806.424 514.004 810.207 519.107C804.777 528.478 801.151 537.375 798.24 547.808L779.851 547.802L779.854 571.996L798.993 571.977C801.364 581.311 804.951 589.436 810.273 597.453C806.163 602.223 801.73 606.654 797.298 611.121L815.162 628.921Q821.578 622.984 827.882 616.928C836.628 621.518 845.05 625.662 854.516 628.613Q854.775 637.803 854.807 646.996L880.984 646.996L880.99 628.435L890.244 626.195C876.573 679.45 848.189 726.076 808.169 763.629C798.014 773.159 787.093 782.83 775.058 789.916C772.437 791.46 769.789 792.802 766.99 793.99C767.077 785.223 769.104 775.217 770.148 766.427L778.329 700.568C779.356 692.209 779.998 684.276 774.33 677.306C771.5 673.824 767.458 670.894 763.039 669.876C753.899 667.773 733.558 668.995 723.324 668.997L625.961 668.997Q613.153 668.95 600.346 669.072C595.495 669.104 590.251 669.468 585.431 668.934L584.504 668.823C552.552 636.532 527.075 623.16 483.399 612.611C475.066 610.827 466.528 610.177 458.061 609.318C457.992 608.604 457.828 607.864 457.709 607.16C456.873 594.077 457.715 580.528 457.973 567.402C460.761 564.821 467.116 562.724 470.622 560.869C491.828 549.644 509.385 529.507 519.079 507.69C521.678 501.839 523.514 495.753 525.389 489.644L525.983 489.839C537.511 493.53 549.559 493.705 560.466 488.064C571.017 482.606 578.883 473.624 582.383 462.228C585.727 451.337 584.179 439.829 578.798 429.873C571.706 416.752 562.172 413.148 548.644 409.093C548.701 408.955 548.761 408.818 548.815 408.678C556.963 387.807 563.674 358.576 558.442 336.669C556.765 329.645 553.628 323.238 550.753 316.655C553.751 312.561 556.35 308.341 558.487 303.731C570.209 278.44 562.841 256.985 553.944 232.6C552.549 235.553 551.279 239.412 548.249 241.069C547.383 241.543 546.299 241.718 545.363 241.385C539.393 239.257 537.745 225.038 536.117 219.657C535.211 216.664 533.987 213.922 532.534 211.16Q531.352 212.557 530.067 213.861C526.986 216.964 523.266 220.151 518.864 221.036C514.378 221.938 509.305 221.536 504.723 221.539L476.74 221.307L405.264 221.492Z"/>
	<path fill="#FC924B" transform="scale(0.980078 0.980078)" d="M669.321 391.821C670.347 392.205 671.275 392.57 672.152 393.242C673.684 394.416 674.191 395.788 674.443 397.634C675.521 405.529 674.621 413.821 674.49 421.776C674.307 432.902 674.471 444.058 674.471 455.187L674.483 525.392C674.49 536.446 675.021 547.681 674.554 558.712C674.436 561.489 674.268 564.083 672.58 566.387C666.165 568.687 655.077 567.685 648.172 567.816C616.917 568.411 585.659 567.689 554.405 567.741C553.516 567.612 552.497 567.505 551.681 567.099C550.35 566.435 548.981 564.373 548.885 562.906C548.814 561.833 549.254 561.151 549.97 560.423C551.599 558.766 554.626 558.387 556.811 558.154C566.683 557.1 577.48 558.064 587.444 558.049L665.01 558.326L665.051 442.666L664.735 412.108C664.718 407.016 664.248 401.249 665.246 396.262C665.727 393.861 667.405 393.053 669.321 391.821Z"/>
</svg>
