<?xml version="1.0" encoding="utf-8" ?>
<svg xmlns="http://www.w3.org/2000/svg" xmlns:xlink="http://www.w3.org/1999/xlink" width="1024" height="1024">
	<path fill="#93C5DC" d="M175.534 376.176C177.268 375.999 179.201 375.98 180.921 376.287C182.979 376.654 184.909 378.116 185.954 379.928C186.499 380.876 186.745 381.968 186.256 382.996C184.044 387.649 173.408 387.558 168.918 388.892C165.849 389.804 163.397 395.821 161.88 398.554C161.096 399.382 159.931 400.488 158.726 400.68C157.58 400.862 156.62 400.686 155.709 399.928C154.631 399.031 154.152 397.355 153.991 396.01C153.528 392.142 155.457 388.094 157.776 385.124C162.273 379.365 168.535 377.085 175.534 376.176Z"/>
	<path fill="#E26B6C" d="M237.048 409.508C239.08 409.548 241.185 409.625 243.106 410.347C245.958 411.42 248.407 413.59 249.661 416.382Q249.891 416.897 250.067 417.432Q250.243 417.967 250.365 418.518Q250.486 419.068 250.551 419.628Q250.616 420.187 250.624 420.751Q250.633 421.314 250.584 421.876Q250.535 422.437 250.43 422.991Q250.325 423.545 250.164 424.085Q250.003 424.625 249.789 425.146C248.151 429.097 245.148 430.961 241.346 432.515C239.265 432.615 237.088 432.475 235.142 431.679Q234.611 431.458 234.105 431.185Q233.598 430.912 233.121 430.59Q232.644 430.268 232.202 429.901Q231.759 429.533 231.355 429.124Q230.951 428.714 230.589 428.267Q230.228 427.819 229.913 427.338Q229.597 426.857 229.331 426.347Q229.065 425.837 228.851 425.303Q228.636 424.772 228.474 424.222Q228.312 423.673 228.205 423.11Q228.098 422.547 228.046 421.977Q227.994 421.406 227.999 420.833Q228.004 420.26 228.064 419.691Q228.125 419.121 228.242 418.56Q228.358 417.999 228.529 417.452Q228.699 416.905 228.923 416.378C230.528 412.664 233.393 410.872 237.048 409.508Z"/>
	<path fill="#E26B6C" d="M833.21 627.543C835.615 627.443 837.914 627.451 840.198 628.317C843.432 629.543 846.107 632.006 847.408 635.228Q847.621 635.758 847.781 636.306Q847.941 636.855 848.047 637.416Q848.153 637.977 848.203 638.546Q848.253 639.115 848.247 639.687Q848.241 640.258 848.179 640.826Q848.118 641.393 848.001 641.953Q847.884 642.512 847.712 643.057Q847.541 643.602 847.317 644.127C845.711 647.863 842.778 649.693 839.141 651.135C836.901 651.55 834.839 651.639 832.629 650.974C829.616 650.068 827.28 648.144 825.818 645.356C824.249 642.366 823.942 638.692 825.072 635.503C826.56 631.307 829.422 629.415 833.21 627.543Z"/>
	<path fill="#E26B6C" d="M581.25 137.48Q583.655 137.38 586.005 137.898C589.347 138.654 592.349 140.732 594.085 143.701Q594.402 144.238 594.66 144.806Q594.919 145.373 595.117 145.964Q595.315 146.556 595.45 147.164Q595.585 147.773 595.655 148.393Q595.725 149.012 595.73 149.636Q595.735 150.259 595.675 150.88Q595.615 151.501 595.49 152.112Q595.365 152.723 595.177 153.317C593.731 157.809 590.393 160.029 586.354 161.933C584.533 162.163 582.839 162.229 581.028 161.841C577.692 161.125 574.71 159.181 573.022 156.175C571.415 153.312 571.031 149.675 572.085 146.557C573.667 141.881 577.067 139.586 581.25 137.48Z"/>
	<path fill="#E26B6C" d="M312.146 265.56C314.755 265.468 317.427 265.237 319.91 266.207C323.02 267.422 325.68 269.97 326.947 273.066Q327.191 273.649 327.375 274.254Q327.558 274.859 327.679 275.48Q327.8 276.1 327.857 276.73Q327.914 277.359 327.907 277.992Q327.899 278.624 327.828 279.252Q327.756 279.88 327.62 280.497Q327.485 281.115 327.287 281.715Q327.089 282.316 326.831 282.893C325.097 286.694 322.101 288.616 318.335 290.045C316.388 290.389 314.735 290.419 312.793 289.99C309.439 289.249 306.735 287.548 304.986 284.538Q304.664 283.978 304.399 283.389Q304.134 282.799 303.93 282.186Q303.726 281.574 303.584 280.943Q303.442 280.313 303.364 279.672Q303.285 279.03 303.272 278.384Q303.258 277.738 303.31 277.094Q303.361 276.45 303.476 275.815Q303.592 275.179 303.77 274.558C305.076 269.972 308.151 267.673 312.146 265.56Z"/>
	<path fill="#4BBCA5" d="M165.835 795.947C162.737 789.348 151.163 762.75 153.638 756.42C154.206 754.966 155.346 753.883 156.794 753.334C158.647 752.63 160.775 752.824 162.533 753.705C164.031 754.455 165.161 755.613 165.965 757.077C167.419 759.727 168.108 762.984 169.15 765.835C172.656 775.425 175.629 786.906 180.109 795.882L165.835 795.947Z"/>
	<path fill="#93C5DC" d="M174.23 350.197C178.182 349.755 183.001 349.878 186.888 350.792C189.346 351.37 191.879 352.893 193.198 355.101C193.917 356.304 194.334 357.909 193.748 359.252C191.517 364.357 181.142 361.183 176.99 361.244C172.834 361.305 168.646 361.762 164.639 362.889C154.315 365.792 146.669 372.884 141.514 382.098C140.197 385.264 138.057 391.027 134.391 391.992C133.346 392.267 132.343 391.963 131.586 391.202C130.535 390.145 130.136 388.307 130.021 386.879C129.511 380.516 133.645 373.583 137.557 368.809C146.746 357.598 160.046 351.693 174.23 350.197Z"/>
	<path fill="#415572" d="M888.79 918.229Q896.469 918.015 904.151 918.058C909.795 918.127 917.153 917.69 921.299 922.189C924.066 925.193 923.627 928.139 923.459 931.937C921.618 935.224 920.014 936.578 916.794 938.448L903.328 938.854C895.413 938.899 880.298 940.146 873.426 937.755C870.98 936.904 868.824 935.272 867.739 932.87C866.157 929.368 867.113 925.97 868.336 922.542C874.13 916.861 881.395 918.737 888.79 918.229Z"/>
	<path fill="#F6F8FA" d="M794.262 298.612C798.014 298.291 801.51 298.415 805.085 299.731Q805.542 299.898 805.989 300.089Q806.437 300.28 806.873 300.494Q807.31 300.708 807.735 300.945Q808.16 301.181 808.572 301.44Q808.984 301.698 809.382 301.978Q809.78 302.258 810.163 302.558Q810.545 302.858 810.912 303.178Q811.278 303.497 811.628 303.836Q811.977 304.174 812.308 304.53Q812.639 304.887 812.952 305.26Q813.264 305.633 813.556 306.022Q813.848 306.411 814.119 306.814Q814.391 307.218 814.641 307.635Q814.891 308.052 815.119 308.482Q815.346 308.912 815.551 309.353Q815.756 309.794 815.938 310.245C817.81 314.768 817.833 319.678 815.881 324.177C813.137 330.5 808.046 333.578 801.872 335.854L801.48 335.902C797.207 336.46 793.654 336.262 789.719 334.28Q789.286 334.063 788.865 333.825Q788.444 333.586 788.035 333.327Q787.627 333.067 787.232 332.787Q786.837 332.507 786.457 332.207Q786.077 331.907 785.712 331.588Q785.348 331.27 785 330.933Q784.653 330.596 784.323 330.242Q783.993 329.888 783.681 329.517Q783.369 329.147 783.077 328.761Q782.784 328.376 782.512 327.975Q782.24 327.575 781.988 327.162Q781.736 326.748 781.506 326.323Q781.275 325.897 781.067 325.46Q780.859 325.023 780.673 324.576Q780.487 324.129 780.324 323.673Q780.161 323.218 780.021 322.754C778.542 317.748 779.015 312.009 781.639 307.46C784.49 302.516 788.973 300.141 794.262 298.612Z"/>
	<path fill="#93C5DC" d="M176.332 324.706C183.587 324.19 192.184 324.449 199.008 327.22C200.9 327.989 202.608 329.001 203.379 330.996C203.932 332.425 203.879 334.03 203.099 335.374C200.095 340.547 185.411 335.449 180.228 335.293C174.604 335.124 168.598 335.993 163.134 337.299C144.856 341.669 130.683 352.229 120.952 368.256C118.682 372.208 117.845 376.884 115.437 380.746C114.418 382.381 113.18 383.57 111.224 383.895C109.842 384.125 108.731 383.729 107.679 382.857C106.545 381.919 105.927 380.588 105.789 379.136C105.044 371.305 113.974 358.451 118.819 352.67C133.703 334.907 153.632 326.805 176.332 324.706Z"/>
	<path fill="#F6F8FA" d="M201.209 174.615C206.187 174.096 210.989 174.178 215.517 176.585Q215.96 176.823 216.391 177.083Q216.821 177.344 217.238 177.625Q217.655 177.907 218.057 178.21Q218.459 178.512 218.845 178.835Q219.232 179.157 219.601 179.499Q219.97 179.84 220.322 180.2Q220.674 180.56 221.007 180.937Q221.34 181.314 221.653 181.708Q221.967 182.101 222.26 182.51Q222.553 182.919 222.825 183.342Q223.097 183.765 223.347 184.202Q223.598 184.638 223.826 185.087Q224.054 185.535 224.258 185.995Q224.463 186.454 224.645 186.924Q224.826 187.393 224.984 187.871Q225.141 188.349 225.274 188.834Q225.406 189.314 225.515 189.8Q225.624 190.287 225.709 190.778Q225.793 191.268 225.854 191.763Q225.915 192.257 225.951 192.754Q225.988 193.251 226 193.749Q226.012 194.247 226 194.745Q225.987 195.243 225.951 195.74Q225.914 196.237 225.853 196.731Q225.793 197.226 225.708 197.717Q225.623 198.208 225.514 198.694Q225.405 199.18 225.273 199.66Q225.14 200.141 224.984 200.614Q224.829 201.087 224.65 201.552Q224.471 202.017 224.27 202.473Q224.068 202.928 223.845 203.374Q223.622 203.819 223.377 204.253C220.254 209.709 215.366 212.387 209.492 213.929C205.174 214.513 201.034 214.218 197.06 212.308Q196.577 212.074 196.107 211.815Q195.637 211.557 195.181 211.274Q194.725 210.992 194.284 210.687Q193.843 210.381 193.419 210.054Q192.994 209.726 192.586 209.377Q192.179 209.028 191.79 208.659Q191.401 208.289 191.032 207.9Q190.662 207.511 190.313 207.104Q189.964 206.697 189.637 206.272Q189.309 205.847 189.004 205.406Q188.698 204.965 188.416 204.509Q188.134 204.053 187.875 203.583Q187.616 203.113 187.382 202.631Q187.148 202.148 186.939 201.654Q186.73 201.16 186.547 200.656Q186.363 200.152 186.206 199.639Q186.062 199.165 185.942 198.683Q185.821 198.202 185.725 197.716Q185.628 197.23 185.556 196.739Q185.484 196.248 185.436 195.755Q185.388 195.261 185.365 194.766Q185.341 194.271 185.342 193.775Q185.344 193.279 185.369 192.784Q185.395 192.288 185.445 191.795Q185.496 191.302 185.57 190.811Q185.645 190.321 185.743 189.835Q185.842 189.349 185.965 188.869Q186.088 188.388 186.234 187.914Q186.38 187.441 186.55 186.975Q186.72 186.509 186.912 186.052Q187.105 185.595 187.319 185.148Q187.534 184.701 187.771 184.265C190.739 178.909 195.556 176.298 201.209 174.615Z"/>
	<path fill="#F6F8FA" d="M502.412 79.5875C506.418 79.2097 510.502 79.7134 514.202 81.3537Q514.656 81.5509 515.099 81.7715Q515.542 81.9921 515.973 82.2353Q516.405 82.4786 516.822 82.7439Q517.24 83.0092 517.644 83.2958Q518.047 83.5825 518.435 83.8897Q518.824 84.1969 519.195 84.5238Q519.567 84.8508 519.921 85.1965Q520.275 85.5423 520.611 85.9061Q520.947 86.2698 521.263 86.6504Q521.58 87.0311 521.876 87.4276Q522.172 87.8242 522.447 88.2356Q522.722 88.647 522.976 89.0722Q523.229 89.4973 523.461 89.935Q523.692 90.3728 523.9 90.8219Q524.108 91.271 524.292 91.7304Q524.477 92.1897 524.637 92.658C526.502 98.0425 526.141 104.392 523.562 109.486C520.422 115.688 515.264 118.72 508.865 120.675C504.283 121.321 499.517 120.554 495.478 118.235Q495.02 117.967 494.575 117.677Q494.131 117.386 493.701 117.074Q493.272 116.762 492.859 116.428Q492.446 116.095 492.05 115.741Q491.654 115.388 491.276 115.015Q490.898 114.642 490.54 114.25Q490.181 113.859 489.843 113.45Q489.504 113.041 489.186 112.615Q488.869 112.19 488.573 111.749Q488.277 111.308 488.003 110.853Q487.73 110.398 487.48 109.93Q487.229 109.462 487.003 108.982Q486.776 108.501 486.574 108.011Q486.372 107.52 486.194 107.019Q486.017 106.519 485.865 106.01Q485.712 105.502 485.586 104.986C484.168 99.3852 484.921 93.1652 488.096 88.2824C491.544 82.9795 496.495 80.9016 502.412 79.5875Z"/>
	<path fill="#F69F92" d="M658.952 388.003C669.497 390.144 678.072 394.62 684.129 403.807Q684.618 404.557 685.07 405.331Q685.522 406.104 685.934 406.899Q686.347 407.694 686.72 408.509Q687.093 409.323 687.426 410.155Q687.758 410.987 688.048 411.834Q688.339 412.682 688.588 413.542Q688.836 414.403 689.042 415.275Q689.247 416.147 689.409 417.028Q689.572 417.909 689.69 418.796Q689.809 419.684 689.883 420.577Q689.957 421.47 689.988 422.365Q690.018 423.26 690.004 424.156Q689.99 425.052 689.931 425.945Q689.873 426.839 689.77 427.729Q689.668 428.619 689.521 429.503Q689.375 430.387 689.185 431.262Q689.004 432.15 688.779 433.027Q688.554 433.905 688.286 434.771Q688.018 435.636 687.707 436.487Q687.397 437.339 687.045 438.174Q686.693 439.009 686.301 439.825Q685.908 440.642 685.476 441.438Q685.044 442.234 684.573 443.008Q684.102 443.782 683.593 444.532Q683.085 445.282 682.54 446.006Q681.995 446.73 681.415 447.426Q680.835 448.122 680.221 448.789Q679.608 449.455 678.962 450.091Q678.317 450.727 677.64 451.33Q676.964 451.933 676.259 452.502Q675.554 453.071 674.822 453.605Q674.09 454.138 673.332 454.635C663.743 460.808 653.714 460.731 642.699 460.34C645.377 452.366 645.384 439.614 644.779 431.186C646.402 431.785 647.988 432.395 649.732 432.516C652.054 432.676 654.06 432.039 655.746 430.388C657.649 428.524 658.5 425.852 658.929 423.292C659.67 418.864 659.204 414.006 659.142 409.52L658.952 388.003Z"/>
	<path fill="#F69F92" d="M379.671 390.779C379.362 399.702 376.617 424.31 383.013 430.698Q383.321 431.007 383.659 431.283Q383.996 431.558 384.36 431.798Q384.724 432.038 385.111 432.24Q385.498 432.441 385.903 432.602Q386.308 432.763 386.728 432.882Q387.147 433.001 387.577 433.076Q388.006 433.152 388.441 433.183Q388.876 433.214 389.312 433.201C391.084 433.138 392.845 432.556 394.534 432.063C393.544 443.518 393.379 455.615 395.196 466.974C385.236 467.18 375.478 466.356 366.917 460.762C358.056 454.971 351.102 445.109 349.056 434.689Q348.88 433.756 348.751 432.816Q348.621 431.876 348.538 430.93Q348.454 429.984 348.417 429.036Q348.38 428.088 348.389 427.138Q348.399 426.189 348.455 425.242Q348.511 424.294 348.613 423.35Q348.715 422.407 348.863 421.469Q349.012 420.532 349.206 419.602Q349.4 418.673 349.639 417.755Q349.879 416.836 350.163 415.93Q350.447 415.025 350.775 414.134Q351.103 413.243 351.474 412.37Q351.845 411.496 352.259 410.642Q352.672 409.787 353.127 408.954Q353.582 408.121 354.078 407.311Q354.573 406.502 355.107 405.717C361.25 396.646 369.152 392.836 379.671 390.779Z"/>
	<path fill="#1D3048" d="M180.109 795.882C199.093 796.623 218.28 796.062 237.288 796.046L236.785 827.523C234.519 827.523 230.86 827.034 228.84 828.006C228.501 833.513 228.278 839.055 227.579 844.53C217.578 844.066 207.417 844.447 197.395 844.452C176.533 844.463 155.725 844.52 134.871 843.908Q134.068 835.941 133.092 827.993L126.837 827.808Q126.952 811.751 126.885 795.694Q146.361 795.61 165.835 795.947L180.109 795.882Z"/>
	<path fill="#FEC721" d="M133.092 827.993C142.622 827.995 227.838 827.482 228.84 828.006C228.501 833.513 228.278 839.055 227.579 844.53C217.578 844.066 207.417 844.447 197.395 844.452C176.533 844.463 155.725 844.52 134.871 843.908Q134.068 835.941 133.092 827.993Z"/>
	<path fill="#FED659" d="M134.871 843.908C155.725 844.52 176.533 844.463 197.395 844.452C207.417 844.447 217.578 844.066 227.579 844.53C226.959 857.722 225.541 870.951 224.435 884.115C223.48 895.487 222.871 906.985 221.403 918.298C195.227 917.864 168.984 918.37 142.797 918.278L142.226 917.697C141.212 903.414 139.541 889.234 138.057 874.997C136.977 864.639 136.152 854.243 134.871 843.908Z"/>
	<path fill="#197774" d="M276.94 759.882C287.097 760.791 297.939 766.307 307.561 769.598C321.475 774.357 335.605 778.344 349.204 783.995C347.37 787.809 345.423 791.604 343.756 795.493C343.137 797.128 342.466 798.76 341.916 800.419C346.437 802.146 351.272 802.879 355.833 804.487C357.099 815.673 356.021 830.093 355.966 841.551C355.947 845.677 355.591 850.281 356.37 854.329C355.956 861.954 357.51 871.637 355.072 878.863C343.18 876.91 331.205 873.19 319.521 870.218C305.938 866.764 290.689 864.559 278.102 858.321C268.32 853.474 260.781 845.818 257.39 835.296C251.458 816.891 260.751 798.049 267.723 781.344C270.699 774.214 273.42 766.753 276.94 759.882Z"/>
	<path fill="#0D0C27" d="M303.649 789.346C304.225 787.874 304.627 786.451 305.858 785.386C312.842 783.873 336.206 792.709 343.756 795.493C343.137 797.128 342.466 798.76 341.916 800.419C330.17 797.282 313.912 795.719 303.649 789.346Z"/>
	<path fill="#197774" d="M767.269 755.675Q773.814 772.471 780.884 789.054C785.325 799.442 791.565 810.148 793.087 821.45C793.847 827.098 792.855 832.813 790.585 838.012C785.825 848.911 777.023 854.284 766.28 858.353C740.625 868.069 713.392 875.232 685.913 876.581C685.385 867.383 686.664 857.771 686.589 848.489C686.477 834.833 684.32 820.111 685.966 806.581C684.693 799.324 685.047 789.966 685.911 782.633C688.815 783.367 691.212 783.351 694.151 782.917C701.271 781.298 708.773 777.755 715.691 775.292C730.612 769.979 754.442 762.996 767.269 755.675ZM685.911 782.633C685.047 789.966 684.693 799.324 685.966 806.581C690.273 804.523 694.914 803.118 699.453 801.667C697.542 795.483 695.955 789.141 694.151 782.917C691.212 783.351 688.815 783.367 685.911 782.633Z"/>
	<path fill="#0D0C27" d="M734.431 781.702C739.415 781.284 749.219 780.372 753.695 783.194C755.03 784.036 755.206 784.6 755.493 786.094C752.358 789.214 742.308 786.771 738.057 786.64C735.819 786.571 733.557 786.862 731.336 787.107C725.884 788.085 719.65 790.72 714.162 790.502C712.844 790.449 712.757 789.997 711.92 789.046C711.918 788.384 711.756 787.958 712.215 787.416C715.524 783.503 729.31 782.364 734.431 781.702Z"/>
	<path fill="#4BBCA5" d="M343.283 85.1908C343.351 85.1794 343.419 85.163 343.488 85.1566C357.834 83.826 372.174 88.4398 383.694 96.9456Q384.91 97.84 386.08 98.794Q387.25 99.748 388.371 100.759Q389.492 101.77 390.561 102.836Q391.63 103.902 392.644 105.02Q393.659 106.138 394.616 107.305Q395.574 108.472 396.472 109.686Q397.37 110.899 398.206 112.156Q399.042 113.413 399.815 114.71Q400.587 116.007 401.294 117.341Q402.001 118.675 402.64 120.042Q403.28 121.41 403.85 122.807Q404.42 124.205 404.92 125.63Q405.42 127.054 405.848 128.502Q406.276 129.949 406.632 131.416Q406.987 132.884 407.269 134.367Q407.551 135.85 407.758 137.345Q407.957 138.82 408.085 140.304Q408.212 141.787 408.268 143.275Q408.323 144.762 408.306 146.251Q408.289 147.739 408.199 149.225Q408.11 150.712 407.948 152.191Q407.787 153.671 407.554 155.142Q407.32 156.612 407.016 158.069Q406.712 159.527 406.337 160.967Q405.962 162.408 405.518 163.829Q405.074 165.25 404.561 166.648Q404.048 168.045 403.468 169.416Q402.888 170.787 402.241 172.128Q401.595 173.47 400.885 174.778Q400.174 176.086 399.401 177.358Q398.628 178.631 397.794 179.864Q396.96 181.097 396.067 182.288C385.566 196.102 370.707 204.153 353.625 206.455C337.304 206.877 323.098 205.015 309.852 194.646Q308.664 193.702 307.525 192.7Q306.385 191.699 305.295 190.643Q304.206 189.587 303.169 188.479Q302.133 187.371 301.152 186.213Q300.171 185.056 299.248 183.852Q298.324 182.648 297.461 181.4Q296.598 180.152 295.797 178.863Q294.996 177.575 294.259 176.249Q293.522 174.922 292.851 173.562Q292.179 172.201 291.576 170.809Q290.972 169.417 290.437 167.997Q289.902 166.578 289.437 165.133Q288.972 163.689 288.578 162.224Q288.185 160.758 287.863 159.276Q287.542 157.793 287.293 156.296Q287.045 154.799 286.87 153.292C284.977 137.538 289.113 120.404 299.145 107.935C310.4 93.9459 325.72 87.1529 343.283 85.1908Z"/>
	<path fill="#F6F8FA" d="M374.64 122.037C377.745 124.678 380.364 128.144 383.04 131.222L341.727 173.021C335.519 165.924 328.42 159.411 321.738 152.75C318.429 149.491 315.145 146.248 312.062 142.77C314.787 140.091 317.589 137.529 320.447 134.993C327.822 141.377 334.625 148.554 341.52 155.449Q358.436 139.096 374.64 122.037Z"/>
	<path fill="#415572" d="M342.81 918.084C339.15 914.614 335.993 910.586 336.007 905.294C336.016 901.835 337.208 898.187 339.829 895.832C345.753 890.509 357.256 892.177 364.571 892.729C370.003 893.91 376.823 893.366 382.446 893.523C401.405 894.051 420.319 894.07 439.285 894.066L603.014 894.061C610.485 894.06 674.972 894.8 677.459 893.421C683.344 892.453 695.634 891.904 700.564 895.309C703.103 897.062 704.717 899.785 705.25 902.803C705.981 906.943 704.745 911.37 702.173 914.677C701.026 916.153 699.563 917.261 698.081 918.379C709.619 918.941 721.207 918.62 732.752 918.553L774.138 918.531L821.89 918.117C827.704 918.091 833.599 918.842 839.373 918.551C841.334 920.036 843.097 921.436 844.195 923.693C845.49 926.35 846.216 929.832 845.175 932.689C844.41 934.789 842.652 936.426 840.622 937.308C837.993 938.45 834.403 938.643 831.546 938.738C819.121 939.152 806.449 938.591 793.997 938.594L709.324 938.585L455.446 938.554L219.903 938.57L151.883 938.573C139.012 938.602 126.077 938.915 113.211 938.626C110.864 938.574 107.29 938.674 105.204 937.579C102.69 936.259 100.797 933.482 99.9967 930.806C99.2821 928.418 99.5356 925.479 100.839 923.329C106.757 913.574 132.605 920.767 141.685 917.923C141.871 917.864 142.046 917.772 142.226 917.697L142.797 918.278C168.984 918.37 195.227 917.864 221.403 918.298L303.145 918.522C316.236 918.522 329.787 919.404 342.81 918.084Z"/>
	<path fill="#1D3048" d="M342.81 918.084C339.15 914.614 335.993 910.586 336.007 905.294C336.016 901.835 337.208 898.187 339.829 895.832C345.753 890.509 357.256 892.177 364.571 892.729C370.003 893.91 376.823 893.366 382.446 893.523C401.405 894.051 420.319 894.07 439.285 894.066L603.014 894.061C610.485 894.06 674.972 894.8 677.459 893.421C683.344 892.453 695.634 891.904 700.564 895.309C703.103 897.062 704.717 899.785 705.25 902.803C705.981 906.943 704.745 911.37 702.173 914.677C701.026 916.153 699.563 917.261 698.081 918.379C691.479 916.669 677.55 917.958 670.249 917.972L608.307 917.995L436.69 917.982Q396.98 917.678 357.274 918.366C352.446 918.402 347.634 918.013 342.81 918.084Z"/>
	<path fill="#E26B6C" d="M754.957 86.2592C788.496 85.3241 822.318 86.0947 855.877 86.2276Q870.941 86.3342 886.005 86.2571C893.032 86.2045 900.337 85.7633 907.324 86.5355C910.587 86.8962 913.46 87.8189 916.066 89.8873C919.2 92.3756 919.863 94.8929 920.334 98.701C921.334 106.788 920.778 115.358 920.67 123.518Q920.414 140.72 920.463 157.923C920.459 169.957 920.377 182.001 920.522 194.034C920.61 201.335 921.277 209 920.605 216.265C920.291 219.67 919.468 223.26 917.225 225.947C913.642 230.239 908.589 230.6 903.416 230.929L801.892 230.936L769.417 230.999C763.358 231.019 757.195 231.307 751.152 230.883C748.064 230.666 745.201 230.445 742.626 228.568C738.718 225.722 736.977 222.156 736.243 217.441C735.248 211.049 735.823 204.089 735.932 197.626Q736.159 185.529 736.087 173.43L736.021 128.059C735.994 120.098 735.468 111.963 736.084 104.027C736.384 100.177 736.976 94.8761 739.454 91.8121C743.401 86.934 749.201 86.6824 754.957 86.2592Z"/>
	<path fill="#F6F8FA" d="M765.93 101.394C767.619 101.508 768.561 101.907 769.969 102.792C770.526 103.814 770.773 104.104 770.582 105.307C769.863 109.841 762.891 114.872 759.43 117.463C757.801 117.571 756.828 117.299 755.438 116.451C755.102 115.594 754.882 115.351 755.024 114.403C755.731 109.654 762.298 104.187 765.93 101.394Z"/>
	<path fill="#F6F8FA" d="M809.233 124.488C810.366 124.537 811.526 124.6 812.633 124.866C819.331 126.477 854.649 147.586 857.413 152.944C858.548 155.145 858.839 158.174 858.098 160.542C855.796 167.9 844.205 172.629 837.773 175.854C828.427 180.952 820.866 188.012 809.862 189.361C805.783 187.66 803.619 185.858 801.477 181.977C801.606 170.33 799.631 139.861 802.493 130.328C803.419 127.246 806.633 125.921 809.233 124.488Z"/>
	<path fill="#415572" d="M234.993 491.25L274.941 491.266L274.965 645.476Q201.357 645.07 127.75 645.624L86.5002 645.715L86.2903 491.536L234.993 491.25Z"/>
	<path fill="#93C5DC" d="M96.6121 501.49L265.006 501.518L264.967 635.494L96.5893 635.487L96.6121 501.49Z"/>
	<path fill="#F6F8FA" d="M215.57 547.988C218.298 547.981 220.915 548.06 223.006 550.055C226.519 553.408 226.018 559.514 226.029 563.954C230.362 563.956 235.131 563.923 238.59 566.959C240.077 568.264 241.106 570.085 241.125 572.096C241.143 573.961 240.285 575.759 238.945 577.033C235.284 580.514 230.364 580.313 225.684 580.199C225.689 583.146 225.975 586.545 225.289 589.414C224.507 592.685 223.011 594.346 220.156 596.008Q219.119 596.02 218.083 595.998C215.608 595.935 213.292 595.458 211.59 593.507C208.654 590.139 209.478 584.609 209.732 580.508C205.161 580.614 200.344 580.756 196.631 577.595C195.243 576.414 194.019 574.496 194.038 572.61C194.058 570.664 194.756 569.024 196.125 567.637C199.671 564.046 204.795 564.017 209.484 563.931C209.397 559.746 209.383 556.138 210.814 552.126C212.242 550.538 213.895 549.298 215.57 547.988Z"/>
	<path fill="#F6F8FA" d="M140.773 547.381C143.411 547.704 145.923 548.267 147.803 550.295C151.069 553.816 150.546 559.549 150.508 563.973C154.847 563.903 159.42 563.783 162.92 566.804C164.399 568.081 165.424 569.9 165.486 571.879C165.547 573.833 164.701 575.599 163.35 576.977C159.993 580.399 154.912 580.286 150.488 580.238C150.577 583.989 151.086 588.47 149.353 591.923C148.035 594.547 145.832 595.596 143.194 596.553C142.915 596.552 142.635 596.555 142.356 596.549C140.242 596.501 138.216 595.675 136.78 594.099C133.518 590.522 134.153 584.717 134.312 580.27C129.814 580.419 125.337 580.737 121.621 577.666C120.073 576.387 118.979 574.559 118.854 572.529C118.73 570.511 119.588 568.655 120.999 567.246C124.484 563.767 129.556 563.985 134.092 564C134.404 560.309 134.429 556.574 134.547 552.871C136.468 550.632 138.317 549.006 140.773 547.381Z"/>
	<path fill="#197774" d="M751.33 414.136C773.878 413.595 796.548 414.055 819.108 414.055L938.467 414.118L938.208 572.555C937.558 573.146 936.946 573.158 936.101 573.18C918.983 573.636 901.716 572.883 884.578 572.87L751.489 572.926L751.33 414.136Z"/>
	<path fill="#4BBCA5" d="M841.882 424.247C870.557 424.237 899.335 423.708 927.997 424.338L928.01 563.004L852.75 563.013L761.495 563.01L761.713 424.496C788.422 424.514 815.182 424.838 841.882 424.247Z"/>
	<path fill="#F6F8FA" d="M785.292 435.826Q785.853 435.935 786.41 436.063C788.619 436.578 790.537 437.499 791.713 439.541Q791.854 439.787 791.969 440.047Q792.084 440.307 792.172 440.578Q792.259 440.848 792.318 441.126Q792.376 441.404 792.406 441.687Q792.435 441.969 792.435 442.253Q792.435 442.538 792.405 442.82Q792.375 443.103 792.316 443.381Q792.257 443.659 792.169 443.929C791.451 446.138 789.869 447.007 787.986 448.107C785.771 448.032 783.16 447.736 781.67 445.843C780.762 444.69 780.437 443.503 780.612 442.056C780.97 439.092 783.026 437.472 785.292 435.826Z"/>
	<path fill="#F6F8FA" d="M792.31 517.25C800.19 516.882 836.273 515.412 841.225 518.573C842.453 519.356 843.125 521.066 843.369 522.442C843.657 524.067 843.488 525.459 842.4 526.771C840.679 528.847 837.624 529.262 835.125 529.309C825.638 529.186 792.743 530.996 786.274 527.834C784.81 527.118 783.685 525.875 783.275 524.279C782.878 522.738 783.082 520.845 784.141 519.604C786.126 517.275 789.522 517.334 792.31 517.25Z"/>
	<path fill="#F6F8FA" d="M798.593 490.266C818.426 489.517 838.373 489.998 858.215 490.216L908.498 490.307L908.497 501.685Q900.558 501.985 892.613 502.02L820.828 501.951C811.543 501.927 801.886 502.928 792.67 502.181C790.532 502.007 788.372 501.689 786.367 500.897C784.516 500.167 783.345 499.356 782.567 497.45C782.567 495.184 783.741 493.607 785.326 492.074C788.282 489.215 794.723 490.19 798.593 490.266Z"/>
	<path fill="#F6F8FA" d="M792.032 464.74C805.574 464.108 819.29 464.976 832.859 464.995L908.849 464.737Q908.556 471.368 908.497 478.005L901.25 478.02C875.176 478.144 849.032 477.845 822.96 477.534C813.191 477.417 803.244 478.107 793.505 477.549C791.359 477.426 788.852 477.198 786.943 476.117C785.408 475.247 783.874 473.576 783.584 471.788C783.367 470.447 783.96 469.161 784.78 468.138C786.813 465.602 788.929 465.119 792.032 464.74Z"/>
	<path fill="#1D3048" d="M632.334 195.602C642.694 198.987 651.522 204.862 659.434 212.306C675.813 227.714 686.017 248.066 686.65 270.702C687.403 297.616 676.344 313.636 658.617 332.492L658.952 388.003L659.142 409.52C659.204 414.006 659.67 418.864 658.929 423.292C658.5 425.852 657.649 428.524 655.746 430.388C654.06 432.039 652.054 432.676 649.732 432.516C647.988 432.395 646.402 431.785 644.779 431.186C643.312 429.437 642.686 428.12 642.328 425.849C640.836 416.372 641.956 405.748 641.998 396.136L642.013 340.222L492.138 340.177C460.745 340.178 429.317 339.86 397.928 340.197L398.006 395.41C398.033 404.931 398.826 415.07 397.737 424.505C397.447 427.026 397.008 429.527 395.183 431.419C394.972 431.638 394.751 431.848 394.534 432.063C392.845 432.556 391.084 433.138 389.312 433.201Q388.876 433.214 388.441 433.183Q388.006 433.152 387.577 433.076Q387.147 433.001 386.728 432.882Q386.308 432.763 385.903 432.602Q385.498 432.441 385.111 432.24Q384.724 432.038 384.36 431.798Q383.996 431.558 383.659 431.283Q383.321 431.007 383.013 430.698C376.617 424.31 379.362 399.702 379.671 390.779C380.303 383.025 379.631 374.612 379.612 366.794Q379.66 340.087 379.308 313.383C379.076 291.48 381.867 271.253 398.001 254.965Q399.638 253.287 401.392 251.731Q403.147 250.176 405.009 248.751Q406.87 247.326 408.83 246.039Q410.79 244.753 412.838 243.611Q414.886 242.469 417.011 241.478Q419.135 240.487 421.326 239.652Q423.517 238.817 425.762 238.142Q428.008 237.468 430.296 236.957C441.169 234.488 452.348 235.002 463.418 235.067L493.364 235.2L598.358 235.018C611.899 223.896 622.453 209.917 632.334 195.602Z"/>
	<path fill="#4BBCA5" d="M479.999 562.292L480.522 562.376C487.398 563.537 494.054 565.853 500.927 567.09C513.88 569.423 528.31 570.118 541.31 567.72C547.775 566.527 554.111 564.62 560.594 563.571C560.658 569.436 560.535 575.372 560.987 581.22C571.811 581.165 582.68 580.904 593.499 581.265Q612.007 581.471 630.516 581.434C653.683 581.278 678.212 578.614 695.955 596.608C709.241 610.083 721.518 646.109 729.076 664.377L755.398 727.436C759.363 736.841 762.86 746.467 767.269 755.675C754.442 762.996 730.612 769.979 715.691 775.292C708.773 777.755 701.271 781.298 694.151 782.917C691.212 783.351 688.815 783.367 685.911 782.633L686.501 717.249C686.567 706.365 687.68 694.889 685.948 684.123C685.211 679.544 683.818 675.053 680.599 671.582C675.407 665.984 668.358 665.457 661.216 665.302L660.704 665.338C653.969 665.756 647.01 665.091 640.242 665.049L595.415 665.017L446.214 665.038L404.908 664.98C395.002 664.955 384.686 664.394 374.876 665.898C369.632 666.701 364.658 669.027 361.057 673.004C358.175 676.187 357.183 680.45 356.558 684.594C355.136 694.029 355.915 704.316 355.971 713.844C356.045 726.503 355.838 739.196 356.149 751.85C356.248 755.872 357.58 765.472 356.173 768.834C353.944 773.852 351.805 779.163 349.204 783.995C335.605 778.344 321.475 774.357 307.561 769.598C297.939 766.307 287.097 760.791 276.94 759.882C289.936 727.075 304.179 694.719 317.839 662.184L332.234 627.419C335.005 620.729 337.597 613.805 340.912 607.364C343.288 602.749 346.235 598.569 349.911 594.892C366.864 577.932 388.407 580.129 410.338 580.422L446.467 580.555C457.625 580.529 468.815 580.284 479.951 581.112C480.64 575.007 480.109 568.436 479.999 562.292Z"/>
	<path fill="#197774" d="M479.999 562.292L480.522 562.376C487.398 563.537 494.054 565.853 500.927 567.09C513.88 569.423 528.31 570.118 541.31 567.72C547.775 566.527 554.111 564.62 560.594 563.571C560.658 569.436 560.535 575.372 560.987 581.22C571.811 581.165 582.68 580.904 593.499 581.265C593.547 581.396 593.602 581.525 593.642 581.658C596.433 590.869 589.913 609.266 585.514 617.605C576.482 634.729 562.582 647.169 543.972 652.906Q543.06 653.189 542.142 653.449Q541.223 653.71 540.298 653.947Q539.374 654.185 538.443 654.399Q537.513 654.613 536.577 654.804Q535.642 654.995 534.702 655.163Q533.762 655.331 532.818 655.475Q531.875 655.62 530.928 655.741Q529.981 655.862 529.031 655.959Q528.081 656.056 527.129 656.13Q526.177 656.203 525.224 656.253Q524.27 656.303 523.316 656.329Q522.362 656.356 521.407 656.358Q520.452 656.36 519.497 656.339Q518.543 656.318 517.589 656.273Q516.636 656.228 515.683 656.159Q514.731 656.09 513.781 655.998Q512.831 655.906 511.883 655.79Q510.935 655.674 509.991 655.534Q509.046 655.395 508.106 655.232Q507.165 655.069 506.228 654.882Q505.292 654.696 504.361 654.486Q503.429 654.277 502.503 654.044Q501.577 653.812 500.657 653.556Q499.737 653.3 498.824 653.022Q497.911 652.744 497.005 652.443Q496.099 652.141 495.201 651.818Q494.302 651.494 493.412 651.149Q492.522 650.803 491.641 650.435Q490.76 650.068 489.889 649.678Q489.017 649.288 488.155 648.877Q487.294 648.466 486.442 648.034Q485.591 647.601 484.751 647.148C466.474 637.295 453.635 620.541 447.851 600.716C446.268 595.288 443.618 585.791 446.467 580.555C457.625 580.529 468.815 580.284 479.951 581.112C480.64 575.007 480.109 568.436 479.999 562.292Z"/>
	<path fill="#FCC8A6" d="M479.999 562.292L480.522 562.376C487.398 563.537 494.054 565.853 500.927 567.09C513.88 569.423 528.31 570.118 541.31 567.72C547.775 566.527 554.111 564.62 560.594 563.571C560.658 569.436 560.535 575.372 560.987 581.22L561.031 583.576C560.664 595.027 558.985 605.318 550.705 613.892C543.04 621.828 531.921 625.896 521.008 626.077C509.844 626.262 498.512 622.373 490.505 614.429C481.247 605.244 480.001 594.096 480.016 581.649L479.951 581.112C480.64 575.007 480.109 568.436 479.999 562.292Z"/>
	<path fill="#F69F92" d="M479.999 562.292L480.522 562.376C487.398 563.537 494.054 565.853 500.927 567.09C513.88 569.423 528.31 570.118 541.31 567.72C547.775 566.527 554.111 564.62 560.594 563.571C560.658 569.436 560.535 575.372 560.987 581.22L561.031 583.576C554.971 583.764 545.35 588.97 538.46 590.338C523.534 593.302 507.263 591.653 492.921 586.758C488.706 585.32 484.839 582.665 480.482 581.738C480.328 581.705 480.172 581.679 480.016 581.649L479.951 581.112C480.64 575.007 480.109 568.436 479.999 562.292Z"/>
	<path fill="#FCC8A6" d="M397.928 340.197C429.317 339.86 460.745 340.178 492.138 340.177L642.013 340.222L641.998 396.136C641.956 405.748 640.836 416.372 642.328 425.849C642.686 428.12 643.312 429.437 644.779 431.186C645.384 439.614 645.377 452.366 642.699 460.34C636.554 496.96 622.057 526.321 591.246 548.429C581.858 555.165 571.736 560.462 560.594 563.571C554.111 564.62 547.775 566.527 541.31 567.72C528.31 570.118 513.88 569.423 500.927 567.09C494.054 565.853 487.398 563.537 480.522 562.376L479.999 562.292C469.442 558.095 459.134 553.27 449.568 547.101C421.442 528.962 402.237 499.513 395.196 466.974C393.379 455.615 393.544 443.518 394.534 432.063C394.751 431.848 394.972 431.638 395.183 431.419C397.008 429.527 397.447 427.026 397.737 424.505C398.826 415.07 398.033 404.931 398.006 395.41L397.928 340.197Z"/>
	<path fill="#1D3048" d="M591.58 371.75C596.038 371.719 600.843 371.497 605.264 372.048C608.503 372.451 611.426 373.119 613.49 375.805C613.573 377.462 612.66 378.737 611.544 379.894C608.827 382.71 604.053 381.889 600.444 381.964C594.428 382.013 587.099 382.741 581.317 381.137C579.679 380.682 577.766 379.818 577.119 378.105C576.288 375.906 577.899 373.868 578.981 372.083Q585.277 371.788 591.58 371.75Z"/>
	<path fill="#1D3048" d="M435.786 371.77C442.586 371.454 460.261 370.153 465.419 373.991C466.623 374.888 466.666 375.241 466.966 376.623C466.696 377.684 466.284 378.38 465.607 379.224C463.962 381.272 462.689 381.524 460.195 381.775C453.072 382.215 438.138 383.738 432.249 380.1C431.237 379.475 430.372 378.559 430.254 377.322C430.131 376.029 430.863 374.3 431.67 373.287C432.704 371.989 434.258 371.964 435.786 371.77Z"/>
	<path fill="#F6F8FA" d="M449.601 396.588C454.131 396.203 458.822 396.628 463.057 398.348Q463.652 398.596 464.234 398.873Q464.816 399.15 465.383 399.456Q465.95 399.762 466.501 400.096Q467.052 400.431 467.586 400.792Q468.119 401.154 468.634 401.542Q469.148 401.929 469.643 402.343Q470.137 402.756 470.61 403.194Q471.083 403.631 471.534 404.092Q471.984 404.553 472.411 405.036Q472.838 405.519 473.24 406.023Q473.641 406.527 474.017 407.05Q474.393 407.574 474.743 408.116Q475.092 408.657 475.413 409.216Q475.735 409.774 476.028 410.348Q476.321 410.922 476.584 411.51Q476.848 412.098 477.082 412.699C479.516 419.031 479.391 426.409 476.387 432.527C472.725 439.983 466.278 443.737 458.783 446.324C452.664 446.754 447.188 446.685 441.683 443.492C435.696 440.021 431.289 433.847 429.703 427.135Q429.559 426.514 429.445 425.887Q429.332 425.259 429.249 424.627Q429.167 423.995 429.115 423.36Q429.063 422.725 429.043 422.087Q429.022 421.45 429.033 420.813Q429.043 420.176 429.085 419.539Q429.127 418.903 429.2 418.27Q429.272 417.637 429.376 417.008Q429.48 416.379 429.614 415.756Q429.748 415.132 429.913 414.517Q430.078 413.901 430.272 413.294Q430.467 412.687 430.691 412.09Q430.915 411.493 431.167 410.908Q431.42 410.323 431.701 409.75Q431.983 409.178 432.292 408.621Q432.6 408.063 432.936 407.521C436.858 401.303 442.684 398.282 449.601 396.588Z"/>
	<path fill="#1D3048" d="M450.755 405.601C454.016 405.209 457.459 405.458 460.489 406.771Q461.221 407.088 461.917 407.477Q462.612 407.866 463.266 408.323Q463.919 408.781 464.522 409.302Q465.126 409.823 465.674 410.402Q466.222 410.981 466.708 411.613Q467.195 412.244 467.616 412.922Q468.036 413.599 468.386 414.315Q468.736 415.032 469.012 415.78C470.515 419.796 470.419 424.523 468.566 428.411C466.227 433.32 462.197 435.585 457.356 437.44C453.725 437.931 450.223 437.701 446.837 436.214Q446.099 435.89 445.399 435.492Q444.699 435.094 444.043 434.626Q443.387 434.158 442.783 433.625Q442.179 433.092 441.633 432.5Q441.087 431.908 440.604 431.263Q440.122 430.618 439.709 429.926Q439.295 429.235 438.955 428.505Q438.615 427.774 438.352 427.013Q438.078 426.238 437.885 425.439Q437.692 424.64 437.581 423.825Q437.47 423.011 437.442 422.189Q437.414 421.367 437.471 420.547Q437.527 419.727 437.666 418.917Q437.806 418.107 438.027 417.315Q438.248 416.523 438.549 415.758Q438.849 414.993 439.226 414.262C441.737 409.421 445.756 407.141 450.755 405.601Z"/>
	<path fill="#F6F8FA" d="M449.231 406.967C450.311 406.947 451.439 406.897 452.513 407.026C454.123 407.219 455.817 408.465 456.633 409.831C457.33 410.998 457.43 412.182 457.1 413.475C456.5 415.822 455.199 416.893 453.221 418.148C452.708 418.286 452.609 418.344 451.999 418.331C450.556 418.3 448.537 417.71 447.549 416.644C446.436 415.443 445.99 413.803 446.114 412.192C446.296 409.839 447.511 408.435 449.231 406.967Z"/>
	<path fill="#F6F8FA" d="M586.668 397.554C592.339 397.332 597.534 397.546 602.667 400.334C608.27 403.377 612.19 408.788 613.843 414.9C615.649 421.579 614.598 429.205 611.092 435.174C607.064 442.033 600.879 445.502 593.469 447.583C588.199 448.068 583.185 447.645 578.407 445.141C572.258 441.918 567.753 436.012 565.819 429.383C563.896 422.792 564.492 416.138 567.966 410.156C572.254 402.772 578.874 399.745 586.668 397.554Z"/>
	<path fill="#1D3048" d="M587.547 406.089C590.958 405.948 594.148 406.244 597.256 407.769Q598 408.132 598.703 408.568Q599.407 409.004 600.063 409.508Q600.72 410.012 601.323 410.579Q601.926 411.146 602.469 411.77Q603.012 412.395 603.49 413.07Q603.969 413.746 604.377 414.466Q604.786 415.185 605.12 415.942Q605.455 416.699 605.712 417.486Q605.962 418.249 606.133 419.033Q606.303 419.818 606.391 420.616Q606.479 421.414 606.484 422.217Q606.489 423.02 606.411 423.819Q606.333 424.618 606.172 425.405Q606.012 426.192 605.771 426.957Q605.53 427.723 605.211 428.46Q604.892 429.197 604.499 429.897C601.735 434.796 597.28 436.979 592.105 438.479C588.498 438.601 585.023 438.245 581.746 436.618C577.868 434.692 574.919 431.313 573.711 427.135Q573.488 426.353 573.344 425.553Q573.201 424.753 573.138 423.942Q573.076 423.131 573.095 422.318Q573.114 421.506 573.215 420.699Q573.316 419.892 573.497 419.099Q573.678 418.307 573.938 417.536Q574.198 416.766 574.534 416.025Q574.87 415.285 575.278 414.582C578.049 409.814 582.421 407.578 587.547 406.089Z"/>
	<path fill="#F6F8FA" d="M585.818 406.897C588.269 406.852 590.482 406.792 592.606 408.188C593.915 409.049 594.858 410.27 595.021 411.88C595.309 414.707 593.442 416.631 591.661 418.536C589.145 418.584 586.783 418.5 584.726 416.86C583.602 415.964 582.901 414.752 582.792 413.297C582.588 410.573 584.191 408.858 585.818 406.897Z"/>
	<path fill="#F6F8FA" d="M477.042 467.254C489.142 466.705 501.341 466.987 513.453 466.99L573.181 467.015C571.123 481.971 567.129 493.365 556.695 504.531C546.567 513.942 532.422 520.448 518.401 519.901C506.609 519.441 494.283 514.522 486.257 505.718C476.295 494.793 476.337 481.189 477.042 467.254Z"/>
	<path fill="#666979" d="M356.173 768.834C357.58 765.472 356.248 755.872 356.149 751.85C355.838 739.196 356.045 726.503 355.971 713.844C355.915 704.316 355.136 694.029 356.558 684.594C357.183 680.45 358.175 676.187 361.057 673.004C364.658 669.027 369.632 666.701 374.876 665.898C384.686 664.394 395.002 664.955 404.908 664.98L446.214 665.038L595.415 665.017L640.242 665.049C647.01 665.091 653.969 665.756 660.704 665.338L661.216 665.302C668.358 665.457 675.407 665.984 680.599 671.582C683.818 675.053 685.211 679.544 685.948 684.123C687.68 694.889 686.567 706.365 686.501 717.249L685.911 782.633C685.047 789.966 684.693 799.324 685.966 806.581C684.32 820.111 686.477 834.833 686.589 848.489C686.664 857.771 685.385 867.383 685.913 876.581C685.203 883.81 682.61 888.426 677.459 893.421C674.972 894.8 610.485 894.06 603.014 894.061L439.285 894.066C420.319 894.07 401.405 894.051 382.446 893.523C376.823 893.366 370.003 893.91 364.571 892.729C362.042 890.41 358.275 887.528 357.101 884.284C356.452 882.49 356.175 880.436 355.072 878.863C357.51 871.637 355.956 861.954 356.37 854.329C355.591 850.281 355.947 845.677 355.966 841.551C356.021 830.093 357.099 815.673 355.833 804.487C351.272 802.879 346.437 802.146 341.916 800.419C342.466 798.76 343.137 797.128 343.756 795.493C345.423 791.604 347.37 787.809 349.204 783.995C351.805 779.163 353.944 773.852 356.173 768.834ZM356.173 768.834C353.944 773.852 351.805 779.163 349.204 783.995C347.37 787.809 345.423 791.604 343.756 795.493C343.137 797.128 342.466 798.76 341.916 800.419C346.437 802.146 351.272 802.879 355.833 804.487C356.95 792.733 356.797 780.622 356.173 768.834Z"/>
	<path fill="#F6F8FA" d="M520.036 761.231C524.186 761.215 528 762.005 531.539 764.262C535.982 767.095 538.864 771.746 539.826 776.889Q539.917 777.376 539.982 777.867Q540.048 778.358 540.09 778.852Q540.131 779.346 540.147 779.841Q540.163 780.337 540.154 780.832Q540.146 781.328 540.112 781.822Q540.079 782.316 540.02 782.808Q539.962 783.3 539.879 783.789Q539.796 784.277 539.688 784.761Q539.58 785.245 539.449 785.723Q539.317 786.2 539.161 786.671Q539.006 787.141 538.827 787.603Q538.647 788.065 538.445 788.518Q538.243 788.97 538.019 789.412Q537.794 789.854 537.548 790.283Q537.301 790.713 537.033 791.13Q536.766 791.547 536.477 791.95C532.833 797.004 527.822 799.257 521.864 800.297C517.302 800.499 513.023 799.472 509.264 796.78C504.887 793.646 502.095 788.921 501.291 783.614C500.502 778.41 501.744 773.016 505.007 768.849C508.883 763.899 513.998 761.97 520.036 761.231Z"/>
	<path fill="#415572" d="M661.216 665.302C668.358 665.457 675.407 665.984 680.599 671.582C683.818 675.053 685.211 679.544 685.948 684.123C687.68 694.889 686.567 706.365 686.501 717.249L685.911 782.633C685.047 789.966 684.693 799.324 685.966 806.581C684.32 820.111 686.477 834.833 686.589 848.489C686.664 857.771 685.385 867.383 685.913 876.581C685.203 883.81 682.61 888.426 677.459 893.421C674.972 894.8 610.485 894.06 603.014 894.061L439.285 894.066C420.319 894.07 401.405 894.051 382.446 893.523C376.823 893.366 370.003 893.91 364.571 892.729C362.042 890.41 358.275 887.528 357.101 884.284C356.452 882.49 356.175 880.436 355.072 878.863C357.51 871.637 355.956 861.954 356.37 854.329C358.128 856.536 359.524 858.927 361.433 861.055C366.682 866.908 372.443 868.258 379.958 868.662C387.624 869.074 395.314 868.641 402.982 868.534C411.84 868.411 420.708 868.496 429.566 868.495L539.332 868.505Q574.206 868.341 609.077 868.878C623.744 869.016 639.16 869.91 653.741 868.39C657.607 867.987 660.686 866.454 663.522 863.796C667.895 859.696 668.591 851.006 668.856 845.344C669.404 833.617 668.982 821.679 668.967 809.927L668.951 745.62L669.012 703.966C669.021 695.299 669.664 685.893 668.143 677.348C667.247 672.319 664.542 668.952 661.216 665.302Z"/>
</svg>
