<?xml version="1.0" encoding="utf-8" ?>
<svg xmlns="http://www.w3.org/2000/svg" xmlns:xlink="http://www.w3.org/1999/xlink" width="1024" height="1024">
	<path fill="#F4B38C" d="M869.097 610.62C871.764 610.398 874.246 610.425 876.791 611.373Q877.411 611.6 878.004 611.888Q878.598 612.177 879.159 612.524Q879.721 612.871 880.244 613.273Q880.767 613.675 881.248 614.127Q881.728 614.58 882.16 615.079Q882.592 615.578 882.971 616.118Q883.35 616.658 883.673 617.233Q883.996 617.809 884.259 618.414Q884.534 619.055 884.743 619.72Q884.952 620.385 885.092 621.068Q885.233 621.75 885.304 622.444Q885.375 623.137 885.376 623.834Q885.377 624.531 885.307 625.225Q885.238 625.919 885.099 626.602Q884.959 627.285 884.752 627.95Q884.544 628.616 884.271 629.257C882.428 633.484 879.058 635.914 874.836 637.451C872.665 637.547 870.473 637.531 868.381 636.868Q867.693 636.652 867.031 636.365Q866.37 636.078 865.742 635.724Q865.114 635.369 864.527 634.951Q863.94 634.532 863.4 634.054Q862.86 633.577 862.373 633.045Q861.886 632.513 861.457 631.933Q861.029 631.353 860.663 630.731Q860.298 630.11 860 629.453Q859.709 628.81 859.486 628.141Q859.262 627.472 859.109 626.783Q858.955 626.095 858.873 625.394Q858.791 624.693 858.781 623.988Q858.772 623.282 858.835 622.58Q858.897 621.877 859.032 621.184Q859.167 620.492 859.372 619.817Q859.577 619.141 859.85 618.491C861.677 614.206 864.908 612.198 869.097 610.62Z"/>
	<path fill="#ADD3F6" d="M681.647 465.653C684.324 465.966 686.962 466.338 689.357 467.661Q689.987 468.004 690.578 468.41Q691.169 468.815 691.717 469.279Q692.264 469.742 692.761 470.259Q693.258 470.776 693.7 471.34Q694.142 471.905 694.525 472.511Q694.907 473.118 695.226 473.76Q695.544 474.403 695.796 475.074Q696.048 475.745 696.23 476.439C697.21 480.135 696.743 484.385 694.767 487.683C692.178 492.005 688.697 493.556 684.044 494.686C681.835 494.517 679.585 494.134 677.539 493.249C674.01 491.722 671.201 488.627 669.918 485.019Q669.667 484.319 669.49 483.596Q669.312 482.874 669.21 482.137Q669.107 481.4 669.081 480.657Q669.055 479.913 669.104 479.171Q669.154 478.429 669.28 477.696Q669.406 476.963 669.606 476.246Q669.806 475.53 670.078 474.838Q670.351 474.146 670.693 473.485C673.072 468.928 676.946 467.023 681.647 465.653Z"/>
	<path fill="#ADD3F6" d="M794.134 248.589C796.98 248.443 799.845 248.187 802.604 249.073Q803.3 249.293 803.971 249.582Q804.642 249.871 805.281 250.226Q805.919 250.58 806.519 250.998Q807.118 251.415 807.673 251.89Q808.227 252.365 808.731 252.894Q809.235 253.423 809.683 253.999Q810.132 254.576 810.52 255.195Q810.908 255.813 811.232 256.468Q811.566 257.146 811.832 257.853Q812.098 258.561 812.294 259.291Q812.491 260.02 812.615 260.766Q812.74 261.511 812.791 262.265Q812.843 263.019 812.821 263.775Q812.799 264.53 812.704 265.28Q812.609 266.03 812.442 266.767Q812.274 267.504 812.036 268.221C810.397 272.997 806.877 275.829 802.428 277.875C799.904 278.07 797.418 278.176 794.952 277.485Q794.253 277.29 793.577 277.027Q792.901 276.763 792.255 276.433Q791.608 276.104 790.998 275.711Q790.388 275.319 789.819 274.868Q789.251 274.416 788.731 273.911Q788.211 273.405 787.743 272.85Q787.276 272.295 786.867 271.696Q786.457 271.097 786.109 270.46Q785.731 269.768 785.424 269.041Q785.117 268.315 784.886 267.561Q784.654 266.807 784.5 266.033Q784.345 265.26 784.27 264.475Q784.194 263.69 784.198 262.901Q784.202 262.113 784.286 261.328Q784.37 260.544 784.532 259.772Q784.695 259 784.934 258.249C786.533 253.38 789.825 250.879 794.134 248.589Z"/>
	<path fill="#ADD3F6" d="M408.524 91.6518C411.929 91.2169 414.992 91.0573 418.172 92.5645C421.712 94.2423 424.268 97.2247 425.5 100.939C426.858 105.034 426.605 109.678 424.551 113.503C422.411 117.489 419 119.719 414.755 120.979C412.315 121.079 409.838 121.221 407.493 120.419C403.466 119.042 400.207 116.175 398.476 112.266Q398.159 111.543 397.918 110.791Q397.678 110.039 397.517 109.267Q397.356 108.494 397.275 107.709Q397.195 106.923 397.197 106.134Q397.199 105.345 397.283 104.56Q397.367 103.775 397.531 103.003Q397.696 102.231 397.94 101.48Q398.184 100.729 398.505 100.008C400.554 95.4437 404.095 93.3826 408.524 91.6518Z"/>
	<path fill="#ADD3F6" d="M201.375 534.556C204.258 534.306 207.025 534.445 209.764 535.465C213.416 536.824 216.375 539.528 217.932 543.114Q218.252 543.862 218.493 544.639Q218.734 545.416 218.893 546.213Q219.053 547.011 219.13 547.821Q219.207 548.631 219.2 549.444Q219.193 550.257 219.103 551.066Q219.013 551.874 218.84 552.669Q218.667 553.464 218.413 554.237Q218.159 555.009 217.827 555.752C215.638 560.665 211.93 563.24 207.097 565.117C203.401 565.652 200.221 565.347 196.902 563.51C193.096 561.405 190.297 557.576 189.154 553.409C188.079 549.494 188.499 545.36 190.583 541.848C193.083 537.634 196.856 535.823 201.375 534.556Z"/>
	<path fill="#FB8075" d="M271.626 121.603C276.363 121.344 281.438 122.313 285.607 124.599C291.255 127.694 295.144 133.145 296.758 139.33Q296.919 139.958 297.049 140.593Q297.179 141.229 297.277 141.87Q297.375 142.511 297.441 143.156Q297.507 143.801 297.541 144.449Q297.575 145.096 297.577 145.745Q297.579 146.393 297.548 147.041Q297.518 147.688 297.455 148.334Q297.392 148.979 297.298 149.621Q297.203 150.262 297.077 150.898Q296.951 151.534 296.793 152.163Q296.635 152.792 296.446 153.413Q296.257 154.033 296.038 154.643Q295.819 155.254 295.569 155.852Q295.32 156.451 295.041 157.036Q294.762 157.621 294.454 158.192Q294.147 158.763 293.811 159.318C289.865 165.871 284.158 168.81 276.982 170.539C270.821 170.764 265.581 170.363 260.246 166.828Q259.747 166.496 259.265 166.141Q258.783 165.785 258.319 165.406Q257.855 165.027 257.41 164.626Q256.965 164.225 256.54 163.802Q256.116 163.379 255.713 162.937Q255.309 162.494 254.928 162.031Q254.547 161.569 254.189 161.089Q253.831 160.608 253.497 160.111Q253.163 159.614 252.854 159.101Q252.545 158.587 252.261 158.06Q251.978 157.532 251.72 156.991Q251.463 156.45 251.232 155.897Q251.002 155.344 250.799 154.78Q250.596 154.217 250.421 153.644Q250.246 153.071 250.099 152.49Q249.952 151.909 249.834 151.322Q249.712 150.702 249.62 150.077Q249.529 149.452 249.468 148.823Q249.407 148.194 249.376 147.563Q249.346 146.932 249.346 146.3Q249.347 145.668 249.378 145.037Q249.409 144.406 249.471 143.778Q249.533 143.149 249.625 142.524Q249.717 141.899 249.84 141.279Q249.963 140.659 250.116 140.046Q250.268 139.433 250.451 138.828Q250.633 138.224 250.845 137.628Q251.057 137.033 251.297 136.449Q251.538 135.865 251.806 135.293Q252.075 134.721 252.371 134.163Q252.667 133.605 252.99 133.062Q253.313 132.519 253.662 131.992C257.954 125.576 264.349 122.986 271.626 121.603Z"/>
	<path fill="#FEFEFE" d="M271.282 134.476C273.319 134.417 275.469 134.581 277.398 135.272C280.268 136.301 282.709 138.452 283.918 141.271Q284.146 141.814 284.319 142.378Q284.493 142.941 284.609 143.519Q284.725 144.097 284.784 144.683Q284.843 145.27 284.843 145.859Q284.843 146.449 284.785 147.035Q284.727 147.622 284.611 148.2Q284.494 148.777 284.322 149.341Q284.149 149.904 283.921 150.448C282.258 154.49 279.107 156.62 275.22 158.257C273.481 158.492 271.538 158.156 269.885 157.596C266.929 156.594 264.567 154.637 263.196 151.812C261.742 148.816 261.496 145.189 262.716 142.074C264.381 137.821 267.312 136.157 271.282 134.476Z"/>
	<path fill="#F9CFAB" d="M658.838 342.005C661.76 342.032 664.638 341.883 667.553 341.697C678.456 345.621 687.316 350.659 692.363 361.592Q692.733 362.408 693.063 363.241Q693.392 364.074 693.681 364.922Q693.969 365.77 694.216 366.632Q694.462 367.493 694.667 368.365Q694.871 369.237 695.032 370.119Q695.193 371 695.31 371.888Q695.428 372.776 695.502 373.669Q695.577 374.562 695.607 375.457Q695.637 376.353 695.624 377.248Q695.61 378.144 695.552 379.038Q695.495 379.932 695.394 380.822Q695.293 381.712 695.148 382.597Q695.004 383.481 694.816 384.357Q694.628 385.233 694.398 386.098Q694.167 386.964 693.895 387.818Q693.622 388.671 693.308 389.51C689.875 398.547 682.897 406.288 674.035 410.244C664.955 414.298 654.47 413.809 645.123 410.927L644.658 410.766C645.529 404.587 647.334 398.454 648.916 392.422C649.375 392.526 649.545 392.579 650.06 392.612C651.943 392.73 653.506 392.196 654.825 390.818C660.688 384.697 659.035 364.419 658.987 355.915L658.838 342.005Z"/>
	<path fill="#F4B38C" d="M658.987 355.915C665.018 356.302 670.108 358.321 674.185 362.941C678.202 367.493 679.95 373.339 679.523 379.372C679.008 386.661 675.304 392.558 669.837 397.179Q665.479 400.819 660.455 403.466C656.974 405.3 647.202 408.259 645.123 410.927L644.658 410.766C645.529 404.587 647.334 398.454 648.916 392.422C649.375 392.526 649.545 392.579 650.06 392.612C651.943 392.73 653.506 392.196 654.825 390.818C660.688 384.697 659.035 364.419 658.987 355.915Z"/>
	<path fill="#BF3C41" d="M302.232 659.378C304.369 667.586 304.471 687.675 305.117 697.169L311.835 794.319L313.767 822.654C314.107 827.666 314.057 833.118 315.026 838.041C306.443 837.735 298.078 837.311 289.55 838.603C284.71 838.394 280.019 837.544 275.543 835.65C264.511 830.982 255.8 820.841 251.433 809.839Q250.78 808.218 250.242 806.555Q249.705 804.891 249.287 803.194Q248.868 801.497 248.571 799.775Q248.274 798.052 248.099 796.313Q247.924 794.574 247.872 792.827Q247.821 791.08 247.893 789.333Q247.965 787.587 248.16 785.85Q248.355 784.113 248.673 782.394C251.344 768.592 260.487 752.951 266.305 739.954L302.232 659.378Z"/>
	<path fill="#BF3C41" d="M722.887 660.881C729.304 670.006 733.292 681.691 737.763 691.9Q750.046 719.798 761.896 747.883C766.621 758.983 772.86 770.236 776.132 781.837C777.909 788.137 778.122 793.845 777.033 800.315C774.832 813.399 767.388 824.458 756.569 832.022C751.468 835.589 742.861 840.298 736.607 840.803C727.119 836.362 715.544 837.326 705.376 837.998C705.521 826.999 707.078 816.052 708.243 805.127L712.518 763.187C716.061 729.134 718.638 694.842 722.887 660.881Z"/>
	<path fill="#4FD198" d="M780.203 390.692C781.132 390.578 782.088 390.578 783.023 390.547C790.683 390.288 798.331 390.982 805.989 390.884Q847.463 390.066 888.944 390.414C900.652 390.562 916.342 389.306 927.378 390.988C933.129 391.865 938.421 394.019 942.652 398.127C946.375 401.741 949.172 406.898 950.205 411.995C951.029 416.055 950.82 420.184 950.966 424.3C951.291 433.423 951.358 442.511 951.373 451.638L951.324 528.383C951.343 537.214 950.014 545.792 943.324 552.227C940.132 555.297 936.141 557.276 931.873 558.356C920.909 561.132 896.865 559.525 884.548 559.421C873.422 558.676 862.021 559.167 850.866 559.181L791.423 559.257C781.378 569.641 772.179 580.819 761.934 591.015C759.839 593.1 756.083 597.446 753.004 597.439C751.449 596.113 751.321 593.736 751.106 591.818C750.267 584.341 750.872 573.495 750.85 565.7L750.893 508.264L751.097 447.145C751.083 437.128 750.109 426.576 751.216 416.612C751.871 410.716 753.231 405.459 757.08 400.765C763.056 393.478 771.328 391.536 780.203 390.692Z"/>
	<path fill="#FEFEFE" d="M890.619 470.756C897.616 470.5 907.38 468.793 913.903 471.588C916.328 472.627 918.121 473.987 919.064 476.487C918.987 477.353 919.065 477.899 918.583 478.652C917.403 480.494 914.284 481.871 912.248 482.262C905.559 482.541 898.391 483.324 891.771 482.098C888.871 481.561 885.425 480.82 883.632 478.292C883.422 476.964 883.43 476.268 884.148 475.08C885.704 472.506 887.796 471.423 890.619 470.756Z"/>
	<path fill="#FEFEFE" d="M793.379 470.532C801.33 470.315 811.351 469.092 819.05 470.893C821.126 471.378 823.404 472.281 824.395 474.32C825.003 475.571 824.969 476.947 824.538 478.242C823.811 480.428 822.211 481.422 820.255 482.415C812.889 482.925 804.675 483.766 797.373 482.692C794.726 482.303 790.823 481.113 789.332 478.662C788.632 477.51 788.377 476.399 788.837 475.092C789.621 472.866 791.476 471.714 793.379 470.532Z"/>
	<path fill="#FEFEFE" d="M874.67 450.432C876.559 450.452 878.765 450.525 880.252 451.884C881.3 452.842 881.879 453.898 881.97 455.319C882.448 462.761 867.401 497.266 862.125 503.661C861.959 503.667 861.793 503.675 861.627 503.679C859.485 503.731 857.217 503.528 855.715 501.768C854.772 500.663 854.452 499.324 854.565 497.9C855.1 491.167 867.628 459.983 871.655 453.592C872.445 452.34 873.547 451.376 874.67 450.432Z"/>
	<path fill="#FEFEFE" d="M846.105 448.875C848.227 449.057 850.819 449.45 852.383 451.082C853.403 452.146 853.642 453.09 853.604 454.526C853.396 462.257 840.277 492.581 836.1 499.539C835.252 500.951 834.123 502.08 832.922 503.191C832.694 503.249 832.469 503.321 832.238 503.366C830.663 503.668 828.626 503.569 827.369 502.454C825.958 501.202 825.783 499.18 825.833 497.413C826.035 490.227 838.814 459.198 842.98 452.387C843.807 451.036 844.952 449.947 846.105 448.875Z"/>
	<path fill="#E95D5B" d="M241.054 279.739C246.838 279.586 253.086 279.513 258.638 281.343Q259.169 281.516 259.69 281.715Q260.211 281.914 260.722 282.139Q261.233 282.364 261.732 282.614Q262.23 282.864 262.716 283.139Q263.202 283.414 263.673 283.713Q264.145 284.012 264.6 284.334Q265.056 284.656 265.495 285.001Q265.934 285.345 266.356 285.711Q266.777 286.077 267.179 286.464Q267.582 286.85 267.965 287.257Q268.347 287.663 268.709 288.088Q269.071 288.513 269.411 288.955Q269.751 289.398 270.069 289.856Q270.386 290.315 270.68 290.79Q270.974 291.264 271.245 291.752Q271.515 292.241 271.76 292.742C273.567 296.363 274.278 300.269 274.482 304.275C274.899 312.476 274.466 320.812 274.431 329.03L274.445 373.559L274.646 455.842C274.645 464.256 275.701 489.275 273.761 495.026C272.858 495.6 272.837 495.621 271.841 495.185C269.33 494.084 266.494 490.644 264.458 488.703C256.334 480.963 243.73 467.055 234.232 462.507C231.215 461.062 227.598 460.614 224.287 460.386C215.252 459.762 206 460.437 196.932 460.453L140.25 460.456Q125.878 460.396 111.509 460.689C105.185 460.766 98.2471 461.302 92.0178 460.092C88.0024 459.312 84.1827 457.736 81.0315 455.086C76.1583 450.988 73.5557 444.954 72.9657 438.699C72.1673 430.233 72.7542 421.621 72.7673 413.128L72.7488 365.915L72.7217 323.588C72.722 315.407 72.112 306.636 73.3733 298.563C74.013 294.469 76.0974 290.28 78.8158 287.17C82.311 283.173 86.476 281.501 91.5771 280.659C102.267 278.893 120.82 280.041 132.393 280.04L199.975 280.013C213.625 280.022 227.426 280.438 241.054 279.739Z"/>
	<path fill="#FB8075" d="M101.363 295.182C108.786 294.582 116.445 295.091 123.891 295.149L168.621 295.495C182.395 295.549 196.187 295.687 209.96 295.515C220.644 295.381 231.365 294.832 242.043 295.517C245.964 295.769 249.938 296.458 253.448 298.31C256.717 300.034 258.427 302.428 259.385 305.975C261.08 312.245 260.047 320.302 260.006 326.772L259.988 352.792L259.986 397.395C259.985 406.195 260.267 415.111 259.719 423.893C259.495 427.486 259.371 431.732 257.429 434.864C254.555 439.498 249.488 441.306 244.427 442.365C236.065 443.171 227.436 442.557 219.04 442.537L172.376 442.49L129.892 442.541C121.125 442.617 112.126 443.284 103.387 442.513C99.2575 442.148 94.3642 441.272 90.9962 438.745C88.6702 437 86.877 433.313 86.5086 430.475C85.6264 423.682 86.1139 416.591 86.1662 409.758L86.4728 373.342L86.4732 334.349C86.4266 326.674 85.9675 318.773 86.5755 311.127C86.8922 307.146 87.1518 303.473 89.74 300.219C92.6939 296.507 96.9225 295.638 101.363 295.182Z"/>
	<path fill="#FEFEFE" d="M140.413 340.372C142.417 340.524 145.579 341.247 146.821 342.977C147.367 343.738 147.501 344.414 147.411 345.311C146.654 352.906 124.777 366.604 118.419 371.404C125.653 376.533 142.935 386.12 146.068 394.372C146.56 395.668 146.331 396.262 145.8 397.478C143.661 399.14 141.682 399.326 139.032 399.371C131.858 395.901 108.166 379.848 103.714 373.603C102.936 372.51 102.46 371.596 102.653 370.221C106.493 362.901 132.261 346.177 140.413 340.372Z"/>
	<path fill="#FEFEFE" d="M202.126 341.849Q203.556 341.906 204.901 342.397C212.842 345.286 233.973 361.171 239.843 367.756C241.006 369.061 241.805 370.58 242.589 372.13C233.234 383.074 218.465 392.125 206.848 400.656C205.487 401.221 204.117 401.722 202.618 401.62C201.135 401.518 198.795 400.592 198.005 399.236C197.372 398.151 197.255 397.409 197.47 396.193C198.709 389.176 220.635 375.803 226.732 371.475C220.553 367.348 199.335 354.176 197.742 347.909C198.102 345.062 200.124 343.625 202.126 341.849Z"/>
	<path fill="#FEFEFE" d="M184.136 326.336C186.114 326.452 188.15 326.944 189.778 328.125Q190.026 328.308 190.254 328.514Q190.482 328.721 190.689 328.949Q190.896 329.177 191.078 329.425Q191.261 329.673 191.418 329.937Q191.575 330.202 191.705 330.481Q191.834 330.761 191.935 331.051Q192.037 331.342 192.108 331.642Q192.18 331.941 192.221 332.246C192.827 336.587 166.45 398.873 162.4 407.11C161.015 409.927 159.45 412.351 157.518 414.823C155.186 414.763 152.132 414.287 150.542 412.355C149.747 411.389 149.426 410.459 149.49 409.205C149.928 400.602 164.222 369.076 167.988 359.486C171.467 350.625 174.209 340.81 178.733 332.462C180.122 329.899 181.955 328.195 184.136 326.336Z"/>
	<path fill="#202F52" d="M578.501 129.495C594.659 131.092 607.012 135.338 617.658 148.276C628.238 161.135 632.013 177.449 630.235 193.824C629.806 197.769 628.96 201.645 628.04 205.499C636.442 205.57 644.874 205.565 651.416 199.366C655.948 195.072 657.968 189.355 659.934 183.601C675.639 194.6 685.899 210.948 689.195 229.859C691.816 244.897 689.561 259.95 680.662 272.57C675.853 279.391 669.703 284.726 662.96 289.559C666.386 306.667 668.493 324.217 667.553 341.697C664.638 341.883 661.76 342.032 658.838 342.005L658.987 355.915C659.035 364.419 660.688 384.697 654.825 390.818C653.506 392.196 651.943 392.73 650.06 392.612C649.545 392.579 649.375 392.526 648.916 392.422C651.567 367.947 649.77 343.504 647.297 319.099C638.933 320.544 631.02 323.354 622.831 325.458Q613.821 327.757 604.63 329.161Q595.438 330.565 586.153 331.061C544.326 333.024 503.239 325.524 468.21 301.352C459.678 295.465 451.761 288.457 444.126 281.455C440.376 278.015 435.376 273.322 435.138 267.982C433.962 266.624 432.794 265.302 431.501 264.053C410.301 269.784 393.382 280.243 382.173 299.648Q380.86 301.884 379.721 304.214Q378.581 306.543 377.621 308.953Q376.662 311.362 375.888 313.837Q375.114 316.312 374.53 318.839C370.201 337.921 371.472 372.397 373.641 392.213C372.771 392.795 371.713 393.558 370.651 393.708C369.47 393.874 368.151 393.487 367.26 392.699C361.884 387.947 363.979 360.283 364.026 352.802L364.019 338.959C358.912 339.221 354.184 339.919 349.25 341.291C349.114 325.077 348.373 308.674 349.842 292.5Q349.986 290.988 350.163 289.48Q350.34 287.971 350.548 286.467Q350.757 284.962 350.998 283.462Q351.239 281.963 351.511 280.469Q351.784 278.974 352.089 277.486Q352.393 275.998 352.729 274.517Q353.065 273.036 353.433 271.562Q353.8 270.089 354.199 268.623Q354.598 267.157 355.028 265.701Q355.458 264.244 355.919 262.797Q356.38 261.35 356.871 259.913Q357.363 258.475 357.885 257.049Q358.407 255.623 358.96 254.208Q359.512 252.793 360.094 251.391Q360.677 249.988 361.289 248.598Q361.901 247.208 362.543 245.831Q363.185 244.455 363.856 243.092Q364.526 241.729 365.226 240.381Q365.926 239.033 366.654 237.7Q367.383 236.367 368.139 235.05Q368.896 233.733 369.68 232.433Q370.465 231.132 371.276 229.849Q372.088 228.565 372.928 227.299Q373.767 226.033 374.633 224.785Q375.498 223.537 376.391 222.308Q377.283 221.079 378.201 219.869Q379.12 218.66 380.064 217.47Q381.007 216.28 381.976 215.11Q382.945 213.94 383.939 212.792Q384.933 211.643 385.951 210.516Q386.969 209.388 388.01 208.283Q389.052 207.178 390.117 206.095C416.156 179.675 451.436 161.633 489.027 161.385C499.917 161.314 510.803 161.982 521.671 162.591C537.039 163.452 561.053 167.727 573.016 155.244C579.874 148.088 578.769 138.521 578.501 129.495Z"/>
	<path fill="#F4B38C" d="M435.138 267.982Q437.111 269.559 439.121 271.088Q441.132 272.617 443.178 274.097Q445.225 275.578 447.306 277.008Q449.388 278.439 451.503 279.819Q453.618 281.199 455.766 282.528Q457.914 283.857 460.093 285.134Q462.273 286.411 464.482 287.635Q466.691 288.86 468.929 290.03Q471.167 291.201 473.433 292.318Q475.698 293.434 477.99 294.496Q480.282 295.558 482.598 296.565Q484.915 297.571 487.255 298.522Q489.595 299.472 491.957 300.366Q494.32 301.26 496.703 302.097Q499.086 302.934 501.488 303.713Q503.891 304.492 506.312 305.214Q508.732 305.935 511.169 306.598Q513.607 307.261 516.059 307.866Q518.511 308.47 520.978 309.015Q523.444 309.56 525.923 310.046Q528.401 310.531 530.891 310.957Q533.38 311.383 535.88 311.749Q538.379 312.115 540.886 312.421Q543.393 312.727 545.907 312.972Q548.421 313.218 550.94 313.403Q553.459 313.588 555.981 313.712Q558.504 313.837 561.029 313.9Q563.554 313.964 566.08 313.967Q568.606 313.97 571.131 313.912Q573.656 313.854 576.179 313.736Q578.702 313.618 581.221 313.439Q583.741 313.26 586.255 313.02C606.829 310.9 625.316 305.515 644.842 298.918C645.521 305.424 645.701 312.765 647.297 319.099C638.933 320.544 631.02 323.354 622.831 325.458Q613.821 327.757 604.63 329.161Q595.438 330.565 586.153 331.061C544.326 333.024 503.239 325.524 468.21 301.352C459.678 295.465 451.761 288.457 444.126 281.455C440.376 278.015 435.376 273.322 435.138 267.982Z"/>
	<path fill="#3286A0" d="M705.376 837.998C715.544 837.326 727.119 836.362 736.607 840.803C741.229 844.62 744.928 848.929 745.497 855.178C745.972 860.404 744.007 865.596 740.609 869.531C738.499 871.974 735.923 873.878 733.077 875.376C749.78 876.461 766.657 875.577 783.381 875.55L876.004 875.522C889.078 875.521 902.754 874.163 915.741 875.254C919.245 875.549 923.264 876.083 926.028 878.434C927.835 879.97 928.747 882.073 928.925 884.415C929.128 887.08 928.434 889.491 926.57 891.451C925.138 892.956 923.206 893.934 921.22 894.475C913.022 896.704 890.443 894.885 880.132 894.856L785.563 894.791L317.919 894.631L317.985 914.802C348.087 914.275 378.307 914.95 408.421 914.947L605.11 914.816L758.622 914.745Q778.389 914.81 798.155 914.668C805.943 914.595 813.788 914.212 821.571 914.477C824.496 914.577 827.478 915.023 830.052 916.499C833.662 918.569 834.673 921.324 835.692 925.147C835.027 927.577 834.314 930.33 832.517 932.195C829.92 934.89 824.71 935.53 821.167 935.63C807.356 936.02 793.363 935.447 779.532 935.456L681.447 935.485L388.799 935.474L255.699 935.482C245.123 935.485 203.535 937.047 196.191 934.596C194.632 934.076 192.957 933.235 191.794 932.052C189.829 930.052 188.84 926.617 188.996 923.866C189.128 921.543 190.082 919.549 191.864 918.044C194.485 915.829 198.272 914.978 201.61 914.64C206.237 914.172 211.047 914.53 215.702 914.558L242.1 914.669L277.635 914.695C284.213 914.699 290.937 914.416 297.498 914.856L298.019 914.894L298.004 894.686C252.318 893.863 206.494 894.552 160.791 894.558L125.151 894.576C118.625 894.604 111.845 895.147 105.349 894.542C102.315 894.26 99.48 893.385 97.5567 890.844C96.1723 889.015 95.7898 886.663 96.1657 884.435C96.8908 880.138 99.0283 877.93 102.521 875.564C119.515 874.823 136.587 875.451 153.593 875.485L241.124 875.481L270.729 875.696C277.438 875.749 284.433 876.081 291.091 875.238C287.146 873.416 283.456 870.373 281.153 866.669Q280.894 866.255 280.657 865.829Q280.42 865.403 280.204 864.965Q279.989 864.528 279.795 864.08Q279.602 863.632 279.431 863.175Q279.261 862.718 279.114 862.253Q278.966 861.788 278.843 861.316Q278.719 860.844 278.619 860.366Q278.519 859.889 278.444 859.407Q278.368 858.925 278.317 858.44Q278.266 857.955 278.239 857.468Q278.212 856.98 278.21 856.492Q278.208 856.005 278.23 855.517Q278.252 855.03 278.299 854.545Q278.346 854.059 278.417 853.576Q278.489 853.094 278.584 852.615Q278.68 852.137 278.799 851.664C280.357 845.595 284.424 841.784 289.55 838.603C298.078 837.311 306.443 837.735 315.026 838.041L333.029 838.005L622.473 837.575C632.61 838.524 643.097 838.035 653.281 838.033L705.376 837.998Z"/>
	<path fill="#202F52" d="M705.376 837.998C715.544 837.326 727.119 836.362 736.607 840.803C741.229 844.62 744.928 848.929 745.497 855.178C745.972 860.404 744.007 865.596 740.609 869.531C738.499 871.974 735.923 873.878 733.077 875.376Q661.23 875.881 589.382 875.483L291.091 875.238C287.146 873.416 283.456 870.373 281.153 866.669Q280.894 866.255 280.657 865.829Q280.42 865.403 280.204 864.965Q279.989 864.528 279.795 864.08Q279.602 863.632 279.431 863.175Q279.261 862.718 279.114 862.253Q278.966 861.788 278.843 861.316Q278.719 860.844 278.619 860.366Q278.519 859.889 278.444 859.407Q278.368 858.925 278.317 858.44Q278.266 857.955 278.239 857.468Q278.212 856.98 278.21 856.492Q278.208 856.005 278.23 855.517Q278.252 855.03 278.299 854.545Q278.346 854.059 278.417 853.576Q278.489 853.094 278.584 852.615Q278.68 852.137 278.799 851.664C280.357 845.595 284.424 841.784 289.55 838.603C298.078 837.311 306.443 837.735 315.026 838.041L333.029 838.005L622.473 837.575C632.61 838.524 643.097 838.035 653.281 838.033L705.376 837.998Z"/>
	<path fill="#F9CFAB" d="M373.641 392.213C371.472 372.397 370.201 337.921 374.53 318.839Q375.114 316.312 375.888 313.837Q376.662 311.362 377.621 308.953Q378.581 306.543 379.721 304.214Q380.86 301.884 382.173 299.648C393.382 280.243 410.301 269.784 431.501 264.053C432.794 265.302 433.962 266.624 435.138 267.982C435.376 273.322 440.376 278.015 444.126 281.455C451.761 288.457 459.678 295.465 468.21 301.352C503.239 325.524 544.326 333.024 586.153 331.061Q595.438 330.565 604.63 329.161Q613.821 327.757 622.831 325.458C631.02 323.354 638.933 320.544 647.297 319.099C649.77 343.504 651.567 367.947 648.916 392.422C647.334 398.454 645.529 404.587 644.658 410.766C644.503 410.976 644.344 411.183 644.192 411.396C640.646 416.389 637.079 429.708 633.48 436.349C618.31 464.343 588.338 492.218 556.66 499.33C532.106 505.863 511.04 508.64 485.597 504.236C479.158 503.122 472.906 500.748 466.505 499.761C462.23 497.955 457.85 496.406 453.619 494.49C417.878 478.301 392.734 446 379.101 409.988C370.444 412.039 362.302 413.431 353.538 411.133Q352.629 410.886 351.734 410.595Q350.839 410.304 349.959 409.969Q349.08 409.634 348.218 409.255Q347.356 408.877 346.513 408.457Q345.671 408.036 344.851 407.575Q344.03 407.113 343.234 406.611Q342.437 406.11 341.666 405.569Q340.896 405.029 340.153 404.451Q339.41 403.873 338.696 403.259Q337.982 402.645 337.3 401.996Q336.618 401.348 335.968 400.666Q335.319 399.985 334.704 399.272Q334.089 398.559 333.51 397.816Q332.932 397.074 332.39 396.304Q331.849 395.534 331.346 394.738Q330.844 393.942 330.381 393.122C325.588 384.646 324.662 374.548 327.339 365.227C330.806 353.157 338.656 347.114 349.25 341.291C354.184 339.919 358.912 339.221 364.019 338.959L364.026 352.802C363.979 360.283 361.884 387.947 367.26 392.699C368.151 393.487 369.47 393.874 370.651 393.708C371.713 393.558 372.771 392.795 373.641 392.213Z"/>
	<path fill="#202F52" d="M503.172 433.697C509.717 433.179 521.672 432.438 527.874 434.438C529.365 434.919 530.802 435.739 531.427 437.262C531.86 438.318 531.753 439.394 531.127 440.347C529.25 443.205 523.751 443.129 520.705 443.488C512.134 443.527 503.398 443.745 494.861 442.884C493.832 441.92 492.205 440.625 491.738 439.244C491.319 438 491.717 437.461 492.282 436.418C495.392 434.138 499.46 434.092 503.172 433.697Z"/>
	<path fill="#F4B38C" d="M364.026 352.802C363.979 360.283 361.884 387.947 367.26 392.699C368.151 393.487 369.47 393.874 370.651 393.708C371.713 393.558 372.771 392.795 373.641 392.213C374.932 395.792 375.873 399.518 376.902 403.182C369.83 402.819 363.164 400.812 357.51 396.446C351.646 391.918 347.452 385.184 346.636 377.751C345.95 371.499 347.451 364.445 351.488 359.527Q352.068 358.822 352.713 358.176Q353.359 357.53 354.064 356.951Q354.77 356.371 355.528 355.863Q356.287 355.355 357.092 354.924Q357.896 354.492 358.739 354.141Q359.582 353.79 360.455 353.523Q361.328 353.256 362.223 353.075Q363.118 352.895 364.026 352.802Z"/>
	<path fill="#202F52" d="M577.236 354.097C579.997 353.999 582.591 353.955 585.251 354.875Q585.99 355.125 586.7 355.451Q587.409 355.777 588.081 356.176Q588.753 356.574 589.379 357.04Q590.006 357.506 590.58 358.035Q591.155 358.563 591.671 359.149Q592.187 359.735 592.64 360.371Q593.092 361.008 593.476 361.688Q593.859 362.368 594.17 363.084Q594.531 363.908 594.808 364.763Q595.086 365.619 595.276 366.498Q595.466 367.377 595.567 368.27Q595.669 369.164 595.68 370.063Q595.691 370.962 595.613 371.858Q595.534 372.754 595.366 373.638Q595.198 374.521 594.943 375.383Q594.687 376.246 594.347 377.078C591.984 382.728 587.694 385.251 582.321 387.474C578.939 387.251 576.085 387.193 572.973 385.656Q572.226 385.294 571.518 384.86Q570.811 384.425 570.15 383.923Q569.49 383.42 568.882 382.854Q568.275 382.288 567.727 381.664Q567.179 381.04 566.696 380.365Q566.213 379.69 565.8 378.97Q565.387 378.25 565.047 377.492Q564.707 376.735 564.445 375.947Q564.185 375.171 564.003 374.374Q563.82 373.577 563.717 372.766Q563.613 371.954 563.59 371.137Q563.566 370.319 563.623 369.503Q563.679 368.687 563.815 367.881Q563.952 367.074 564.166 366.285Q564.381 365.496 564.672 364.732Q564.963 363.967 565.327 363.235C567.816 358.292 572.144 355.75 577.236 354.097Z"/>
	<path fill="#202F52" d="M444.719 353.202C448.231 353.334 451.399 354.07 454.367 356.022C458.077 358.461 460.481 362.292 461.284 366.644Q461.448 367.522 461.525 368.413Q461.602 369.303 461.589 370.197Q461.577 371.091 461.476 371.979Q461.375 372.867 461.187 373.74Q460.998 374.614 460.724 375.464Q460.45 376.315 460.092 377.134Q459.735 377.953 459.298 378.733Q458.861 379.513 458.349 380.245C455.094 384.836 450.742 386.404 445.466 387.394C441.712 387.14 438.268 386.29 435.193 384.018Q434.53 383.52 433.92 382.959Q433.309 382.398 432.757 381.78Q432.204 381.162 431.715 380.493Q431.225 379.824 430.803 379.11Q430.382 378.396 430.032 377.644Q429.683 376.892 429.408 376.11Q429.134 375.328 428.938 374.522Q428.742 373.717 428.625 372.896C427.94 368.215 429.124 363.196 432.079 359.468C435.344 355.35 439.665 353.707 444.719 353.202Z"/>
	<path fill="#616D88" d="M466.505 499.761C472.906 500.748 479.158 503.122 485.597 504.236C511.04 508.64 532.106 505.863 556.66 499.33L556.993 519.931C556.989 524.467 556.527 529.769 557.733 534.149C562.982 534.131 568.247 534.196 573.494 534.091C609.691 533.806 639.804 535.195 667.347 562.462C679.151 574.147 686.346 587.289 692.459 602.57C698.872 602.655 705.646 603.09 712.008 602.205C716.145 602.689 720.223 604.351 722.82 607.721C730.801 618.078 723.077 647.276 722.887 660.881C718.638 694.842 716.061 729.134 712.518 763.187L708.243 805.127C707.078 816.052 705.521 826.999 705.376 837.998L653.281 838.033C643.097 838.035 632.61 838.524 622.473 837.575L333.029 838.005L315.026 838.041C314.057 833.118 314.107 827.666 313.767 822.654L311.835 794.319L305.117 697.169C304.471 687.675 304.369 667.586 302.232 659.378C303.528 653.836 299.731 627.317 299.665 618.814C299.629 614.238 300.377 609.34 303.821 606.019C307.592 602.382 312.43 602.31 317.322 602.322C321.327 602.579 325.522 602.739 329.509 602.251C336.611 585.879 346.355 571.761 359.897 560.009C385.25 538.009 420.039 531.222 452.822 533.594C457.103 533.596 461.459 533.423 465.729 533.649C466.256 531.922 466.084 529.694 466.156 527.876C465.811 518.57 466.028 509.059 466.505 499.761Z"/>
	<path fill="#FEFEFE" d="M508.574 700.158Q509.616 700.028 510.665 699.98Q511.715 699.932 512.764 699.967Q513.814 700.001 514.858 700.118Q515.902 700.235 516.933 700.433Q517.965 700.631 518.977 700.91Q519.99 701.188 520.978 701.545Q521.966 701.902 522.922 702.336Q523.879 702.769 524.799 703.276C531.017 706.782 535.163 712.711 536.97 719.535Q537.154 720.206 537.303 720.886Q537.453 721.566 537.568 722.252Q537.683 722.939 537.764 723.63Q537.844 724.322 537.889 725.016Q537.935 725.711 537.945 726.407Q537.955 727.103 537.93 727.799Q537.905 728.494 537.845 729.188Q537.786 729.881 537.691 730.571Q537.596 731.26 537.466 731.944Q537.337 732.628 537.173 733.305Q537.009 733.981 536.811 734.649Q536.613 735.316 536.382 735.972Q536.151 736.629 535.887 737.273Q535.623 737.917 535.327 738.547Q535.031 739.177 534.703 739.791Q534.375 740.405 534.017 741.002C529.667 748.238 523.323 751.194 515.504 753.169C508.827 753.511 502.787 752.753 497.081 748.892Q496.532 748.52 496.003 748.121Q495.474 747.721 494.965 747.296Q494.456 746.871 493.97 746.42Q493.484 745.97 493.02 745.495Q492.557 745.021 492.119 744.523Q491.68 744.026 491.267 743.508Q490.854 742.989 490.468 742.45Q490.082 741.911 489.723 741.353Q489.364 740.796 489.034 740.221Q488.704 739.646 488.404 739.055Q488.103 738.464 487.832 737.858Q487.562 737.253 487.322 736.635Q487.083 736.017 486.875 735.387Q486.666 734.758 486.49 734.119Q486.314 733.479 486.171 732.832Q486.027 732.185 485.916 731.531C484.703 724.304 486.118 716.644 490.477 710.668C494.877 704.636 501.332 701.286 508.574 700.158Z"/>
	<path fill="#465472" d="M712.008 602.205C716.145 602.689 720.223 604.351 722.82 607.721C730.801 618.078 723.077 647.276 722.887 660.881C718.638 694.842 716.061 729.134 712.518 763.187L708.243 805.127C707.078 816.052 705.521 826.999 705.376 837.998L653.281 838.033C643.097 838.035 632.61 838.524 622.473 837.575C629.584 836.899 637.274 837.468 644.438 837.479L689.449 837.583C690.982 809.099 694.498 780.53 697.294 752.146L712.008 602.205Z"/>
	<path fill="#465472" d="M302.232 659.378C303.528 653.836 299.731 627.317 299.665 618.814C299.629 614.238 300.377 609.34 303.821 606.019C307.592 602.382 312.43 602.31 317.322 602.322C317.678 615.622 318.943 628.957 319.888 642.227L324.415 706.121L333.029 838.005L315.026 838.041C314.057 833.118 314.107 827.666 313.767 822.654L311.835 794.319L305.117 697.169C304.471 687.675 304.369 667.586 302.232 659.378Z"/>
	<path fill="#E95D5B" d="M329.509 602.251C336.611 585.879 346.355 571.761 359.897 560.009C385.25 538.009 420.039 531.222 452.822 533.594L450.277 534.319C447.55 539.25 450.535 550.078 452.022 555.254C456.829 571.994 466.704 585.969 482.153 594.386C488.095 597.623 494.609 599.783 501.049 601.792C479.318 602.515 457.579 602.02 435.838 602.008Q382.672 601.802 329.509 602.251Z"/>
	<path fill="#E95D5B" d="M573.494 534.091C609.691 533.806 639.804 535.195 667.347 562.462C679.151 574.147 686.346 587.289 692.459 602.57C674.985 601.858 657.596 602.238 640.12 602.257C600.46 602.3 560.658 602.899 521.015 601.807C523.662 601.342 526.446 600.214 529.008 599.358C541.806 595.081 552.333 588.407 560.376 577.418C568.46 566.373 575.561 547.916 573.494 534.091Z"/>
	<path fill="#F9CFAB" d="M466.505 499.761C472.906 500.748 479.158 503.122 485.597 504.236C511.04 508.64 532.106 505.863 556.66 499.33L556.993 519.931C556.989 524.467 556.527 529.769 557.733 534.149C562.982 534.131 568.247 534.196 573.494 534.091C575.561 547.916 568.46 566.373 560.376 577.418C552.333 588.407 541.806 595.081 529.008 599.358C526.446 600.214 523.662 601.342 521.015 601.807C514.236 602.666 507.826 602.308 501.049 601.792C494.609 599.783 488.095 597.623 482.153 594.386C466.704 585.969 456.829 571.994 452.022 555.254C450.535 550.078 447.55 539.25 450.277 534.319L452.822 533.594C457.103 533.596 461.459 533.423 465.729 533.649C466.256 531.922 466.084 529.694 466.156 527.876C465.811 518.57 466.028 509.059 466.505 499.761Z"/>
	<path fill="#F4B38C" d="M466.505 499.761C472.906 500.748 479.158 503.122 485.597 504.236C511.04 508.64 532.106 505.863 556.66 499.33L556.993 519.931C550.989 522.434 545.343 525.298 539.048 527.119C518.35 533.107 491.226 531.68 471.189 523.445C469.595 522.79 468.154 521.914 466.718 520.973C466.697 522.729 467.086 526.433 466.156 527.876C465.811 518.57 466.028 509.059 466.505 499.761Z"/>
	<path fill="#BF3C41" d="M452.822 533.594C457.103 533.596 461.459 533.423 465.729 533.649C464.476 545.894 468.656 559.683 476.445 569.202Q477.154 570.06 477.904 570.882Q478.654 571.705 479.444 572.49Q480.233 573.275 481.059 574.021Q481.885 574.766 482.746 575.471Q483.608 576.176 484.502 576.839Q485.397 577.501 486.323 578.119Q487.248 578.737 488.203 579.31Q489.157 579.882 490.138 580.408Q491.12 580.934 492.125 581.411Q493.13 581.888 494.158 582.317Q495.185 582.745 496.232 583.122Q497.279 583.5 498.344 583.827Q499.408 584.153 500.486 584.428Q501.565 584.702 502.656 584.924Q503.746 585.146 504.847 585.315Q505.947 585.484 507.054 585.599Q508.174 585.703 509.299 585.751Q510.423 585.799 511.548 585.791Q512.673 585.784 513.797 585.721Q514.92 585.657 516.039 585.539Q517.158 585.42 518.27 585.246Q519.382 585.073 520.483 584.844Q521.585 584.615 522.674 584.333Q523.763 584.05 524.837 583.714Q525.911 583.378 526.967 582.989Q528.023 582.6 529.058 582.159Q530.094 581.719 531.106 581.227Q532.118 580.736 533.105 580.195Q534.092 579.654 535.051 579.066Q536.01 578.477 536.938 577.841Q537.867 577.206 538.763 576.525Q539.659 575.844 540.52 575.12C550.487 566.82 556.108 555.221 557.166 542.374Q557.474 538.263 557.733 534.149C562.982 534.131 568.247 534.196 573.494 534.091C575.561 547.916 568.46 566.373 560.376 577.418C552.333 588.407 541.806 595.081 529.008 599.358C526.446 600.214 523.662 601.342 521.015 601.807C514.236 602.666 507.826 602.308 501.049 601.792C494.609 599.783 488.095 597.623 482.153 594.386C466.704 585.969 456.829 571.994 452.022 555.254C450.535 550.078 447.55 539.25 450.277 534.319L452.822 533.594Z"/>
</svg>
